SplineFontDB: 3.0
FontName: Amiri-Regular
FullName: Amiri Regular
FamilyName: Amiri
Weight: Regular
Copyright: Copyright (c) 2010, Khaled Hosny <khaledhosny@eglug.org>.\n\nThis Font Software is licensed under the Open Font License, Version 1.1.
UComments: "2010-5-8: Created." 
Version: 000.001
ItalicAngle: 0
UnderlinePosition: -204
UnderlineWidth: 102
Ascent: 1638
Descent: 410
LayerCount: 2
Layer: 0 1 "Back"  1
Layer: 1 1 "Fore"  0
XUID: [1021 862 584604386 637949]
FSType: 0
OS2Version: 4
OS2_WeightWidthSlopeOnly: 0
OS2_UseTypoMetrics: 1
CreationTime: 1273266481
ModificationTime: 1276197241
PfmFamily: 17
TTFWeight: 500
TTFWidth: 5
LineGap: 200
VLineGap: 0
OS2TypoAscent: 0
OS2TypoAOffset: 1
OS2TypoDescent: 0
OS2TypoDOffset: 1
OS2TypoLinegap: 200
OS2WinAscent: 0
OS2WinAOffset: 1
OS2WinDescent: 0
OS2WinDOffset: 1
HheadAscent: 0
HheadAOffset: 1
HheadDescent: 0
HheadDOffset: 1
OS2Vendor: 'BLQ '
Lookup: 2 0 0 "'ccmp' Glyph Decomposition"  {"'ccmp' Glyph Decomposition-1"  } ['ccmp' ('DFLT' <'dflt' > 'arab' <'dflt' > ) ]
Lookup: 1 0 0 "'init' Initial Forms in Arabic lookup 1"  {"'init' Initial Forms in Arabic lookup 1 subtable"  } ['init' ('DFLT' <'dflt' > 'arab' <'dflt' > ) ]
Lookup: 1 0 0 "'medi' Medial Forms in Arabic lookup 2"  {"'medi' Medial Forms in Arabic lookup 2 subtable"  } ['medi' ('DFLT' <'dflt' > 'arab' <'dflt' > ) ]
Lookup: 1 0 0 "'fina' Terminal Forms in Arabic lookup 3"  {"'fina' Terminal Forms in Arabic lookup 3 subtable"  } ['fina' ('DFLT' <'dflt' > 'arab' <'dflt' > ) ]
Lookup: 1 0 0 "KafLamHehIsol"  {"KafLamHehIsol subtable"  } []
Lookup: 1 0 0 "BaaBaaAltInit"  {"BaaBaaAltInit subtable"  } []
Lookup: 1 0 0 "SeenYaaFina"  {"SeenYaaFina subtable"  } []
Lookup: 1 0 0 "LamHaaHaaInit"  {"LamHaaHaaInit subtable"  } []
Lookup: 1 0 0 "LamHaaHaaInit2"  {"LamHaaHaaInit2 subtable"  } []
Lookup: 1 0 0 "AynMeemInit"  {"AynMeemInit subtable"  } []
Lookup: 1 0 0 "KafHehIsol"  {"KafHehIsol subtable"  } []
Lookup: 1 0 0 "LamDalIsol"  {"LamDalIsol subtable"  } []

StartChar: alef.fina.alt
Encoding: 65536 -1 0
Width: 0
VWidth: 0
AnchorPoint: "HamzaBelow" 0 0 basechar 0
AnchorPoint: "HamzaAbove" 0 0 basechar 0
AnchorPoint: "DotBelow" 0 0 basechar 0
AnchorPoint: "DotAbove" 0 0 basechar 0
LayerCount: 2
Fore
SplineSet
305 1638 m 0,0,1
 314 1638 314 1638 321.5 1629.5 c 128,-1,2
 329 1621 329 1621 328 1609 c 2,3,-1
 312 1482 l 2,4,5
 308 1450 308 1450 282 1447 c 0,6,7
 218 1440 218 1440 183 1423 c 0,8,9
 166 1415 166 1415 162.5 1391 c 128,-1,10
 159 1367 159 1367 159 1280 c 0,11,12
 161 945 161 945 182 777 c 0,13,14
 183 768 183 768 187.5 732 c 128,-1,15
 192 696 192 696 194.5 682 c 128,-1,16
 197 668 197 668 202 641 c 128,-1,17
 207 614 207 614 213.5 594 c 128,-1,18
 220 574 220 574 229 554 c 0,19,20
 305 391 305 391 451.5 303 c 128,-1,21
 598 215 598 215 833 188 c 0,22,23
 1112 155 1112 155 1572 186 c 0,24,25
 1600 189 1600 189 1619.5 175.5 c 128,-1,26
 1639 162 1639 162 1633 127 c 0,27,28
 1613 7 1613 7 1569 0 c 1,29,30
 1365 -21 1365 -21 1127 -14 c 0,31,32
 1114 -13 1114 -13 1045.5 -10.5 c 128,-1,33
 977 -8 977 -8 953 -7 c 128,-1,34
 929 -6 929 -6 862 -1.5 c 128,-1,35
 795 3 795 3 763 8 c 128,-1,36
 731 13 731 13 669.5 22.5 c 128,-1,37
 608 32 608 32 572 43.5 c 128,-1,38
 536 55 536 55 483.5 73 c 128,-1,39
 431 91 431 91 395 112.5 c 128,-1,40
 359 134 359 134 320 163 c 128,-1,41
 281 192 281 192 250 227 c 0,42,43
 196 288 196 288 161 386.5 c 128,-1,44
 126 485 126 485 112.5 607.5 c 128,-1,45
 99 730 99 730 94.5 821 c 128,-1,46
 90 912 90 912 91 1031.5 c 128,-1,47
 92 1151 92 1151 92 1169 c 0,48,49
 86 1394 86 1394 103 1464 c 0,50,51
 124 1551 124 1551 171 1594 c 128,-1,52
 218 1637 218 1637 305 1638 c 0,0,1
EndSplineSet
EndChar

StartChar: alef.fina
Encoding: 65537 -1 1
Width: 350
VWidth: 0
AnchorPoint: "HamzaBelow" 0 0 basechar 0
AnchorPoint: "HamzaAbove" 0 0 basechar 0
AnchorPoint: "DotBelow" 0 0 basechar 0
AnchorPoint: "DotAbove" 0 0 basechar 0
LayerCount: 2
Fore
SplineSet
71 1462 m 1,0,1
 89 1482 89 1482 95 1473 c 128,-1,2
 101 1464 101 1464 106 1435 c 0,3,4
 154 1164 154 1164 178 894 c 0,5,6
 182 850 182 850 200.5 650.5 c 128,-1,7
 219 451 219 451 228 381 c 0,8,9
 239 294 239 294 265 255.5 c 128,-1,10
 291 217 291 217 353 185 c 0,11,12
 377 174 377 174 388.5 168 c 128,-1,13
 400 162 400 162 410 147.5 c 128,-1,14
 420 133 420 133 416 113 c 0,15,16
 416 111 416 111 413.5 94.5 c 128,-1,17
 411 78 411 78 409.5 72.5 c 128,-1,18
 408 67 408 67 404.5 52.5 c 128,-1,19
 401 38 401 38 397 31.5 c 128,-1,20
 393 25 393 25 387 16 c 128,-1,21
 381 7 381 7 372.5 3.5 c 128,-1,22
 364 0 364 0 353 0 c 0,23,24
 305 0 305 0 269 18 c 128,-1,25
 233 36 233 36 213.5 58.5 c 128,-1,26
 194 81 194 81 179.5 119.5 c 128,-1,27
 165 158 165 158 160.5 180.5 c 128,-1,28
 156 203 156 203 151 240 c 0,29,30
 150 248 150 248 149 252 c 0,31,32
 137 335 137 335 101 803 c 0,33,34
 97 859 97 859 61.5 1056.5 c 128,-1,35
 26 1254 26 1254 9 1302 c 0,36,37
 -1 1330 -1 1330 13 1356 c 2,38,-1
 71 1462 l 1,0,1
EndSplineSet
Substitution2: "KafAlefFina subtable" alef.fina_KafAlefFina
Substitution2: "KafMeemAlefFina subtable" alef.fina_KafMeemAlefFina
Substitution2: "KafMeemAlefIsol subtable" alef.fina_KafMeemAlefIsol
Substitution2: "KafAlefIsol subtable" alef.fina_KafAlefIsol
Substitution2: "LamAlefFina subtable" alef.fina_LamAlefFina
Substitution2: "KafLamAlefIsol subtable" alef.fina_KafLamAlefIsol
Substitution2: "LamAlefIsol subtable" alef.fina_LamAlefIsol
Substitution2: "MeemAlefFina subtable" alef.fina_MeemAlefFina
Substitution2: "KafLamAlefFina subtable" alef.fina_KafLamAlefFina
Substitution2: "LamLamAlefIsol subtable" alef.fina_LamLamAlefIsol
Substitution2: "BaaMeemAlefFina subtable" alef.fina_BaaMeemAlefFina
Colour: ffff00
EndChar

StartChar: alef.isol
Encoding: 65538 -1 2
Width: 446
VWidth: 0
AnchorPoint: "HamzaBelow" 45 0 basechar 0
AnchorPoint: "HamzaAbove" 45 0 basechar 0
AnchorPoint: "DotBelow" 45 0 basechar 0
AnchorPoint: "DotAbove" 45 0 basechar 0
LayerCount: 2
Fore
SplineSet
193 1399 m 1,0,1
 217 1446 217 1446 227 1403 c 0,2,3
 230 1391 230 1391 230 1376 c 0,4,5
 245 1134 245 1134 275 874 c 0,6,7
 308 584 308 584 312 408 c 0,8,9
 320 128 320 128 266 14 c 0,10,11
 254 -9 254 -9 241 6 c 0,12,13
 233 16 233 16 236 36 c 1,14,15
 243 204 243 204 224 416 c 0,16,17
 223 422 223 422 185.5 739.5 c 128,-1,18
 148 1057 148 1057 134 1214 c 0,19,20
 130 1250 130 1250 145 1283 c 2,21,-1
 193 1399 l 1,0,1
EndSplineSet
Substitution2: "'fina' Terminal Forms in Arabic lookup 3 subtable" alef.fina
Colour: ffff00
EndChar

StartChar: ayn.fina
Encoding: 65539 -1 3
Width: 884
VWidth: 0
AnchorPoint: "HamzaBelow" 0 0 basechar 0
AnchorPoint: "HamzaAbove" 0 0 basechar 0
AnchorPoint: "DotBelow" 0 0 basechar 0
AnchorPoint: "DotAbove" 0 0 basechar 0
LayerCount: 2
Fore
SplineSet
528 582 m 0,0,1
 535 582 535 582 541 582 c 0,2,3
 629 580 629 580 729 526 c 1,4,5
 822 472 822 472 817 414 c 0,6,7
 813 366 813 366 771.5 324.5 c 128,-1,8
 730 283 730 283 681 260 c 0,9,10
 670 255 670 255 684 246 c 0,11,12
 782 187 782 187 884 184 c 0,13,14
 965 182 965 182 953 110 c 0,15,16
 953 109 953 109 951.5 99.5 c 128,-1,17
 950 90 950 90 949 86.5 c 128,-1,18
 948 83 948 83 946 73 c 128,-1,19
 944 63 944 63 942.5 58 c 128,-1,20
 941 53 941 53 937.5 44 c 128,-1,21
 934 35 934 35 931 30 c 128,-1,22
 928 25 928 25 923 18.5 c 128,-1,23
 918 12 918 12 912.5 8.5 c 128,-1,24
 907 5 907 5 900 2.5 c 128,-1,25
 893 0 893 0 885 0 c 0,26,27
 861 0 861 0 838.5 3.5 c 128,-1,28
 816 7 816 7 792 15 c 128,-1,29
 768 23 768 23 751 29 c 128,-1,30
 734 35 734 35 709 50.5 c 128,-1,31
 684 66 684 66 671 73 c 128,-1,32
 658 80 658 80 631 100.5 c 128,-1,33
 604 121 604 121 595 127.5 c 128,-1,34
 586 134 586 134 556 158.5 c 128,-1,35
 526 183 526 183 519 188 c 0,36,37
 509 196 509 196 492 188 c 0,38,39
 313 96 313 96 205 -52.5 c 128,-1,40
 97 -201 97 -201 79 -396 c 0,41,42
 62 -575 62 -575 182 -723.5 c 128,-1,43
 302 -872 302 -872 519 -914 c 0,44,45
 727 -954 727 -954 944 -954 c 128,-1,46
 1161 -954 1161 -954 1355 -933 c 0,47,48
 1377 -931 1377 -931 1380 -942.5 c 128,-1,49
 1383 -954 1383 -954 1362 -968 c 0,50,51
 1295 -1013 1295 -1013 1147 -1068.5 c 128,-1,52
 999 -1124 999 -1124 925 -1128 c 0,53,54
 651 -1144 651 -1144 436 -1095 c 0,55,56
 336 -1072 336 -1072 258 -1027.5 c 128,-1,57
 180 -983 180 -983 132.5 -924.5 c 128,-1,58
 85 -866 85 -866 54 -799.5 c 128,-1,59
 23 -733 23 -733 12.5 -660 c 128,-1,60
 2 -587 2 -587 3 -521.5 c 128,-1,61
 4 -456 4 -456 15 -391 c 0,62,63
 82 -6 82 -6 320 210 c 0,64,65
 373 259 373 259 389 271 c 0,66,67
 399 279 399 279 391 286 c 0,68,69
 338 331 338 331 261 338 c 0,70,71
 249 339 249 339 240 341 c 128,-1,72
 231 343 231 343 222 351.5 c 128,-1,73
 213 360 213 360 216 375 c 0,74,75
 238 463 238 463 335 523 c 1,76,77
 440 581 440 581 528 582 c 0,0,1
EndSplineSet
Colour: ffff00
EndChar

StartChar: ayn.init
Encoding: 65541 -1 4
Width: 892
VWidth: 0
AnchorPoint: "HamzaBelow" 0 0 basechar 0
AnchorPoint: "HamzaAbove" 0 0 basechar 0
AnchorPoint: "DotBelow" 0 0 basechar 0
AnchorPoint: "DotAbove" 0 0 basechar 0
LayerCount: 2
Fore
SplineSet
848 515 m 1,0,1
 806 351 l 2,2,3
 801 333 801 333 771 322 c 0,4,5
 650 278 650 278 457.5 197.5 c 128,-1,6
 265 117 265 117 132 58 c 2,7,-1
 0 0 l 1,8,9
 -17 0 -17 0 -25.5 3.5 c 128,-1,10
 -34 7 -34 7 -45 29 c 128,-1,11
 -56 51 -56 51 -64 98 c 0,12,13
 -70 130 -70 130 -63 150 c 128,-1,14
 -56 170 -56 170 -46 174.5 c 128,-1,15
 -36 179 -36 179 -19 182 c 128,-1,16
 -2 185 -2 185 0 186 c 0,17,18
 22 193 22 193 142 244 c 1,19,20
 138 248 138 248 127 259 c 128,-1,21
 116 270 116 270 111.5 275 c 128,-1,22
 107 280 107 280 97.5 292 c 128,-1,23
 88 304 88 304 84 312 c 128,-1,24
 80 320 80 320 74.5 334 c 128,-1,25
 69 348 69 348 67.5 361.5 c 128,-1,26
 66 375 66 375 66 393 c 128,-1,27
 66 411 66 411 69 431 c 0,28,29
 91 562 91 562 183.5 668 c 128,-1,30
 276 774 276 774 393 813 c 0,31,32
 447 831 447 831 525.5 791 c 128,-1,33
 604 751 604 751 671 678 c 0,34,35
 692 654 692 654 677.5 635 c 128,-1,36
 663 616 663 616 636 627 c 0,37,38
 516 676 516 676 368.5 642 c 128,-1,39
 221 608 221 608 186 522 c 0,40,41
 172 489 172 489 232.5 435 c 128,-1,42
 293 381 293 381 346 375 c 0,43,44
 417 366 417 366 491.5 383.5 c 128,-1,45
 566 401 566 401 611 423.5 c 128,-1,46
 656 446 656 446 726.5 487.5 c 128,-1,47
 797 529 797 529 821 542 c 0,48,49
 835 549 835 549 842 540 c 128,-1,50
 849 531 849 531 848 515 c 1,0,1
EndSplineSet
Substitution2: "Finjani subtable" ayn.init_Finjani
Substitution2: "AynHaaInit subtable" ayn.init_AynHaaInit
Substitution2: "AynYaaIsol subtable" ayn.init_AynYaaIsol
Substitution2: "AynMeemInit subtable" ayn.init_AynMeemInit
Colour: ffff00
EndChar

StartChar: ayn.isol
Encoding: 65542 -1 5
Width: 1171
VWidth: 0
AnchorPoint: "HamzaBelow" 0 0 basechar 0
AnchorPoint: "HamzaAbove" 0 0 basechar 0
AnchorPoint: "DotBelow" 0 0 basechar 0
AnchorPoint: "DotAbove" 0 0 basechar 0
LayerCount: 2
Fore
SplineSet
348 1496 m 0,0,1
 405 1500 405 1500 473 1460 c 128,-1,2
 541 1420 541 1420 579 1368 c 0,3,4
 589 1354 589 1354 582 1347 c 128,-1,5
 575 1340 575 1340 559 1345 c 0,6,7
 521 1357 521 1357 471 1357 c 128,-1,8
 421 1357 421 1357 361 1342.5 c 128,-1,9
 301 1328 301 1328 235.5 1283.5 c 128,-1,10
 170 1239 170 1239 116 1170 c 0,11,12
 107 1158 107 1158 121 1144 c 0,13,14
 182 1080 182 1080 280 1049.5 c 128,-1,15
 378 1019 378 1019 458 1033 c 0,16,17
 491 1039 491 1039 554 1075 c 128,-1,18
 617 1111 617 1111 698 1163 c 128,-1,19
 779 1215 779 1215 824 1238 c 0,20,21
 836 1244 836 1244 843.5 1237.5 c 128,-1,22
 851 1231 851 1231 847 1218 c 0,23,24
 820 1131 820 1131 789 1081 c 0,25,26
 779 1064 779 1064 771 1061 c 0,27,28
 599 983 599 983 365 811 c 0,29,30
 99 616 99 616 62 280 c 0,31,32
 43 104 43 104 149 -31 c 128,-1,33
 255 -166 255 -166 473 -198 c 1,34,35
 719 -231 719 -231 909 -224.5 c 128,-1,36
 1099 -218 1099 -218 1328 -172 c 0,37,38
 1350 -168 1350 -168 1354 -180 c 128,-1,39
 1358 -192 1358 -192 1337 -208 c 0,40,41
 1263 -262 1263 -262 1132.5 -327 c 128,-1,42
 1002 -392 1002 -392 930 -399 c 0,43,44
 655 -427 655 -427 436 -386 c 0,45,46
 334 -367 334 -367 255.5 -326.5 c 128,-1,47
 177 -286 177 -286 129.5 -230 c 128,-1,48
 82 -174 82 -174 51.5 -111 c 128,-1,49
 21 -48 21 -48 10.5 24.5 c 128,-1,50
 0 97 0 97 0 161 c 128,-1,51
 0 225 0 225 9 292 c 0,52,53
 55 643 55 643 275 875 c 1,54,55
 117 938 117 938 63 1010 c 0,56,57
 42 1039 42 1039 45 1075 c 0,58,59
 52 1155 52 1155 96 1250 c 0,60,61
 127 1317 127 1317 191.5 1390.5 c 128,-1,62
 256 1464 256 1464 315 1488 c 0,63,64
 330 1495 330 1495 348 1496 c 0,0,1
EndSplineSet
Substitution2: "'fina' Terminal Forms in Arabic lookup 3 subtable" ayn.fina
Substitution2: "'medi' Medial Forms in Arabic lookup 2 subtable" ayn.medi
Substitution2: "'init' Initial Forms in Arabic lookup 1 subtable" ayn.init
Colour: ffff00
EndChar

StartChar: ayn.medi
Encoding: 65543 -1 6
Width: 733
VWidth: 0
AnchorPoint: "HamzaBelow" 0 0 basechar 0
AnchorPoint: "HamzaAbove" 0 0 basechar 0
AnchorPoint: "DotBelow" 0 0 basechar 0
AnchorPoint: "DotAbove" 0 0 basechar 0
LayerCount: 2
Fore
SplineSet
728 169 m 0,0,1
 800 165 800 165 795 88 c 0,2,3
 792 47 792 47 776.5 12.5 c 128,-1,4
 761 -22 761 -22 729 -21 c 0,5,6
 621 -19 621 -19 541.5 24.5 c 128,-1,7
 462 68 462 68 367 179 c 1,8,9
 270 124 270 124 156 67.5 c 128,-1,10
 42 11 42 11 0 0 c 1,11,12
 -23 0 -23 0 -37 15 c 128,-1,13
 -51 30 -51 30 -61 80 c 0,14,15
 -72 137 -72 137 -60 160.5 c 128,-1,16
 -48 184 -48 184 1 187 c 0,17,18
 35 189 35 189 103.5 211 c 128,-1,19
 172 233 172 233 240 272 c 1,20,21
 166 335 166 335 28 360 c 0,22,23
 14 362 14 362 18 383 c 0,24,25
 33 465 33 465 130 544.5 c 128,-1,26
 227 624 227 624 333 621 c 0,27,28
 442 617 442 617 544.5 541 c 128,-1,29
 647 465 647 465 638 398 c 0,30,31
 636 380 636 380 625 362.5 c 128,-1,32
 614 345 614 345 594.5 328 c 128,-1,33
 575 311 575 311 561 300.5 c 128,-1,34
 547 290 547 290 521.5 273.5 c 128,-1,35
 496 257 496 257 490 253 c 1,36,37
 601 177 601 177 728 169 c 0,0,1
EndSplineSet
Substitution2: "AynYaaFina subtable" ayn.medi_AynYaaFina
Colour: ffff00
EndChar

StartChar: baa.fina
Encoding: 65549 -1 7
Width: 1662
VWidth: 0
AnchorPoint: "HamzaBelow" 0 0 basechar 0
AnchorPoint: "HamzaAbove" 0 0 basechar 0
AnchorPoint: "DotBelow" 0 0 basechar 0
AnchorPoint: "DotAbove" 0 0 basechar 0
LayerCount: 2
Fore
SplineSet
117 520 m 0,0,1
 127 531 127 531 139.5 528.5 c 128,-1,2
 152 526 152 526 155 514.5 c 128,-1,3
 158 503 158 503 149 487 c 0,4,5
 76 387 76 387 92 316 c 0,6,7
 111 233 111 233 173 175 c 128,-1,8
 235 117 235 117 325 89 c 128,-1,9
 415 61 415 61 510 51 c 128,-1,10
 605 41 605 41 712 46 c 0,11,12
 992 57 992 57 1242 131 c 0,13,14
 1384 173 1384 173 1424 200 c 128,-1,15
 1464 227 1464 227 1481 303 c 0,16,17
 1485 320 1485 320 1500.5 326 c 128,-1,18
 1516 332 1516 332 1529.5 320.5 c 128,-1,19
 1543 309 1543 309 1541 284 c 0,20,21
 1541 283 1541 283 1539.5 272.5 c 128,-1,22
 1538 262 1538 262 1537.5 256.5 c 128,-1,23
 1537 251 1537 251 1539 242.5 c 128,-1,24
 1541 234 1541 234 1547 230 c 0,25,26
 1577 202 1577 202 1661 186 c 1,27,28
 1699 181 1699 181 1715.5 167.5 c 128,-1,29
 1732 154 1732 154 1728 119 c 0,30,31
 1723 85 1723 85 1718 64 c 128,-1,32
 1713 43 1713 43 1698.5 21.5 c 128,-1,33
 1684 0 1684 0 1661 0 c 1,34,35
 1643 7 1643 7 1622 20 c 128,-1,36
 1601 33 1601 33 1590 42 c 128,-1,37
 1579 51 1579 51 1558.5 69 c 128,-1,38
 1538 87 1538 87 1534 90 c 0,39,40
 1516 100 1516 100 1512.5 99 c 128,-1,41
 1509 98 1509 98 1490 84 c 0,42,43
 1345 -25 1345 -25 1104.5 -94 c 128,-1,44
 864 -163 864 -163 609 -162 c 0,45,46
 112 -159 112 -159 23 83 c 0,47,48
 -18 194 -18 194 20 325.5 c 128,-1,49
 58 457 58 457 117 520 c 0,0,1
EndSplineSet
Substitution2: "BaaBaaIsol subtable" baa.fina_BaaBaaIsol
Colour: ffff00
EndChar

StartChar: baa.init
Encoding: 65550 -1 8
Width: 245
VWidth: 0
AnchorPoint: "HamzaBelow" 0 0 basechar 0
AnchorPoint: "HamzaAbove" 0 0 basechar 0
AnchorPoint: "DotBelow" 0 0 basechar 0
AnchorPoint: "DotAbove" 0 0 basechar 0
LayerCount: 2
Fore
SplineSet
115 566 m 0,0,1
 122 576 122 576 132 574 c 128,-1,2
 142 572 142 572 148 561 c 0,3,4
 209 455 209 455 183 234 c 0,5,6
 162 57 162 57 0 0 c 1,7,8
 -22 0 -22 0 -43 104 c 0,9,10
 -50 139 -50 139 -42 158 c 128,-1,11
 -34 177 -34 177 0 185 c 0,12,13
 78 204 78 204 112 250 c 0,14,15
 116 255 116 255 113 264 c 0,16,17
 104 316 104 316 58 383 c 0,18,19
 42 407 42 407 52 433 c 0,20,21
 95 534 95 534 115 566 c 0,0,1
EndSplineSet
Substitution2: "BaaBaaAltInit subtable" baa.init_BaaBaaAltInit
Substitution2: "BaaHaaMeemInit subtable" baa.init_BaaHaaMeemInit
Substitution2: "BaaHaaInit subtable" baa.init_BaaHaaInit
Substitution2: "BaaHaaIsol subtable" baa.init_BaaHaaIsol
Substitution2: "BaaSeenAltInit subtable" baa.init_BaaSeenAltInit
Substitution2: "BaaMeemIsol subtable" baa.init_BaaMeemIsol
Substitution2: "BaaBaaMeemInit subtable" baa.init_BaaBaaMeemInit
Substitution2: "BaaBaaIsol subtable" baa.init_BaaBaaIsol
Substitution2: "BaaBaaHaaInit subtable" baa.init_BaaBaaHaaInit
Substitution2: "BaaHehInit subtable" baa.init_BaaHehInit
Substitution2: "BaaMeemInit subtable" baa.init_BaaMeemInit
Substitution2: "BaaSeenInit subtable" baa.init_BaaSeenInit
Substitution2: "BaaNoonIsol subtable" baa.init_BaaNoonIsol
Substitution2: "BaaBaaInit subtable" baa.init_BaaBaaInit
Substitution2: "BaaBaaYaaIsol subtable" baa.init_BaaBaaYaaIsol
Substitution2: "BaaMeemHaaInit subtable" baa.init_BaaMeemHaaInit
Substitution2: "BaaDalIsol subtable" baa.init_BaaDalIsol
Substitution2: "BaaYaaIsol subtable" baa.init_BaaYaaIsol
Substitution2: "BaaRaaIsol subtable" baa.init_BaaRaaIsol
Colour: ffff00
EndChar

StartChar: baa.isol
Encoding: 65551 -1 9
Width: 1708
VWidth: 0
AnchorPoint: "HamzaBelow" 0 0 basechar 0
AnchorPoint: "HamzaAbove" 0 0 basechar 0
AnchorPoint: "DotBelow" 0 0 basechar 0
AnchorPoint: "DotAbove" 0 0 basechar 0
LayerCount: 2
Fore
SplineSet
1551 781 m 0,0,1
 1609 715 1609 715 1629 596.5 c 128,-1,2
 1649 478 1649 478 1625 370 c 128,-1,3
 1601 262 1601 262 1543 222 c 0,4,5
 1437 148 1437 148 1229 92.5 c 128,-1,6
 1021 37 1021 37 823 15 c 0,7,8
 275 -46 275 -46 64 190 c 0,9,10
 37 221 37 221 20.5 263 c 128,-1,11
 4 305 4 305 0.5 365.5 c 128,-1,12
 -3 426 -3 426 32.5 504.5 c 128,-1,13
 68 583 68 583 142 664 c 0,14,15
 155 678 155 678 168 674.5 c 128,-1,16
 181 671 181 671 183.5 658.5 c 128,-1,17
 186 646 186 646 177 634 c 0,18,19
 147 603 147 603 124 559 c 128,-1,20
 101 515 101 515 107 479 c 0,21,22
 127 345 127 345 282 276 c 128,-1,23
 437 207 437 207 711 210 c 0,24,25
 951 213 951 213 1193 267.5 c 128,-1,26
 1435 322 1435 322 1560 408 c 1,27,28
 1556 437 1556 437 1542 469.5 c 128,-1,29
 1528 502 1528 502 1516 521.5 c 128,-1,30
 1504 541 1504 541 1484.5 569.5 c 128,-1,31
 1465 598 1465 598 1462 603 c 0,32,33
 1456 613 1456 613 1459 625 c 0,34,35
 1479 711 1479 711 1513 781 c 0,36,37
 1526 809 1526 809 1551 781 c 0,0,1
EndSplineSet
Substitution2: "'fina' Terminal Forms in Arabic lookup 3 subtable" baa.fina
Substitution2: "'medi' Medial Forms in Arabic lookup 2 subtable" baa.medi
Substitution2: "'init' Initial Forms in Arabic lookup 1 subtable" baa.init
Colour: ffff00
EndChar

StartChar: baa.medi
Encoding: 65553 -1 10
Width: 425
VWidth: 0
AnchorPoint: "HamzaBelow" 0 0 basechar 0
AnchorPoint: "HamzaAbove" 0 0 basechar 0
AnchorPoint: "DotBelow" 0 0 basechar 0
AnchorPoint: "DotAbove" 0 0 basechar 0
LayerCount: 2
Fore
SplineSet
418 186 m 0,0,1
 451 179 451 179 459.5 162 c 128,-1,2
 468 145 468 145 464 113 c 0,3,4
 449 1 449 1 427 1 c 0,5,6
 398 1 398 1 378.5 5 c 128,-1,7
 359 9 359 9 332 23.5 c 128,-1,8
 305 38 305 38 280 72.5 c 128,-1,9
 255 107 255 107 229 162 c 0,10,11
 214 195 214 195 194 158 c 0,12,13
 107 17 107 17 0 -0 c 0,14,15
 -14 -2 -14 -2 -26 31 c 128,-1,16
 -38 64 -38 64 -50 112 c 0,17,18
 -52 118 -52 118 -52 120 c 0,19,20
 -58 144 -58 144 -44.5 163 c 128,-1,21
 -31 182 -31 182 -8 184 c 0,22,23
 87 193 87 193 154 241 c 0,24,25
 198 273 198 273 210 319 c 0,26,27
 215 336 215 336 234 336 c 128,-1,28
 253 336 253 336 256 322 c 0,29,30
 274 253 274 253 304 228.5 c 128,-1,31
 334 204 334 204 418 186 c 0,0,1
EndSplineSet
MultipleSubs2: "HehMediTooth subtable" baa.medi_BaaHehMedi
Substitution2: "HighBaa subtable" baa.medi_High
Substitution2: "BaaBaaAltInit subtable" baa.medi_BaaBaaAltInit
Substitution2: "BaaYaaFina subtable" baa.medi_BaaYaaFina
Substitution2: "BaaNoonFina subtable" baa.medi_BaaNoonFina
Substitution2: "KafBaaMedi subtable" baa.medi_KafBaaMedi
Substitution2: "BaaBaaMeemInit subtable" baa.medi_BaaBaaMeemInit
Substitution2: "SeenBaaMeemInit subtable" baa.medi_SeenBaaMeemInit
Substitution2: "BaaBaaHaaInit subtable" baa.medi_BaaBaaHaaInit
Substitution2: "BaaRaaFina subtable" baa.medi_BaaRaaFina
Substitution2: "BaaBaaInit subtable" baa.medi_BaaBaaInit
Substitution2: "KafBaaInit subtable" baa.medi_KafBaaInit
Substitution2: "BaaBaaYaaIsol subtable" baa.medi_BaaBaaYaaIsol
Substitution2: "LamBaaMeemInit subtable" baa.medi_LamBaaMeemInit
Substitution2: "BaaMeemFina subtable" baa.medi_BaaMeemFina
Substitution2: "BaaHehMedi subtable" baa.medi_BaaHehMedi
Substitution2: "BaaMeemAlefFina subtable" baa.medi_BaaMeemAlefFina
Colour: ffff00
EndChar

StartChar: colon
Encoding: 58 58 11
Width: 327
VWidth: 0
LayerCount: 2
Fore
SplineSet
282 971.5 m 128,-1,1
 282 914 282 914 241.5 873 c 128,-1,2
 201 832 201 832 143 832 c 128,-1,3
 85 832 85 832 44 873 c 128,-1,4
 3 914 3 914 3 971.5 c 128,-1,5
 3 1029 3 1029 44 1070 c 128,-1,6
 85 1111 85 1111 143 1111 c 128,-1,7
 201 1111 201 1111 241.5 1070 c 128,-1,0
 282 1029 282 1029 282 971.5 c 128,-1,1
287 139.5 m 128,-1,9
 287 82 287 82 246 41 c 128,-1,10
 205 -0 205 -0 147.5 0 c 128,-1,11
 90 0 90 0 49 41 c 128,-1,12
 8 82 8 82 8 139.5 c 128,-1,13
 8 197 8 197 49 238 c 128,-1,14
 90 279 90 279 147.5 279 c 128,-1,15
 205 279 205 279 246 238 c 128,-1,8
 287 197 287 197 287 139.5 c 128,-1,9
EndSplineSet
EndChar

StartChar: dal.fina
Encoding: 65555 -1 12
Width: 972
VWidth: 0
AnchorPoint: "DotAbove" 688 1423 basechar 0
AnchorPoint: "HamzaBelow" 129 0 basechar 0
AnchorPoint: "HamzaAbove" 129 0 basechar 0
AnchorPoint: "DotBelow" 129 0 basechar 0
LayerCount: 2
Fore
SplineSet
968 185 m 0,0,1
 999 177 999 177 1009 130.5 c 128,-1,2
 1019 84 1019 84 1006 41.5 c 128,-1,3
 993 -1 993 -1 967 0 c 0,4,5
 934 2 934 2 907.5 13.5 c 128,-1,6
 881 25 881 25 861 51.5 c 128,-1,7
 841 78 841 78 828 98.5 c 128,-1,8
 815 119 815 119 802.5 161.5 c 128,-1,9
 790 204 790 204 785 224.5 c 128,-1,10
 780 245 780 245 769 293 c 0,11,12
 767 301 767 301 763.5 300.5 c 128,-1,13
 760 300 760 300 758 294 c 0,14,15
 700 124 700 124 593 77 c 0,16,17
 536 52 536 52 406 40.5 c 128,-1,18
 276 29 276 29 200 49 c 1,19,20
 153 64 153 64 140.5 118.5 c 128,-1,21
 128 173 128 173 136.5 220 c 128,-1,22
 145 267 145 267 161 310 c 0,23,24
 168 330 168 330 180.5 337 c 128,-1,25
 193 344 193 344 202 340.5 c 128,-1,26
 211 337 211 337 215 330 c 0,27,28
 217 325 217 325 221.5 311.5 c 128,-1,29
 226 298 226 298 229.5 290.5 c 128,-1,30
 233 283 233 283 239 273.5 c 128,-1,31
 245 264 245 264 254.5 257.5 c 128,-1,32
 264 251 264 251 276 247 c 0,33,34
 363 223 363 223 465 232 c 128,-1,35
 567 241 567 241 633 269 c 0,36,37
 670 284 670 284 700 316 c 128,-1,38
 730 348 730 348 738 382 c 0,39,40
 742 399 742 399 718 554 c 0,41,42
 679 810 679 810 673 861 c 0,43,44
 669 895 669 895 680 925 c 0,45,46
 686 941 686 941 727 1029 c 0,47,48
 733 1044 733 1044 748.5 1042 c 128,-1,49
 764 1040 764 1040 766 1022 c 0,50,51
 787 840 787 840 821.5 626 c 128,-1,52
 856 412 856 412 875 337 c 0,53,54
 885 297 885 297 893 273 c 128,-1,55
 901 249 901 249 921 220.5 c 128,-1,56
 941 192 941 192 968 185 c 0,0,1
EndSplineSet
Substitution2: "KafDalIsol subtable" dal.fina_KafDalIsol
Substitution2: "BaaDalIsol subtable" dal.fina_BaaDalIsol
Substitution2: "LamDalIsol subtable" dal.fina_LamDalIsol
Colour: ffff00
EndChar

StartChar: dal.isol
Encoding: 65556 -1 13
Width: 708
VWidth: 0
AnchorPoint: "HamzaBelow" 0 0 basechar 0
AnchorPoint: "HamzaAbove" 0 0 basechar 0
AnchorPoint: "DotBelow" 0 0 basechar 0
AnchorPoint: "DotAbove" 0 0 basechar 0
LayerCount: 2
Fore
SplineSet
265 855 m 0,0,1
 281 874 281 874 297 869 c 0,2,3
 439 805 439 805 532.5 694.5 c 128,-1,4
 626 584 626 584 654 436 c 1,5,6
 678 286 678 286 635 160 c 0,7,8
 630 146 630 146 616.5 131 c 128,-1,9
 603 116 603 116 592 111 c 0,10,11
 470 60 470 60 315.5 24.5 c 128,-1,12
 161 -11 161 -11 67 9 c 0,13,14
 -58 35 -58 35 46 258 c 0,15,16
 53 273 53 273 68 273.5 c 128,-1,17
 83 274 83 274 90 266 c 0,18,19
 115 242 115 242 149 239 c 128,-1,20
 183 236 183 236 252 246 c 0,21,22
 503 279 503 279 570 324 c 0,23,24
 573 326 573 326 574.5 334 c 128,-1,25
 576 342 576 342 574 346 c 0,26,27
 536 468 536 468 445.5 537.5 c 128,-1,28
 355 607 355 607 221 645 c 1,29,30
 195 660 195 660 202 689 c 0,31,32
 231 813 231 813 265 855 c 0,0,1
EndSplineSet
Substitution2: "'fina' Terminal Forms in Arabic lookup 3 subtable" dal.fina
Colour: ffff00
EndChar

StartChar: dash
Encoding: 65557 -1 14
Width: 1384
VWidth: 0
AnchorPoint: "HamzaBelow" 0 0 basechar 0
AnchorPoint: "HamzaAbove" 0 0 basechar 0
AnchorPoint: "DotBelow" 0 0 basechar 0
AnchorPoint: "DotAbove" 0 0 basechar 0
LayerCount: 2
Fore
SplineSet
0 183 m 1,0,-1
 1384 183 l 1,1,-1
 1384 0 l 1,2,-1
 0 0 l 1,3,-1
 0 183 l 1,0,-1
EndSplineSet
EndChar

StartChar: dot.double
Encoding: 65558 -1 15
Width: 0
VWidth: 0
AnchorPoint: "HamzaBelow" 0 0 basechar 0
AnchorPoint: "HamzaAbove" 0 0 basechar 0
AnchorPoint: "DotBelow" 0 0 basechar 0
AnchorPoint: "DotAbove" 0 0 basechar 0
LayerCount: 2
Fore
SplineSet
317 309 m 2,0,1
 322 317 322 317 334 313 c 0,2,3
 415 285 415 285 480 229 c 0,4,5
 489 221 489 221 482 210 c 2,6,7
 385 56 l 2,8,9
 379 47 379 47 372 53 c 0,10,11
 350 71 350 71 221 149 c 0,12,13
 213 154 213 154 217 161 c 2,14,15
 317 309 l 2,0,1
104 262 m 2,16,17
 109 270 109 270 120 266 c 0,18,19
 201 238 201 238 266 182 c 0,20,21
 275 174 275 174 268 163 c 2,22,23
 171 9 l 2,24,25
 165 0 165 0 158 6 c 0,26,27
 136 24 136 24 7 102 c 0,28,29
 -1 107 -1 107 3 114 c 2,30,31
 104 262 l 2,16,17
EndSplineSet
EndChar

StartChar: dot.single
Encoding: 65559 -1 16
Width: 0
VWidth: 0
AnchorPoint: "HamzaBelow" 0 0 basechar 0
AnchorPoint: "HamzaAbove" 0 0 basechar 0
AnchorPoint: "DotBelow" 0 0 basechar 0
AnchorPoint: "DotAbove" 0 0 basechar 0
LayerCount: 2
Fore
SplineSet
101 260 m 2,0,1
 106 268 106 268 118 264 c 0,2,3
 199 236 199 236 263 179 c 0,4,5
 272 171 272 171 266 161 c 2,6,7
 168 6 l 2,8,9
 162 -3 162 -3 155 3 c 0,10,11
 133 21 133 21 4 99 c 0,12,13
 -4 104 -4 104 1 111 c 2,14,15
 101 260 l 2,0,1
EndSplineSet
EndChar

StartChar: dot.tripple
Encoding: 65560 -1 17
Width: 0
VWidth: 0
AnchorPoint: "HamzaBelow" 0 0 basechar 0
AnchorPoint: "HamzaAbove" 0 0 basechar 0
AnchorPoint: "DotBelow" 0 0 basechar 0
AnchorPoint: "DotAbove" 0 0 basechar 0
LayerCount: 2
Fore
SplineSet
298 308 m 2,0,1
 303 316 303 316 315 312 c 0,2,3
 396 284 396 284 460 228 c 0,4,5
 469 220 469 220 463 209 c 2,6,7
 365 55 l 2,8,9
 359 46 359 46 352 52 c 0,10,11
 330 70 330 70 202 148 c 0,12,13
 194 153 194 153 198 160 c 2,14,15
 298 308 l 2,0,1
106 261 m 2,16,17
 111 269 111 269 122 265 c 0,18,19
 203 237 203 237 268 181 c 0,20,21
 277 173 277 173 270 162 c 2,22,23
 173 8 l 2,24,25
 167 -1 167 -1 160 5 c 0,26,27
 138 23 138 23 9 101 c 0,28,29
 1 106 1 106 5 113 c 2,30,31
 106 261 l 2,16,17
118 516 m 0,32,33
 123 525 123 525 134 522 c 0,34,35
 217 503 217 503 288 454 c 0,36,37
 298 447 298 447 293 436 c 2,38,39
 213 272 l 2,40,41
 210 265 210 265 208.5 264 c 128,-1,42
 207 263 207 263 200 267 c 0,43,44
 177 283 177 283 40 346 c 0,45,46
 31 350 31 350 35 357 c 0,47,48
 41 370 41 370 118 516 c 0,32,33
EndSplineSet
EndChar

StartChar: faa.fina
Encoding: 65561 -1 18
Width: 1933
VWidth: 0
AnchorPoint: "HamzaBelow" 0 0 basechar 0
AnchorPoint: "HamzaAbove" 0 0 basechar 0
AnchorPoint: "DotBelow" 0 0 basechar 0
AnchorPoint: "DotAbove" 0 0 basechar 0
LayerCount: 2
Fore
SplineSet
1635 713 m 0,0,1
 1667 714 1667 714 1697.5 690.5 c 128,-1,2
 1728 667 1728 667 1750 621 c 128,-1,3
 1772 575 1772 575 1780 514.5 c 128,-1,4
 1788 454 1788 454 1771 372 c 128,-1,5
 1754 290 1754 290 1709 204 c 1,6,7
 1779 190 1779 190 1932 186 c 0,8,9
 1969 185 1969 185 1979.5 139 c 128,-1,10
 1990 93 1990 93 1974.5 47 c 128,-1,11
 1959 1 1959 1 1933 -0 c 0,12,13
 1838 -2 1838 -2 1760.5 8 c 128,-1,14
 1683 18 1683 18 1658.5 25 c 128,-1,15
 1634 32 1634 32 1574 52 c 1,16,17
 1451 -33 1451 -33 1249 -94.5 c 128,-1,18
 1047 -156 1047 -156 836.5 -179 c 128,-1,19
 626 -202 626 -202 425 -174 c 128,-1,20
 224 -146 224 -146 111 -64 c 0,21,22
 54 -23 54 -23 27.5 33 c 128,-1,23
 1 89 1 89 1 142 c 128,-1,24
 1 195 1 195 21.5 259 c 128,-1,25
 42 323 42 323 65.5 369 c 128,-1,26
 89 415 89 415 122 469 c 0,27,28
 130 482 130 482 143.5 482 c 128,-1,29
 157 482 157 482 162.5 471.5 c 128,-1,30
 168 461 168 461 161 444 c 0,31,32
 134 394 134 394 121.5 363.5 c 128,-1,33
 109 333 109 333 104.5 297.5 c 128,-1,34
 100 262 100 262 114 234 c 128,-1,35
 128 206 128 206 160 172.5 c 128,-1,36
 192 139 192 139 247 101 c 0,37,38
 349 30 349 30 602 25 c 128,-1,39
 855 20 855 20 1088 64 c 128,-1,40
 1321 108 1321 108 1394 165 c 1,41,42
 1366 201 1366 201 1358.5 232 c 128,-1,43
 1351 263 1351 263 1361 316 c 0,44,45
 1388 444 1388 444 1479 578 c 128,-1,46
 1570 712 1570 712 1635 713 c 0,0,1
1592 509 m 0,47,48
 1550 514 1550 514 1515 475 c 128,-1,49
 1480 436 1480 436 1451 354 c 1,50,51
 1461 320 1461 320 1490 291.5 c 128,-1,52
 1519 263 1519 263 1554 251 c 0,53,54
 1577 243 1577 243 1625 268 c 128,-1,55
 1673 293 1673 293 1688 320 c 1,56,57
 1687 359 1687 359 1680 397 c 128,-1,58
 1673 435 1673 435 1650 470 c 128,-1,59
 1627 505 1627 505 1592 509 c 0,47,48
EndSplineSet
Colour: ffff00
EndChar

StartChar: faa.init
Encoding: 65562 -1 19
Width: 528
VWidth: 0
AnchorPoint: "HamzaBelow" 0 0 basechar 0
AnchorPoint: "HamzaAbove" 0 0 basechar 0
AnchorPoint: "DotBelow" 0 0 basechar 0
AnchorPoint: "DotAbove" 0 0 basechar 0
LayerCount: 2
Fore
SplineSet
236 838 m 2,0,-1
 236 838 l 2,1,2
 261 838 261 838 302 804 c 128,-1,3
 343 770 343 770 384 715 c 128,-1,4
 425 660 425 660 452.5 574.5 c 128,-1,5
 480 489 480 489 475 399 c 0,6,7
 468 271 468 271 412 193.5 c 128,-1,8
 356 116 356 116 248 65 c 0,9,10
 146 17 146 17 0 0 c 0,11,12
 -26 -3 -26 -3 -38.5 43.5 c 128,-1,13
 -51 90 -51 90 -40.5 138.5 c 128,-1,14
 -30 187 -30 187 -0 190 c 0,15,16
 111 201 111 201 223 244.5 c 128,-1,17
 335 288 335 288 385 331 c 1,18,19
 381 383 381 383 359 422 c 0,20,21
 352 432 352 432 343 430 c 128,-1,22
 334 428 334 428 331 421 c 0,23,24
 300 341 300 341 225 316 c 128,-1,25
 150 291 150 291 77 329 c 0,26,27
 9 363 9 363 19 490 c 0,28,29
 27 599 27 599 99.5 719 c 128,-1,30
 172 839 172 839 236 838 c 2,0,-1
168 616 m 0,31,32
 144 615 144 615 128.5 591.5 c 128,-1,33
 113 568 113 568 112 537 c 1,34,35
 109 527 109 527 115 525 c 0,36,37
 178 505 178 505 239 532 c 0,38,39
 242 533 242 533 247.5 537.5 c 128,-1,40
 253 542 253 542 253 544 c 0,41,42
 245 568 245 568 217 592 c 128,-1,43
 189 616 189 616 168 616 c 0,31,32
EndSplineSet
Substitution2: "FaaYaaIsol subtable" faa.init_FaaYaaIsol
Substitution2: "FaaHaaInit subtable" faa.init_FaaHaaInit
Substitution2: "FaaMeemInit subtable" faa.init_FaaMeemInit
Colour: ffff00
EndChar

StartChar: faa.isol
Encoding: 65563 -1 20
Width: 1810
VWidth: 0
AnchorPoint: "HamzaBelow" 0 0 basechar 0
AnchorPoint: "HamzaAbove" 0 0 basechar 0
AnchorPoint: "DotBelow" 0 0 basechar 0
AnchorPoint: "DotAbove" 0 0 basechar 0
LayerCount: 2
Fore
SplineSet
1505 1052 m 0,0,1
 1547 1052 1547 1052 1567 1045 c 0,2,3
 1625 1023 1625 1023 1670.5 945.5 c 128,-1,4
 1716 868 1716 868 1735 777.5 c 128,-1,5
 1754 687 1754 687 1759 596 c 128,-1,6
 1764 505 1764 505 1739 454 c 1,7,8
 1689 329 1689 329 1488.5 224.5 c 128,-1,9
 1288 120 1288 120 1038.5 64 c 128,-1,10
 789 8 789 8 557 3 c 0,11,12
 412 0 412 0 303.5 26 c 128,-1,13
 195 52 195 52 135 96.5 c 128,-1,14
 75 141 75 141 42 201.5 c 128,-1,15
 9 262 9 262 5 326 c 128,-1,16
 1 390 1 390 14.5 457 c 128,-1,17
 28 524 28 524 52.5 579.5 c 128,-1,18
 77 635 77 635 108 681 c 0,19,20
 118 695 118 695 131 693.5 c 128,-1,21
 144 692 144 692 148 680.5 c 128,-1,22
 152 669 152 669 145 654 c 0,23,24
 106 592 106 592 87.5 527 c 128,-1,25
 69 462 69 462 77 425 c 0,26,27
 94 352 94 352 165.5 300.5 c 128,-1,28
 237 249 237 249 339 227 c 128,-1,29
 441 205 441 205 566.5 200.5 c 128,-1,30
 692 196 692 196 818 216 c 0,31,32
 896 227 896 227 1026 259 c 128,-1,33
 1156 291 1156 291 1308 339 c 128,-1,34
 1460 387 1460 387 1573.5 453.5 c 128,-1,35
 1687 520 1687 520 1701 584 c 1,36,37
 1693 630 1693 630 1647 669 c 0,38,39
 1640 672 1640 672 1636 660 c 0,40,41
 1621 621 1621 621 1586.5 588 c 128,-1,42
 1552 555 1552 555 1496 540 c 128,-1,43
 1440 525 1440 525 1372 560 c 1,44,45
 1308 601 1308 601 1302.5 671 c 128,-1,46
 1297 741 1297 741 1335 823 c 1,47,48
 1372 915 1372 915 1420 983.5 c 128,-1,49
 1468 1052 1468 1052 1505 1052 c 0,0,1
1526 763 m 1,50,51
 1545 783 1545 783 1524 801 c 0,52,53
 1490 830 1490 830 1461 829.5 c 128,-1,54
 1432 829 1432 829 1410 789 c 0,55,56
 1401 772 1401 772 1412 760 c 0,57,58
 1436 736 1436 736 1470.5 737 c 128,-1,59
 1505 738 1505 738 1526 763 c 1,50,51
EndSplineSet
Substitution2: "'fina' Terminal Forms in Arabic lookup 3 subtable" faa.fina
Substitution2: "'medi' Medial Forms in Arabic lookup 2 subtable" faa.medi
Substitution2: "'init' Initial Forms in Arabic lookup 1 subtable" faa.init
Colour: ffff00
EndChar

StartChar: faa.medi
Encoding: 65564 -1 21
Width: 714
VWidth: 0
AnchorPoint: "HamzaBelow" 0 0 basechar 0
AnchorPoint: "HamzaAbove" 0 0 basechar 0
AnchorPoint: "DotBelow" 0 0 basechar 0
AnchorPoint: "DotAbove" 0 0 basechar 0
LayerCount: 2
Fore
SplineSet
579 776 m 0,0,1
 591 776 591 776 599 772 c 0,2,3
 648 742 648 742 662 660.5 c 128,-1,4
 676 579 676 579 663.5 499.5 c 128,-1,5
 651 420 651 420 627 367 c 0,6,7
 597 301 597 301 553 236 c 1,8,9
 611 206 611 206 713 183 c 0,10,11
 732 179 732 179 739 133 c 128,-1,12
 746 87 746 87 737.5 43 c 128,-1,13
 729 -1 729 -1 712 1 c 0,14,15
 543 14 543 14 352 118 c 1,16,17
 278 82 278 82 157.5 41.5 c 128,-1,18
 37 1 37 1 0 0 c 0,19,20
 -25 -1 -25 -1 -36 44.5 c 128,-1,21
 -47 90 -47 90 -37 136.5 c 128,-1,22
 -27 183 -27 183 -0 185 c 0,23,24
 113 194 113 194 217 237 c 1,25,26
 202 331 202 331 241 432.5 c 128,-1,27
 280 534 280 534 343 607 c 128,-1,28
 406 680 406 680 472.5 728 c 128,-1,29
 539 776 539 776 579 776 c 0,0,1
487 560 m 0,30,31
 425 566 425 566 373 524 c 128,-1,32
 321 482 321 482 309 455 c 0,33,34
 292 418 292 418 331 365 c 128,-1,35
 370 312 370 312 440 304 c 0,36,37
 458 302 458 302 507 331 c 128,-1,38
 556 360 556 360 571 382 c 1,39,40
 585 427 585 427 556.5 491.5 c 128,-1,41
 528 556 528 556 487 560 c 0,30,31
EndSplineSet
Substitution2: "FaaYaaFina subtable" faa.medi_FaaYaaFina
Colour: ffff00
EndChar

StartChar: haa.fina
Encoding: 65565 -1 22
Width: 1224
VWidth: 0
AnchorPoint: "HamzaBelow" 0 0 basechar 0
AnchorPoint: "HamzaAbove" 0 0 basechar 0
AnchorPoint: "DotBelow" 0 0 basechar 0
AnchorPoint: "DotAbove" 0 0 basechar 0
LayerCount: 2
Fore
SplineSet
344 533 m 0,0,1
 423 534 423 534 586 506 c 0,2,3
 738 480 738 480 862.5 478.5 c 128,-1,4
 987 477 987 477 1167 505 c 0,5,6
 1183 508 1183 508 1194.5 505 c 128,-1,7
 1206 502 1206 502 1210.5 496 c 128,-1,8
 1215 490 1215 490 1212 483 c 2,9,-1
 1156 358 l 2,10,11
 1149 341 1149 341 1133 339 c 0,12,13
 986 320 986 320 883 299 c 1,14,15
 896 254 896 254 937.5 226.5 c 128,-1,16
 979 199 979 199 1029.5 192.5 c 128,-1,17
 1080 186 1080 186 1134 183.5 c 128,-1,18
 1188 181 1188 181 1225 185 c 1,19,20
 1264 186 1264 186 1274.5 140.5 c 128,-1,21
 1285 95 1285 95 1268 48.5 c 128,-1,22
 1251 2 1251 2 1226 0 c 0,23,24
 1164 -1 1164 -1 1099.5 -2.5 c 128,-1,25
 1035 -4 1035 -4 975.5 12.5 c 128,-1,26
 916 29 916 29 871.5 56.5 c 128,-1,27
 827 84 827 84 806.5 142 c 128,-1,28
 786 200 786 200 800 282 c 1,29,30
 583 231 583 231 452 146 c 0,31,32
 289 41 289 41 210 -121.5 c 128,-1,33
 131 -284 131 -284 151 -447 c 0,34,35
 164 -556 164 -556 240.5 -658.5 c 128,-1,36
 317 -761 317 -761 437 -813 c 0,37,38
 504 -842 504 -842 617 -854.5 c 128,-1,39
 730 -867 730 -867 886.5 -861 c 128,-1,40
 1043 -855 1043 -855 1147 -847.5 c 128,-1,41
 1251 -840 1251 -840 1415 -825 c 0,42,43
 1447 -822 1447 -822 1456 -833.5 c 128,-1,44
 1465 -845 1465 -845 1455 -859 c 128,-1,45
 1445 -873 1445 -873 1429 -878 c 0,46,47
 1357 -899 1357 -899 1302.5 -928 c 128,-1,48
 1248 -957 1248 -957 1207.5 -985.5 c 128,-1,49
 1167 -1014 1167 -1014 1147 -1024 c 0,50,51
 1118 -1038 1118 -1038 1104 -1038 c 0,52,53
 972 -1050 972 -1050 870 -1054 c 128,-1,54
 768 -1058 768 -1058 644 -1051.5 c 128,-1,55
 520 -1045 520 -1045 415.5 -1013 c 128,-1,56
 311 -981 311 -981 234 -924 c 0,57,58
 160 -870 160 -870 115 -794 c 128,-1,59
 70 -718 70 -718 56.5 -631.5 c 128,-1,60
 43 -545 43 -545 47.5 -461 c 128,-1,61
 52 -377 52 -377 72 -286.5 c 128,-1,62
 92 -196 92 -196 124.5 -118.5 c 128,-1,63
 157 -41 157 -41 212 39.5 c 128,-1,64
 267 120 267 120 354.5 192 c 128,-1,65
 442 264 442 264 559 323 c 1,66,67
 292 387 292 387 123 295 c 0,68,69
 111 289 111 289 98.5 294 c 128,-1,70
 86 299 86 299 86 310 c 0,71,72
 93 531 93 531 344 533 c 0,0,1
EndSplineSet
Substitution2: "BaaHaaIsol subtable" haa.fina_BaaHaaIsol
Substitution2: "SeenHaaIsol subtable" haa.fina_SeenHaaIsol
Substitution2: "SadHaaIsol subtable" haa.fina_SadHaaIsol
Colour: ffff00
EndChar

StartChar: haa.init
Encoding: 65567 -1 23
Width: 1232
VWidth: 0
AnchorPoint: "HamzaBelow" 0 0 basechar 0
AnchorPoint: "HamzaAbove" 0 0 basechar 0
AnchorPoint: "DotBelow" 0 0 basechar 0
AnchorPoint: "DotAbove" 0 0 basechar 0
LayerCount: 2
Fore
SplineSet
-8 447 m 4,0,1
 8 510 8 510 75 575 c 128,-1,2
 142 640 142 640 227 641 c 0,3,4
 277 642 277 642 375.5 605 c 128,-1,5
 474 568 474 568 576.5 525 c 128,-1,6
 679 482 679 482 839 452 c 128,-1,7
 999 422 999 422 1159 434 c 0,8,9
 1190 436 1190 436 1192.5 421 c 128,-1,10
 1195 406 1195 406 1186 398 c 1,11,-1
 1129 272 l 2,12,13
 1118 248 1118 248 1085 253 c 0,14,15
 1008 266 1008 266 931 266.5 c 128,-1,16
 854 267 854 267 786.5 258.5 c 128,-1,17
 719 250 719 250 647 232.5 c 128,-1,18
 575 215 575 215 514 194.5 c 128,-1,19
 453 174 453 174 383.5 147.5 c 128,-1,20
 314 121 314 121 256 97 c 128,-1,21
 198 73 198 73 128 46 c 128,-1,22
 58 19 58 19 0 0 c 0,23,24
 -12 -4 -12 -4 -21 20 c 0,25,26
 -44 81 -44 81 -27 149 c 0,27,28
 -19 182 -19 182 -1 185 c 0,29,30
 120 210 120 210 178 223 c 128,-1,31
 236 236 236 236 341.5 267.5 c 128,-1,32
 447 299 447 299 523 333 c 1,33,34
 447 371 447 371 396.5 392 c 128,-1,35
 346 413 346 413 286 426.5 c 128,-1,36
 226 440 226 440 164.5 437.5 c 128,-1,37
 103 435 103 435 25 418 c 0,38,39
 8 414 8 414 -2 423 c 128,-1,40
 -12 432 -12 432 -8 447 c 4,0,1
EndSplineSet
Substitution2: "Finjani subtable" haa.init_Finjani
Substitution2: "HaaRaaIsol subtable" haa.init_HaaRaaIsol
Substitution2: "HaaMeemInit subtable" haa.init_HaaMeemInit
Substitution2: "HaaHaaInit subtable" haa.init_HaaHaaInit
Substitution2: "HaaYaaIsol subtable" haa.init_HaaYaaIsol
Colour: ffff00
EndChar

StartChar: haa.isol
Encoding: 65568 -1 24
Width: 1363
VWidth: 0
AnchorPoint: "HamzaBelow" 0 0 basechar 0
AnchorPoint: "HamzaAbove" 0 0 basechar 0
AnchorPoint: "DotBelow" 0 0 basechar 0
AnchorPoint: "DotAbove" 0 0 basechar 0
LayerCount: 2
Fore
SplineSet
1175 1123 m 2,0,-1
 1120 998 l 2,1,2
 1113 981 1113 981 1097 979 c 0,3,4
 635 918 635 918 411 786 c 0,5,6
 223 675 223 675 144.5 509 c 128,-1,7
 66 343 66 343 110 178 c 0,8,9
 163 -23 163 -23 406 -130 c 0,10,11
 540 -189 540 -189 844.5 -207.5 c 128,-1,12
 1149 -226 1149 -226 1378 -201 c 0,13,14
 1410 -198 1410 -198 1419 -209.5 c 128,-1,15
 1428 -221 1428 -221 1418.5 -235 c 128,-1,16
 1409 -249 1409 -249 1393 -254 c 0,17,18
 1321 -275 1321 -275 1267 -299.5 c 128,-1,19
 1213 -324 1213 -324 1170 -350 c 128,-1,20
 1127 -376 1127 -376 1110 -384 c 0,21,22
 1081 -398 1081 -398 1068 -398 c 0,23,24
 810 -422 810 -422 577 -392 c 128,-1,25
 344 -362 344 -362 195 -254 c 0,26,27
 -65 -63 -65 -63 27 354 c 0,28,29
 68 542 68 542 182.5 695 c 128,-1,30
 297 848 297 848 523 963 c 1,31,32
 253 1028 253 1028 108 949 c 0,33,34
 96 942 96 942 84.5 944.5 c 128,-1,35
 73 947 73 947 73 958 c 0,36,37
 75 1017 75 1017 94 1059 c 128,-1,38
 113 1101 113 1101 139 1125 c 128,-1,39
 165 1149 165 1149 210 1160.5 c 128,-1,40
 255 1172 255 1172 290.5 1175 c 128,-1,41
 326 1178 326 1178 384 1171 c 128,-1,42
 442 1164 442 1164 475 1158 c 128,-1,43
 508 1152 508 1152 564 1141 c 0,44,45
 722 1112 722 1112 838.5 1113.5 c 128,-1,46
 955 1115 955 1115 1130 1145 c 0,47,48
 1146 1148 1146 1148 1158 1145 c 128,-1,49
 1170 1142 1170 1142 1174 1136 c 128,-1,50
 1178 1130 1178 1130 1175 1123 c 2,0,-1
EndSplineSet
Substitution2: "'fina' Terminal Forms in Arabic lookup 3 subtable" haa.fina
Substitution2: "'medi' Medial Forms in Arabic lookup 2 subtable" haa.medi
Substitution2: "'init' Initial Forms in Arabic lookup 1 subtable" haa.init
Colour: ffff00
EndChar

StartChar: haa.medi
Encoding: 65570 -1 25
Width: 1200
VWidth: 0
AnchorPoint: "HamzaBelow" 0 0 basechar 0
AnchorPoint: "HamzaAbove" 0 0 basechar 0
AnchorPoint: "DotBelow" 0 0 basechar 0
AnchorPoint: "DotAbove" 0 0 basechar 0
LayerCount: 2
Fore
SplineSet
234 639 m 0,0,1
 266 639 266 639 313 624 c 128,-1,2
 360 609 360 609 431 580.5 c 128,-1,3
 502 552 502 552 532 541 c 0,4,5
 694 484 694 484 798 469 c 0,6,7
 1018 437 1018 437 1169 459 c 0,8,9
 1179 460 1179 460 1187.5 454 c 128,-1,10
 1196 448 1196 448 1192 435 c 0,11,12
 1187 419 1187 419 1179 387.5 c 128,-1,13
 1171 356 1171 356 1163 330 c 128,-1,14
 1155 304 1155 304 1146 284 c 0,15,16
 1139 270 1139 270 1122 271 c 0,17,18
 1019 279 1019 279 944 281 c 1,19,20
 910 207 910 207 1031 192 c 0,21,22
 1055 189 1055 189 1196 186 c 0,23,24
 1235 185 1235 185 1245 139 c 128,-1,25
 1255 93 1255 93 1239 47 c 128,-1,26
 1223 1 1223 1 1198 1 c 0,27,28
 994 -1 994 -1 944 14 c 0,29,30
 919 21 919 21 899 30.5 c 128,-1,31
 879 40 879 40 867.5 53 c 128,-1,32
 856 66 856 66 847.5 76.5 c 128,-1,33
 839 87 839 87 837.5 106 c 128,-1,34
 836 125 836 125 835 135.5 c 128,-1,35
 834 146 834 146 839 170 c 128,-1,36
 844 194 844 194 846.5 203.5 c 128,-1,37
 849 213 849 213 857.5 240.5 c 128,-1,38
 866 268 866 268 868 277 c 1,39,40
 670 265 670 265 476 205 c 0,41,42
 391 179 391 179 227.5 97.5 c 128,-1,43
 64 16 64 16 0 0 c 0,44,45
 -26 -6 -26 -6 -43 36.5 c 128,-1,46
 -60 79 -60 79 -51 128 c 128,-1,47
 -42 177 -42 177 -3 186 c 0,48,49
 113 214 113 214 264 277 c 128,-1,50
 415 340 415 340 433 346 c 0,51,52
 445 349 445 349 444.5 357.5 c 128,-1,53
 444 366 444 366 428 373 c 0,54,55
 274 439 274 439 183 447 c 128,-1,56
 92 455 92 455 16 412 c 0,57,58
 0 401 0 401 -16 406 c 128,-1,59
 -32 411 -32 411 -26 436 c 0,60,61
 -7 511 -7 511 42.5 559 c 128,-1,62
 92 607 92 607 139 622.5 c 128,-1,63
 186 638 186 638 234 639 c 0,0,1
EndSplineSet
Substitution2: "Finjani subtable" haa.medi_Finjani
Substitution2: "LamHaaHaaInit2 subtable" haa.medi2_LamHaaHaaInit
Substitution2: "LamHaaHaaInit subtable" haa.medi1_LamHaaHaaInit
Substitution2: "BaaHaaMeemInit subtable" haa.medi_BaaHaaMeemInit
Substitution2: "BaaHaaInit subtable" haa.medi_BaaHaaInit
Substitution2: "SadHaaInit subtable" haa.medi_SadHaaInit
Substitution2: "HehHaaInit subtable" haa.medi_HehHaaInit
Substitution2: "BaaBaaHaaInit subtable" haa.medi_BaaBaaHaaInit
Substitution2: "LamMeemHaaInit subtable" haa.medi_LamMeemHaaInit
Substitution2: "AynHaaInit subtable" haa.medi_AynHaaInit
Substitution2: "SeenHaaInit subtable" haa.medi_SeenHaaInit
Substitution2: "MeemHaaMeemInit subtable" haa.medi_MeemHaaMeemInit
Substitution2: "MeemHaaInit subtable" haa.medi_MeemHaaInit
Substitution2: "HaaHaaInit subtable" haa.medi_HaaHaaInit
Substitution2: "FaaHaaInit subtable" haa.medi_FaaHaaInit
Substitution2: "LamHaaMeemInit subtable" haa.medi_LamHaaMeemInit
Substitution2: "BaaMeemHaaInit subtable" haa.medi_BaaMeemHaaInit
Substitution2: "LamLamHaaInit subtable" haa.medi_LamLamHaaInit
Substitution2: "LamHaaInit subtable" haa.medi_LamHaaInit
Colour: ffff00
EndChar

StartChar: hamza.small
Encoding: 65571 -1 26
Width: 0
VWidth: 0
AnchorPoint: "HamzaBelow" 0 0 basechar 0
AnchorPoint: "HamzaAbove" 0 0 basechar 0
AnchorPoint: "DotBelow" 0 0 basechar 0
AnchorPoint: "DotAbove" 0 0 basechar 0
LayerCount: 2
Fore
SplineSet
377 114 m 0,0,1
 266 92 266 92 205 73 c 0,2,3
 174 63 174 63 47 7 c 0,4,5
 20 -5 20 -5 7.5 13.5 c 128,-1,6
 -5 32 -5 32 11 53 c 0,7,8
 33 82 33 82 88 116 c 1,9,10
 15 153 15 153 3 202 c 0,11,12
 -7 242 -7 242 15.5 300 c 128,-1,13
 38 358 38 358 72 403 c 0,14,15
 165 523 165 523 255 512 c 0,16,17
 288 508 288 508 301.5 486.5 c 128,-1,18
 315 465 315 465 310.5 436 c 128,-1,19
 306 407 306 407 295 378.5 c 128,-1,20
 284 350 284 350 268 328 c 1,21,22
 241 298 241 298 223 328 c 0,23,24
 202 361 202 361 163 364.5 c 128,-1,25
 124 368 124 368 93 335 c 0,26,27
 76 315 76 315 102 288 c 128,-1,28
 128 261 128 261 184.5 240.5 c 128,-1,29
 241 220 241 220 301 220 c 0,30,31
 327 220 327 220 366.5 229.5 c 128,-1,32
 406 239 406 239 427 239 c 0,33,34
 439 239 439 239 446.5 226.5 c 128,-1,35
 454 214 454 214 449 203 c 0,36,37
 410 121 410 121 377 114 c 0,0,1
EndSplineSet
EndChar

StartChar: hamza
Encoding: 65572 -1 27
Width: 544
VWidth: 0
AnchorPoint: "HamzaBelow" 0 0 basechar 0
AnchorPoint: "HamzaAbove" 0 0 basechar 0
AnchorPoint: "DotBelow" 0 0 basechar 0
AnchorPoint: "DotAbove" 0 0 basechar 0
LayerCount: 2
Fore
SplineSet
503 255 m 2,0,1
 495 226 495 226 477 215 c 1,2,3
 389 184 389 184 276 120.5 c 128,-1,4
 163 57 163 57 96 8 c 1,5,6
 74 -3 74 -3 63 8 c 128,-1,7
 52 19 52 19 56 39 c 1,8,9
 72 79 72 79 155 149 c 1,10,11
 116 164 116 164 73.5 189 c 128,-1,12
 31 214 31 214 20 233 c 0,13,14
 -2 281 -2 281 1.5 312.5 c 128,-1,15
 5 344 5 344 28 391 c 0,16,17
 60 453 60 453 127.5 530.5 c 128,-1,18
 195 608 195 608 248 611 c 0,19,20
 301 613 301 613 328 574 c 1,21,22
 348 539 348 539 343 496 c 128,-1,23
 338 453 338 453 316 416 c 0,24,25
 294 380 294 380 265 407 c 0,26,27
 218 452 218 452 177 459 c 0,28,29
 151 464 151 464 133.5 439 c 128,-1,30
 116 414 116 414 123 392 c 0,31,32
 134 354 134 354 205 320 c 128,-1,33
 276 286 276 286 370 303 c 0,34,35
 397 308 397 308 434 329.5 c 128,-1,36
 471 351 471 351 496 356 c 0,37,38
 509 358 509 358 518 347.5 c 128,-1,39
 527 337 527 337 523 324 c 2,40,-1
 503 255 l 2,0,1
EndSplineSet
EndChar

StartChar: heh.fina
Encoding: 65573 -1 28
Width: 651
VWidth: 0
AnchorPoint: "HamzaBelow" 0 0 basechar 0
AnchorPoint: "HamzaAbove" 0 0 basechar 0
AnchorPoint: "DotBelow" 0 0 basechar 0
AnchorPoint: "DotAbove" 0 0 basechar 0
LayerCount: 2
Fore
SplineSet
399 911 m 2,0,1
 405 919 405 919 415.5 913 c 128,-1,2
 426 907 426 907 427 900 c 0,3,4
 436 829 436 829 455.5 665 c 128,-1,5
 475 501 475 501 488.5 401 c 128,-1,6
 502 301 502 301 509 277 c 0,7,8
 528 223 528 223 559 203 c 128,-1,9
 590 183 590 183 648 185 c 0,10,11
 684 186 684 186 690 140 c 128,-1,12
 696 94 696 94 680.5 47 c 128,-1,13
 665 0 665 0 647 0 c 0,14,15
 615 -1 615 -1 590 2.5 c 128,-1,16
 565 6 565 6 545 10 c 128,-1,17
 525 14 525 14 508.5 28 c 128,-1,18
 492 42 492 42 480.5 51 c 128,-1,19
 469 60 469 60 458.5 84.5 c 128,-1,20
 448 109 448 109 441.5 124 c 128,-1,21
 435 139 435 139 426.5 175.5 c 128,-1,22
 418 212 418 212 414 232.5 c 128,-1,23
 410 253 410 253 401 302 c 1,24,25
 342 191 342 191 282 167 c 0,26,27
 241 151 241 151 157.5 165.5 c 128,-1,28
 74 180 74 180 38 208 c 0,29,30
 -2 240 -2 240 2 279 c 1,31,32
 10 325 10 325 43 393.5 c 128,-1,33
 76 462 76 462 96 482 c 0,34,35
 131 518 131 518 211 576 c 128,-1,36
 291 634 291 634 354 666 c 1,37,38
 346 777 346 777 347 804 c 1,39,40
 345 825 345 825 366 857 c 2,41,-1
 399 911 l 2,0,1
368 541 m 1,42,43
 302 524 302 524 234.5 485 c 128,-1,44
 167 446 167 446 139 403 c 1,45,46
 127 393 127 393 144 382 c 0,47,48
 173 365 173 365 238 360.5 c 128,-1,49
 303 356 303 356 366 371 c 0,50,51
 378 374 378 374 389 385 c 1,52,53
 383 419 383 419 368 541 c 1,42,43
EndSplineSet
Substitution2: "KafLamHehIsol subtable" heh.fina_KafLamHehIsol
Substitution2: "Lellah subtable" heh.fina_Lellah
Substitution2: "KafHehFina subtable" heh.fina_KafHehFina
Substitution2: "LamHehFina subtable" heh.fina_LamHehFina
Substitution2: "LamHehIsol subtable" heh.fina_LamHehIsol
Substitution2: "KafHehIsol subtable" heh.fina_KafHehIsol
Colour: ffff00
EndChar

StartChar: heh.init
Encoding: 65574 -1 29
Width: 860
VWidth: 0
AnchorPoint: "HamzaBelow" 0 0 basechar 0
AnchorPoint: "HamzaAbove" 0 0 basechar 0
AnchorPoint: "DotBelow" 0 0 basechar 0
AnchorPoint: "DotAbove" 0 0 basechar 0
LayerCount: 2
Fore
SplineSet
176 659 m 0,0,1
 177 661 177 661 185.5 689 c 128,-1,2
 194 717 194 717 198.5 728.5 c 128,-1,3
 203 740 203 740 215 765 c 128,-1,4
 227 790 227 790 239.5 802.5 c 128,-1,5
 252 815 252 815 271.5 826.5 c 128,-1,6
 291 838 291 838 314 840 c 0,7,8
 354 843 354 843 430.5 788.5 c 128,-1,9
 507 734 507 734 572 671 c 0,10,11
 776 471 776 471 793 370 c 0,12,13
 802 319 802 319 787.5 252 c 128,-1,14
 773 185 773 185 729 132.5 c 128,-1,15
 685 80 685 80 622 86 c 0,16,17
 460 103 460 103 272 175 c 1,18,19
 154 73 154 73 0 0 c 0,20,21
 -16 -7 -16 -7 -33 33 c 0,22,23
 -66 110 -66 110 -35 159 c 0,24,25
 -23 178 -23 178 -0 184 c 0,26,27
 86 211 86 211 142 242 c 1,28,29
 84 290 84 290 110 367 c 0,30,31
 151 498 151 498 261 594 c 1,32,33
 263 604 263 604 236.5 618.5 c 128,-1,34
 210 633 210 633 189 634 c 0,35,36
 180 635 180 635 177 643 c 128,-1,37
 174 651 174 651 176 659 c 0,0,1
329 510 m 0,38,39
 291 520 291 520 245.5 495.5 c 128,-1,40
 200 471 200 471 176 439 c 1,41,42
 159 411 159 411 192.5 389.5 c 128,-1,43
 226 368 226 368 325 337 c 1,44,45
 369 359 369 359 387 378 c 0,46,47
 393 384 393 384 393 392 c 0,48,49
 389 445 389 445 376.5 472.5 c 128,-1,50
 364 500 364 500 329 510 c 0,38,39
479 485 m 0,51,52
 475 488 475 488 473 487 c 128,-1,53
 471 486 471 486 472 482 c 0,54,55
 478 446 478 446 450 389 c 128,-1,56
 422 332 422 332 401 312 c 1,57,58
 640 237 640 237 682 262 c 0,59,60
 684 263 684 263 687 265 c 0,61,62
 695 269 695 269 692 279 c 0,63,64
 653 375 653 375 479 485 c 0,51,52
EndSplineSet
Substitution2: "HehHaaInit subtable" heh.init_HehHaaInit
Substitution2: "HehMeemInit subtable" heh.init_HehMeemInit
Colour: ffff00
EndChar

StartChar: heh.isol
Encoding: 65575 -1 30
Width: 544
VWidth: 0
AnchorPoint: "HamzaBelow" 0 0 basechar 0
AnchorPoint: "HamzaAbove" 0 0 basechar 0
AnchorPoint: "DotBelow" 0 0 basechar 0
AnchorPoint: "DotAbove" 0 0 basechar 0
LayerCount: 2
Fore
SplineSet
198 717 m 0,0,1
 228 738 228 738 281 712 c 0,2,3
 335 685 335 685 390 625.5 c 128,-1,4
 445 566 445 566 473 502 c 0,5,6
 495 451 495 451 500 377 c 128,-1,7
 505 303 505 303 491 249 c 0,8,9
 466 142 466 142 390 72 c 128,-1,10
 314 2 314 2 211 1 c 0,11,12
 72 -1 72 -1 27.5 98.5 c 128,-1,13
 -17 198 -17 198 24 357 c 0,14,15
 44 436 44 436 89 521 c 128,-1,16
 134 606 134 606 183 662 c 0,17,18
 187 667 187 667 187 688.5 c 128,-1,19
 187 710 187 710 198 717 c 0,0,1
392 277 m 0,20,21
 414 294 414 294 382 338.5 c 128,-1,22
 350 383 350 383 294 419.5 c 128,-1,23
 238 456 238 456 200 453 c 0,24,25
 159 450 159 450 127 394 c 128,-1,26
 95 338 95 338 103 301 c 0,27,28
 110 268 110 268 148.5 246.5 c 128,-1,29
 187 225 187 225 235 226 c 0,30,31
 324 226 324 226 392 277 c 0,20,21
EndSplineSet
Substitution2: "'fina' Terminal Forms in Arabic lookup 3 subtable" heh.fina
Substitution2: "'medi' Medial Forms in Arabic lookup 2 subtable" heh.medi
Substitution2: "'init' Initial Forms in Arabic lookup 1 subtable" heh.init
Colour: ffff00
EndChar

StartChar: heh.medi
Encoding: 65576 -1 31
Width: 802
VWidth: 0
AnchorPoint: "HamzaBelow" 0 0 basechar 0
AnchorPoint: "HamzaAbove" 0 0 basechar 0
AnchorPoint: "DotBelow" 0 0 basechar 0
AnchorPoint: "DotAbove" 0 0 basechar 0
LayerCount: 2
Fore
SplineSet
576 718 m 0,0,-1
 576 718 l 2,1,2
 579 718 579 718 581 717 c 0,3,4
 616 703 616 703 627 632.5 c 128,-1,5
 638 562 638 562 624.5 473 c 128,-1,6
 611 384 611 384 560.5 288 c 128,-1,7
 510 192 510 192 434 135 c 1,8,9
 559 128 559 128 801 189 c 0,10,11
 818 193 818 193 828 163 c 0,12,13
 849 99 849 99 827 34 c 0,14,15
 817 6 817 6 801 2 c 0,16,17
 696 -21 696 -21 606 -18 c 1,18,19
 638 -47 638 -47 653 -116 c 128,-1,20
 668 -185 668 -185 661 -259 c 128,-1,21
 654 -333 654 -333 607.5 -395.5 c 128,-1,22
 561 -458 561 -458 482 -471 c 0,23,24
 446 -477 446 -477 407 -459.5 c 128,-1,25
 368 -442 368 -442 328.5 -398.5 c 128,-1,26
 289 -355 289 -355 258.5 -266.5 c 128,-1,27
 228 -178 228 -178 216 -55 c 1,28,-1
 157 -47 l 1,29,-1
 158 51 l 1,30,31
 65 4 65 4 0 0 c 0,32,33
 -26 -2 -26 -2 -46.5 44.5 c 128,-1,34
 -67 91 -67 91 -57 137.5 c 128,-1,35
 -47 184 -47 184 -0 184 c 0,36,37
 43 184 43 184 113.5 197.5 c 128,-1,38
 184 211 184 211 240 234 c 1,39,40
 272 327 272 327 342 443.5 c 128,-1,41
 412 560 412 560 479.5 639 c 128,-1,42
 547 718 547 718 576 718 c 0,0,-1
483 479 m 0,43,44
 468 479 468 479 455 473 c 0,45,46
 393 446 393 446 347 373 c 128,-1,47
 301 300 301 300 291 247 c 1,48,49
 302 252 302 252 342.5 270 c 128,-1,50
 383 288 383 288 400 297 c 128,-1,51
 417 306 417 306 448.5 324 c 128,-1,52
 480 342 480 342 502.5 363 c 128,-1,53
 525 384 525 384 546 411 c 0,54,55
 558 427 558 427 549 443 c 0,56,57
 528 480 528 480 483 479 c 0,43,44
299 -65 m 1,58,59
 333 -228 333 -228 433 -271 c 1,60,61
 463 -287 463 -287 514.5 -281.5 c 128,-1,62
 566 -276 566 -276 597 -248 c 0,63,64
 610 -239 610 -239 596 -216 c 0,65,66
 569 -170 569 -170 480.5 -125 c 128,-1,67
 392 -80 392 -80 299 -65 c 1,58,59
EndSplineSet
MultipleSubs2: "HehMediTooth subtable" heh.medi_BaaHehMedi
Substitution2: "BaaHehInit subtable" heh.medi_BaaHehInit
Substitution2: "LamHehInit subtable" heh.medi_LamHehInit
Substitution2: "BaaHehMedi subtable" heh.medi_BaaHehMedi
Colour: ffff00
EndChar

StartChar: kaf.fina
Encoding: 65577 -1 32
Width: 1556
VWidth: 0
AnchorPoint: "HamzaBelow" 0 0 basechar 0
AnchorPoint: "HamzaAbove" 0 0 basechar 0
AnchorPoint: "DotBelow" 0 0 basechar 0
AnchorPoint: "DotAbove" 0 0 basechar 0
LayerCount: 2
Fore
SplineSet
1309 1448 m 0,0,1
 1319 1336 1319 1336 1334 1141.5 c 128,-1,2
 1349 947 1349 947 1363 786.5 c 128,-1,3
 1377 626 1377 626 1395 483 c 0,4,5
 1403 416 1403 416 1421 362.5 c 128,-1,6
 1439 309 1439 309 1458 279.5 c 128,-1,7
 1477 250 1477 250 1499.5 229 c 128,-1,8
 1522 208 1522 208 1534.5 201.5 c 128,-1,9
 1547 195 1547 195 1557 193 c 0,10,11
 1598 181 1598 181 1605 132.5 c 128,-1,12
 1612 84 1612 84 1594 41 c 128,-1,13
 1576 -2 1576 -2 1557 -0 c 0,14,15
 1524 3 1524 3 1501.5 8.5 c 128,-1,16
 1479 14 1479 14 1446.5 36 c 128,-1,17
 1414 58 1414 58 1391.5 93.5 c 128,-1,18
 1369 129 1369 129 1348.5 196.5 c 128,-1,19
 1328 264 1328 264 1318 358 c 1,20,21
 1283 276 1283 276 1215 192.5 c 128,-1,22
 1147 109 1147 109 1076 73 c 0,23,24
 841 -47 841 -47 555 -57 c 0,25,26
 134 -71 134 -71 28 128 c 0,27,28
 2 177 2 177 0 238.5 c 128,-1,29
 -2 300 -2 300 13 353.5 c 128,-1,30
 28 407 28 407 52 458.5 c 128,-1,31
 76 510 76 510 95.5 541 c 128,-1,32
 115 572 115 572 128 586 c 0,33,34
 138 598 138 598 152 597 c 128,-1,35
 166 596 166 596 169.5 584.5 c 128,-1,36
 173 573 173 573 159 552 c 0,37,38
 119 498 119 498 99 441.5 c 128,-1,39
 79 385 79 385 83 353 c 0,40,41
 90 296 90 296 133.5 252 c 128,-1,42
 177 208 177 208 243 184 c 128,-1,43
 309 160 309 160 379 148.5 c 128,-1,44
 449 137 449 137 522 136 c 0,45,46
 567 136 567 136 649.5 144 c 128,-1,47
 732 152 732 152 852 173 c 128,-1,48
 972 194 972 194 1079 244 c 128,-1,49
 1186 294 1186 294 1233 364 c 0,50,51
 1248 386 1248 386 1251.5 444 c 128,-1,52
 1255 502 1255 502 1249 597 c 128,-1,53
 1243 692 1243 692 1234 792.5 c 128,-1,54
 1225 893 1225 893 1214.5 1038 c 128,-1,55
 1204 1183 1204 1183 1199 1304 c 0,56,57
 1198 1321 1198 1321 1202 1327 c 2,58,-1
 1283 1453 l 2,59,60
 1292 1465 1292 1465 1300 1461 c 128,-1,61
 1308 1457 1308 1457 1309 1448 c 0,0,1
776 1179 m 1,62,63
 784 1179 784 1179 788 1172 c 128,-1,64
 792 1165 792 1165 789 1158 c 2,65,-1
 745 1049 l 2,66,67
 735 1023 735 1023 723 1021 c 0,68,69
 666 1009 666 1009 642 978 c 0,70,71
 630 963 630 963 676 944 c 0,72,73
 714 929 714 929 776 919 c 0,74,75
 869 905 869 905 836 812 c 0,76,77
 817 759 817 759 772 696.5 c 128,-1,78
 727 634 727 634 690 625 c 0,79,80
 646 614 646 614 543 624.5 c 128,-1,81
 440 635 440 635 378 657 c 0,82,83
 356 665 356 665 356 683.5 c 128,-1,84
 356 702 356 702 376 703 c 0,85,86
 427 706 427 706 513.5 708.5 c 128,-1,87
 600 711 600 711 646.5 715 c 128,-1,88
 693 719 693 719 715 731 c 0,89,90
 724 736 724 736 719.5 745 c 128,-1,91
 715 754 715 754 702 756 c 2,92,-1
 643 770 l 2,93,94
 594 781 594 781 566 811.5 c 128,-1,95
 538 842 538 842 546 877 c 0,96,97
 607 1134 607 1134 776 1179 c 1,62,63
EndSplineSet
Substitution2: "LamKafFina subtable" kaf.fina_LamKafFina
Substitution2: "KafKafFina subtable" kaf.fina_KafKafFina
Substitution2: "LamKafIsol subtable" kaf.fina_LamKafIsol
Colour: ffff00
EndChar

StartChar: kaf.init.alt
Encoding: 65578 -1 33
Width: 0
VWidth: 0
AnchorPoint: "HamzaBelow" 0 0 basechar 0
AnchorPoint: "HamzaAbove" 0 0 basechar 0
AnchorPoint: "DotBelow" 0 0 basechar 0
AnchorPoint: "DotAbove" 0 0 basechar 0
LayerCount: 2
Fore
SplineSet
-71 798 m 0,0,1
 77 951 77 951 352 1108 c 128,-1,2
 627 1265 627 1265 874 1315 c 0,3,4
 889 1319 889 1319 897 1315.5 c 128,-1,5
 905 1312 905 1312 903 1297 c 0,6,7
 899 1236 899 1236 873 1151 c 0,8,9
 867 1132 867 1132 846 1126 c 0,10,11
 591 1057 591 1057 329.5 931.5 c 128,-1,12
 68 806 68 806 -48 692 c 0,13,14
 -61 680 -61 680 -51 673 c 0,15,16
 2 634 2 634 227.5 617 c 128,-1,17
 453 600 453 600 669 601 c 128,-1,18
 885 602 885 602 1071 611 c 1,19,20
 1337 628 1337 628 1812.5 676 c 128,-1,21
 2288 724 2288 724 2530 721 c 0,22,23
 2669 719 2669 719 2757 638.5 c 128,-1,24
 2845 558 2845 558 2854 434 c 0,25,26
 2856 407 2856 407 2839 377 c 0,27,28
 2759 240 2759 240 2711 204 c 0,29,30
 2691 189 2691 189 2668 187 c 0,31,32
 2430 171 2430 171 1835 115 c 128,-1,33
 1240 59 1240 59 1054 44 c 0,34,35
 768 21 768 21 350 13 c 128,-1,36
 -68 5 -68 5 -364 8 c 0,37,38
 -400 8 -400 8 -415 55.5 c 128,-1,39
 -430 103 -430 103 -415.5 149.5 c 128,-1,40
 -401 196 -401 196 -364 194 c 0,41,42
 -90 180 -90 180 373.5 186 c 128,-1,43
 837 192 837 192 1123 223 c 0,44,45
 1821 298 1821 298 2705 376 c 0,46,47
 2724 378 2724 378 2713 401 c 0,48,49
 2686 461 2686 461 2629 505 c 128,-1,50
 2572 549 2572 549 2519 550 c 0,51,52
 2258 559 2258 559 1780.5 513.5 c 128,-1,53
 1303 468 1303 468 1106 459 c 0,54,55
 767 443 767 443 589.5 441 c 128,-1,56
 412 439 412 439 76 451 c 0,57,58
 -6 455 -6 455 -85.5 480.5 c 128,-1,59
 -165 506 -165 506 -191 554 c 0,60,61
 -206 582 -206 582 -190 616 c 0,62,63
 -140 727 -140 727 -71 798 c 0,0,1
EndSplineSet
EndChar

StartChar: kaf.init
Encoding: 65579 -1 34
Width: 405
VWidth: 0
AnchorPoint: "HamzaBelow" 0 0 basechar 0
AnchorPoint: "HamzaAbove" 0 0 basechar 0
AnchorPoint: "DotBelow" 0 0 basechar 0
AnchorPoint: "DotAbove" 0 0 basechar 0
LayerCount: 2
Fore
SplineSet
1053 1570 m 2,0,-1
 1014 1477 l 2,1,2
 1003 1451 1003 1451 990 1448 c 0,3,4
 421 1288 421 1288 47 1081 c 0,5,6
 33 1073 33 1073 42 1059 c 0,7,8
 52 1044 52 1044 74 1014 c 0,9,10
 125 941 125 941 150.5 902 c 128,-1,11
 176 863 176 863 218 793 c 128,-1,12
 260 723 260 723 278.5 669.5 c 128,-1,13
 297 616 297 616 315 545.5 c 128,-1,14
 333 475 333 475 331 401.5 c 128,-1,15
 329 328 329 328 312 250 c 0,16,17
 294 170 294 170 231 110 c 128,-1,18
 168 50 168 50 107 26 c 128,-1,19
 46 2 46 2 0 0 c 0,20,21
 -23 -1 -23 -1 -43 45 c 128,-1,22
 -63 91 -63 91 -54.5 137 c 128,-1,23
 -46 183 -46 183 -0 184 c 0,24,25
 52 185 52 185 149 211.5 c 128,-1,26
 246 238 246 238 270 261 c 1,27,28
 297 336 297 336 224.5 499.5 c 128,-1,29
 152 663 152 663 88 742 c 0,30,31
 65 771 65 771 50 766 c 2,32,-1
 13 755 l 2,33,34
 -7 749 -7 749 -25 774 c 2,35,-1
 -113 904 l 2,36,37
 -128 926 -128 926 -123 957 c 0,38,39
 -114 1007 -114 1007 -89 1059.5 c 128,-1,40
 -64 1112 -64 1112 -40 1143 c 0,41,42
 49 1255 49 1255 383 1399.5 c 128,-1,43
 717 1544 717 1544 1017 1621 c 0,44,45
 1047 1629 1047 1629 1056 1611.5 c 128,-1,46
 1065 1594 1065 1594 1053 1570 c 2,0,-1
EndSplineSet
Substitution2: "KafLamHehIsol subtable" kaf.init_KafLamHehIsol
Substitution2: "KafMeemAlefIsol subtable" kaf.init_KafMeemAlefIsol
Substitution2: "KafDalIsol subtable" kaf.init_KafDalIsol
Substitution2: "KafAlefIsol subtable" kaf.init_KafAlefIsol
Substitution2: "KafRaaIsol subtable" kaf.init_KafRaaIsol
Substitution2: "KafLamInit subtable" kaf.init_KafLamInit
Substitution2: "KafLamAlefIsol subtable" kaf.init_KafLamAlefIsol
Substitution2: "KafMeemIsol subtable" kaf.init_KafMeemIsol
Substitution2: "KafBaaInit subtable" kaf.init_KafBaaInit
Substitution2: "KafLamIsol subtable" kaf.init_KafLamIsol
Substitution2: "KafYaaIsol subtable" kaf.init_KafYaaIsol
Substitution2: "KafMeemInit subtable" kaf.init_KafMeemInit
Substitution2: "KafMeemLamInit subtable" kaf.init_KafMeemLamInit
Substitution2: "KafHehIsol subtable" kaf.init_KafHehIsol
Colour: ffff00
EndChar

StartChar: kaf.isol
Encoding: 65580 -1 35
Width: 1138
VWidth: 0
AnchorPoint: "HamzaBelow" 0 0 basechar 0
AnchorPoint: "HamzaAbove" 0 0 basechar 0
AnchorPoint: "DotBelow" 0 0 basechar 0
AnchorPoint: "DotAbove" 0 0 basechar 0
LayerCount: 2
Fore
SplineSet
881 1602 m 0,0,1
 891 1575 891 1575 923.5 1530.5 c 128,-1,2
 956 1486 956 1486 990 1459 c 0,3,4
 1006 1446 1006 1446 991 1419 c 0,5,6
 987 1412 987 1412 974.5 1392 c 128,-1,7
 962 1372 962 1372 953.5 1357.5 c 128,-1,8
 945 1343 945 1343 946 1337 c 0,9,10
 953 1300 953 1300 980.5 1162.5 c 128,-1,11
 1008 1025 1008 1025 1021 956 c 128,-1,12
 1034 887 1034 887 1053 778 c 128,-1,13
 1072 669 1072 669 1081 591.5 c 128,-1,14
 1090 514 1090 514 1091 458 c 0,15,16
 1092 391 1092 391 1091 358 c 128,-1,17
 1090 325 1090 325 1076 246.5 c 128,-1,18
 1062 168 1062 168 1032 101 c 0,19,20
 1004 38 1004 38 778 15.5 c 128,-1,21
 552 -7 552 -7 337.5 1 c 128,-1,22
 123 9 123 9 23 24 c 0,23,24
 10 26 10 26 9 43 c 0,25,26
 1 179 1 179 5 220 c 0,27,28
 5 225 5 225 8 228.5 c 128,-1,29
 11 232 11 232 15 231 c 0,30,31
 79 205 79 205 293.5 194.5 c 128,-1,32
 508 184 508 184 730 203 c 128,-1,33
 952 222 952 222 1013 271 c 1,34,35
 1018 298 1018 298 997.5 454.5 c 128,-1,36
 977 611 977 611 955 727 c 0,37,38
 945 782 945 782 925 891 c 128,-1,39
 905 1000 905 1000 891.5 1073.5 c 128,-1,40
 878 1147 878 1147 861.5 1233 c 128,-1,41
 845 1319 845 1319 831.5 1378.5 c 128,-1,42
 818 1438 818 1438 807 1469 c 0,43,44
 796 1501 796 1501 812 1531 c 2,45,-1
 850 1609 l 2,46,47
 856 1621 856 1621 865.5 1619.5 c 128,-1,48
 875 1618 875 1618 881 1602 c 0,0,1
469 1174 m 1,49,50
 477 1174 477 1174 481 1167 c 128,-1,51
 485 1160 485 1160 482 1152 c 2,52,-1
 438 1044 l 2,53,54
 428 1018 428 1018 416 1015 c 0,55,56
 359 1003 359 1003 335 972 c 0,57,58
 323 957 323 957 369 938 c 0,59,60
 407 923 407 923 469 914 c 0,61,62
 562 900 562 900 529 807 c 0,63,64
 510 754 510 754 465 691.5 c 128,-1,65
 420 629 420 629 383 619 c 0,66,67
 339 608 339 608 236 618.5 c 128,-1,68
 133 629 133 629 71 652 c 0,69,70
 49 660 49 660 49 678.5 c 128,-1,71
 49 697 49 697 69 698 c 0,72,73
 120 701 120 701 206.5 703 c 128,-1,74
 293 705 293 705 339.5 709.5 c 128,-1,75
 386 714 386 714 408 726 c 0,76,77
 417 731 417 731 412.5 740 c 128,-1,78
 408 749 408 749 395 751 c 2,79,-1
 336 765 l 2,80,81
 287 776 287 776 259 806.5 c 128,-1,82
 231 837 231 837 239 872 c 0,83,84
 300 1129 300 1129 469 1174 c 1,49,50
EndSplineSet
Substitution2: "'fina' Terminal Forms in Arabic lookup 3 subtable" kaf.fina
Substitution2: "'medi' Medial Forms in Arabic lookup 2 subtable" kaf.medi
Substitution2: "'init' Initial Forms in Arabic lookup 1 subtable" kaf.init
Colour: ffff00
EndChar

StartChar: kaf.medi
Encoding: 65581 -1 36
Width: 759
VWidth: 0
AnchorPoint: "HamzaBelow" 0 0 basechar 0
AnchorPoint: "HamzaAbove" 0 0 basechar 0
AnchorPoint: "DotBelow" 0 0 basechar 0
AnchorPoint: "DotAbove" 0 0 basechar 0
LayerCount: 2
Fore
SplineSet
146 1203 m 0,0,1
 269 1296 269 1296 614 1414.5 c 128,-1,2
 959 1533 959 1533 1291 1565 c 0,3,4
 1313 1567 1313 1567 1326.5 1553.5 c 128,-1,5
 1340 1540 1340 1540 1331 1525 c 2,6,-1
 1270 1421 l 2,7,8
 1263 1409 1263 1409 1247 1408 c 0,9,10
 975 1381 975 1381 563 1254 c 128,-1,11
 151 1127 151 1127 84 1055 c 1,12,13
 149 978 149 978 233.5 837.5 c 128,-1,14
 318 697 318 697 382.5 583.5 c 128,-1,15
 447 470 447 470 549 355 c 128,-1,16
 651 240 651 240 762 186 c 0,17,18
 817 159 817 159 804 69 c 0,19,20
 794 2 794 2 765 -1 c 0,21,22
 761 -1 761 -1 758 0 c 0,23,24
 692 26 692 26 630.5 74 c 128,-1,25
 569 122 569 122 517.5 184.5 c 128,-1,26
 466 247 466 247 428 300.5 c 128,-1,27
 390 354 390 354 346 422.5 c 128,-1,28
 302 491 302 491 281 519 c 1,29,30
 278 413 278 413 248 317 c 128,-1,31
 218 221 218 221 174 157 c 128,-1,32
 130 93 130 93 85.5 51.5 c 128,-1,33
 41 10 41 10 4 -4 c 0,34,35
 -24 -14 -24 -14 -35 35 c 0,36,37
 -51 107 -51 107 -21 158 c 0,38,39
 -8 180 -8 180 10 181 c 0,40,41
 46 182 46 182 108.5 209.5 c 128,-1,42
 171 237 171 237 191 270 c 1,43,44
 215 330 215 330 219 394 c 128,-1,45
 223 458 223 458 210.5 516 c 128,-1,46
 198 574 198 574 167.5 641.5 c 128,-1,47
 137 709 137 709 102.5 766.5 c 128,-1,48
 68 824 68 824 17 898 c 1,49,50
 5 937 5 937 9 956 c 0,51,52
 60 1138 60 1138 146 1203 c 0,0,1
EndSplineSet
Substitution2: "KafAlefFina subtable" kaf.medi_KafAlefFina
Substitution2: "KafMeemAlefFina subtable" kaf.medi_KafMeemAlefFina
Substitution2: "KafBaaMedi subtable" kaf.medi_KafBaaMedi
Substitution2: "KafYaaFina subtable" kaf.medi_KafYaaFina
Substitution2: "KafRaaFina subtable" kaf.medi_KafRaaFina
Substitution2: "KafMeemFina subtable" kaf.medi_KafMeemFina
Substitution2: "KafMeemLamFina subtable" kaf.medi_KafMeemLamFina
Substitution2: "KafKafFina subtable" kaf.medi_KafKafFina
Substitution2: "KafLamMeemMedi subtable" kaf.medi_KafLamMeemMedi
Substitution2: "KafHehFina subtable" kaf.medi_KafHehFina
Substitution2: "KafLamAlefFina subtable" kaf.medi_KafLamAlefFina
Substitution2: "KafMeemMedi subtable" kaf.medi_KafMeemMedi
Substitution2: "KafLamMedi subtable" kaf.medi_KafLamMedi
Colour: ffff00
EndChar

StartChar: lam.fina
Encoding: 65583 -1 37
Width: 1191
VWidth: 0
AnchorPoint: "HamzaBelow" 0 0 basechar 0
AnchorPoint: "HamzaAbove" 0 0 basechar 0
AnchorPoint: "DotBelow" 0 0 basechar 0
AnchorPoint: "DotAbove" 0 0 basechar 0
LayerCount: 2
Fore
SplineSet
740 1174 m 0,0,1
 747 1192 747 1192 758 1236.5 c 128,-1,2
 769 1281 769 1281 777 1296 c 1,3,4
 803 1331 803 1331 818 1255 c 0,5,6
 819 1252 819 1252 826 1207 c 0,7,8
 837 1140 837 1140 862 979.5 c 128,-1,9
 887 819 887 819 903 721 c 128,-1,10
 919 623 919 623 944 518.5 c 128,-1,11
 969 414 969 414 993 373 c 0,12,13
 1029 311 1029 311 1081.5 257.5 c 128,-1,14
 1134 204 1134 204 1190 186 c 0,15,16
 1241 170 1241 170 1228 74 c 1,17,18
 1215 3 1215 3 1190 0 c 1,19,20
 1104 22 1104 22 1030 84 c 128,-1,21
 956 146 956 146 928 194 c 1,22,23
 930 169 930 169 941.5 64.5 c 128,-1,24
 953 -40 953 -40 956 -85.5 c 128,-1,25
 959 -131 959 -131 958.5 -210.5 c 128,-1,26
 958 -290 958 -290 947 -355 c 0,27,28
 922 -493 922 -493 837 -566 c 0,29,30
 755 -637 755 -637 629 -685.5 c 128,-1,31
 503 -734 503 -734 398 -737 c 0,32,33
 312 -740 312 -740 226.5 -709 c 128,-1,34
 141 -678 141 -678 94 -626 c 0,35,36
 -19 -501 -19 -501 5 -320 c 0,37,38
 32 -120 32 -120 185 87 c 0,39,40
 194 99 194 99 208 98 c 128,-1,41
 222 97 222 97 227 85.5 c 128,-1,42
 232 74 232 74 221 55 c 0,43,44
 177 -13 177 -13 154 -56 c 128,-1,45
 131 -99 131 -99 112.5 -151 c 128,-1,46
 94 -203 94 -203 96 -251 c 128,-1,47
 98 -299 98 -299 117 -352 c 0,48,49
 147 -433 147 -433 239.5 -481.5 c 128,-1,50
 332 -530 332 -530 484 -519 c 0,51,52
 723 -502 723 -502 906 -321 c 1,53,-1
 736 1072 l 2,54,55
 727 1127 727 1127 740 1174 c 0,0,1
EndSplineSet
Substitution2: "KafMeemLamFina subtable" lam.fina_KafMeemLamFina
Substitution2: "KafLamIsol subtable" lam.fina_KafLamIsol
Colour: ffff00
EndChar

StartChar: lam.init
Encoding: 65584 -1 38
Width: 311
VWidth: 0
AnchorPoint: "HamzaBelow" 0 0 basechar 0
AnchorPoint: "HamzaAbove" 0 0 basechar 0
AnchorPoint: "DotBelow" 0 0 basechar 0
AnchorPoint: "DotAbove" 0 0 basechar 0
LayerCount: 2
Fore
SplineSet
2 1352 m 1,0,1
 8 1367 8 1367 20 1396.5 c 128,-1,2
 32 1426 32 1426 38 1443 c 0,3,4
 45 1462 45 1462 60 1461.5 c 128,-1,5
 75 1461 75 1461 82 1441 c 0,6,7
 113 1350 113 1350 171 1292 c 0,8,9
 191 1272 191 1272 168 1245 c 0,10,11
 161 1236 161 1236 144.5 1212.5 c 128,-1,12
 128 1189 128 1189 123 1182 c 1,13,14
 132 1111 132 1111 149 968 c 128,-1,15
 166 825 166 825 180.5 699 c 128,-1,16
 195 573 195 573 196 561 c 0,17,18
 206 452 206 452 195.5 349.5 c 128,-1,19
 185 247 185 247 135.5 145.5 c 128,-1,20
 86 44 86 44 0 0 c 0,21,22
 -4 -2 -4 -2 -9 8 c 0,23,24
 -34 58 -34 58 -31 135 c 0,25,26
 -29 180 -29 180 -9 186 c 0,27,28
 85 215 85 215 125 277 c 1,29,30
 122 362 122 362 103.5 527.5 c 128,-1,31
 85 693 85 693 57.5 907.5 c 128,-1,32
 30 1122 30 1122 21 1199 c 0,33,34
 18 1223 18 1223 10.5 1261.5 c 128,-1,35
 3 1300 3 1300 1 1314 c 128,-1,36
 -1 1328 -1 1328 2 1352 c 1,0,1
EndSplineSet
Substitution2: "LamHaaHaaInit subtable" lam.init_LamHaaHaaInit
Substitution2: "LamRaaIsol subtable" lam.init_LamRaaIsol
Substitution2: "Lellah subtable" lam.init_Lellah
Substitution2: "LamMeemHaaInit subtable" lam.init_LamMeemHaaInit
Substitution2: "LamYaaIsol subtable" lam.init_LamYaaIsol
Substitution2: "LamMeemIsol subtable" lam.init_LamMeemIsol
Substitution2: "LamHehInit subtable" lam.init_LamHehInit
Substitution2: "LamKafIsol subtable" lam.init_LamKafIsol
Substitution2: "LamHaaMeemInit subtable" lam.init_LamHaaMeemInit
Substitution2: "LamAlefIsol subtable" lam.init_LamAlefIsol
Substitution2: "LamMeemInit subtable" lam.init_LamMeemInit
Substitution2: "LamLamInit subtable" lam.init_LamLamInit
Substitution2: "LamBaaMeemInit subtable" lam.init_LamBaaMeemInit
Substitution2: "LamLamHaaInit subtable" lam.init_LamLamHaaInit
Substitution2: "LamHaaInit subtable" lam.init_LamHaaInit
Substitution2: "LamLamAlefIsol subtable" lam.init_LamLamAlefIsol
Substitution2: "LamHehIsol subtable" lam.init_LamHehIsol
Substitution2: "LamDalIsol subtable" lam.init_LamDalIsol
Colour: ffff00
EndChar

StartChar: lam.isol
Encoding: 65585 -1 39
Width: 1028
VWidth: 0
AnchorPoint: "HamzaBelow" 0 0 basechar 0
AnchorPoint: "HamzaAbove" 0 0 basechar 0
AnchorPoint: "DotBelow" 0 0 basechar 0
AnchorPoint: "DotAbove" 0 0 basechar 0
LayerCount: 2
Fore
SplineSet
797 1444 m 0,0,1
 803 1459 803 1459 818 1458.5 c 128,-1,2
 833 1458 833 1458 839 1439 c 0,3,4
 848 1409 848 1409 874.5 1360 c 128,-1,5
 901 1311 901 1311 923 1290 c 0,6,7
 942 1272 942 1272 927 1249 c 0,8,9
 900 1209 900 1209 885 1191 c 0,10,11
 874 1179 874 1179 875 1152 c 0,12,13
 880 1071 880 1071 888 991 c 128,-1,14
 896 911 896 911 911 795.5 c 128,-1,15
 926 680 926 680 930 641 c 0,16,17
 952 452 952 452 955 413 c 0,18,19
 956 399 956 399 953 291 c 1,20,21
 944 148 944 148 897 38 c 1,22,23
 855 -65 855 -65 693.5 -135.5 c 128,-1,24
 532 -206 532 -206 375 -212 c 0,25,26
 247 -217 247 -217 144.5 -167 c 128,-1,27
 42 -117 42 -117 1 -7 c 0,28,29
 -20 49 -20 49 -21 133 c 128,-1,30
 -22 217 -22 217 -3 285 c 0,31,32
 14 349 14 349 58 437.5 c 128,-1,33
 102 526 102 526 133 561 c 0,34,35
 144 574 144 574 156.5 572.5 c 128,-1,36
 169 571 169 571 172 559 c 128,-1,37
 175 547 175 547 168 531 c 0,38,39
 62 346 62 346 69 245 c 0,40,41
 87 -1 87 -1 442 5 c 0,42,43
 603 8 603 8 713.5 63 c 128,-1,44
 824 118 824 118 870 184 c 1,45,46
 865 312 865 312 811 736 c 0,47,48
 781 968 781 968 761 1256 c 0,49,50
 761 1263 761 1263 757 1288 c 128,-1,51
 753 1313 753 1313 753 1323.5 c 128,-1,52
 753 1334 753 1334 758 1354 c 1,53,54
 770 1377 770 1377 783 1409 c 128,-1,55
 796 1441 796 1441 797 1444 c 0,0,1
EndSplineSet
Substitution2: "'fina' Terminal Forms in Arabic lookup 3 subtable" lam.fina
Substitution2: "'medi' Medial Forms in Arabic lookup 2 subtable" lam.medi
Substitution2: "'init' Initial Forms in Arabic lookup 1 subtable" lam.init
Colour: ffff00
EndChar

StartChar: lam.medi
Encoding: 65586 -1 40
Width: 364
VWidth: 0
AnchorPoint: "HamzaBelow" 0 0 basechar 0
AnchorPoint: "HamzaAbove" 0 0 basechar 0
AnchorPoint: "DotBelow" 0 0 basechar 0
AnchorPoint: "DotAbove" 0 0 basechar 0
LayerCount: 2
Back
SplineSet
361.888 158.188 m 4,0,1
 388.202 144.335 388.202 144.335 391.075 97.7822 c 0,2,3
 393.947 51.2305 393.947 51.2305 382.384 11.5957 c 0,4,5
 370.819 -28.0381 370.819 -28.0381 361.548 -26.3164 c 0,2,3
 237.595 -3.2832 237.595 -3.2832 171.126 224.946 c 0,4,5
 167.278 238.161 167.278 238.161 164.03 243.297 c 0,6,7
 160.782 248.433 160.782 248.433 157.224 248.228 c 0,6,7
 149.848 247.805 149.848 247.805 145.68 220.162 c 0,8,9
 135.358 151.744 135.358 151.744 83.6074 80.5498 c 0,10,11
 31.8564 9.35645 31.8564 9.35645 0 0 c 0,10,11
 -12.4766 -3.66406 -12.4766 -3.66406 -20.5488 20.1689 c 0,12,13
 -40.625 79.4512 -40.625 79.4512 -22.2393 150.379 c 0,14,15
 -14.3262 180.907 -14.3262 180.907 -0.305664 185.174 c 0,12,13
 61.9619 204.124 61.9619 204.124 95.5508 253.751 c 0,14,15
 129.141 303.378 129.141 303.378 129.468 352.469 c 0,14,15
 129.789 400.268 129.789 400.268 119.136 566.134 c 0,16,17
 108.483 731.999 108.483 731.999 93.7793 957.779 c 0,18,19
 79.0752 1183.56 79.0752 1183.56 72.7979 1326.15 c 0,16,17
 71.502 1355.59 71.502 1355.59 82.498 1384.59 c 0,18,19
 93.4932 1413.58 93.4932 1413.58 114.786 1415.6 c 0,18,19
 132.62 1417.28 132.62 1417.28 149.027 1384.71 c 0,20,21
 165.435 1352.14 165.435 1352.14 167.158 1331.73 c 0,20,21
 167.483 1327.88 167.483 1327.88 174.818 1192.57 c 0,22,23
 182.153 1057.25 182.153 1057.25 191.002 899.587 c 0,24,25
 199.85 741.919 199.85 741.919 210.241 591.157 c 0,26,27
 220.632 440.396 220.632 440.396 226.697 402.729 c 0,22,23
 239.319 324.323 239.319 324.323 273.771 255.38 c 0,24,25
 308.225 186.437 308.225 186.437 361.888 158.188 c 4,0,1
EndSplineSet
Fore
SplineSet
351 181 m 0,0,1
 378 169 378 169 384 123 c 128,-1,2
 390 77 390 77 381 36.5 c 128,-1,3
 372 -4 372 -4 362 -3 c 0,4,5
 243 11 243 11 162 236 c 0,6,7
 154 259 154 259 147 258 c 128,-1,8
 140 257 140 257 137 229 c 0,9,10
 131 161 131 161 81.5 86.5 c 128,-1,11
 32 12 32 12 -0 -0 c 0,12,13
 -13 -5 -13 -5 -23 23 c 0,14,15
 -47 88 -47 88 -30 155 c 0,16,17
 -24 180 -24 180 -12 185 c 0,18,19
 50 208 50 208 83.5 260.5 c 128,-1,20
 117 313 117 313 115 360 c 0,21,22
 95 706 95 706 66 1328 c 0,23,24
 65 1359 65 1359 73.5 1388 c 128,-1,25
 82 1417 82 1417 103 1420 c 0,26,27
 121 1423 121 1423 139 1391.5 c 128,-1,28
 157 1360 157 1360 160 1340 c 0,29,30
 161 1335 161 1335 168 1124.5 c 128,-1,31
 175 914 175 914 186 689 c 128,-1,32
 197 464 197 464 208 417 c 0,33,34
 252 225 252 225 351 181 c 0,0,1
EndSplineSet
Substitution2: "KafLamHehIsol subtable" lam.medi_KafLamHehIsol
Substitution2: "LamKafFina subtable" lam.medi_LamKafFina
Substitution2: "Lellah subtable" lam.medi_Lellah
Substitution2: "LamMeemMedi subtable" lam.medi_LamMeemMedi
Substitution2: "LamAlefFina subtable" lam.medi_LamAlefFina
Substitution2: "KafLamInit subtable" lam.medi_KafLamInit
Substitution2: "KafLamAlefIsol subtable" lam.medi_KafLamAlefIsol
Substitution2: "LamQafFina subtable" lam.medi_LamQafFina
Substitution2: "LamYaaFina subtable" lam.medi_LamYaaFina
Substitution2: "LamLamInit subtable" lam.medi_LamLamInit
Substitution2: "KafLamMeemMedi subtable" lam.medi_KafLamMeemMedi
Substitution2: "KafLamAlefFina subtable" lam.medi_KafLamAlefFina
Substitution2: "LamHehFina subtable" lam.medi_LamHehFina
Substitution2: "LamLamHaaInit subtable" lam.medi_LamLamHaaInit
Substitution2: "LamWawFina subtable" lam.medi_LamWawFina
Substitution2: "LamLamAlefIsol subtable" lam.medi_LamLamAlefIsol
Substitution2: "KafMeemLamInit subtable" lam.medi_KafMeemLamInit
Substitution2: "LamMeemFina subtable" lam.medi_LamMeemFina
Substitution2: "KafLamMedi subtable" lam.medi_KafLamMedi
Colour: ffff00
EndChar

StartChar: madda
Encoding: 65587 -1 41
Width: 0
VWidth: 0
AnchorPoint: "HamzaBelow" 0 0 basechar 0
AnchorPoint: "HamzaAbove" 0 0 basechar 0
AnchorPoint: "DotBelow" 0 0 basechar 0
AnchorPoint: "DotAbove" 0 0 basechar 0
LayerCount: 2
Fore
SplineSet
854 278 m 0,0,1
 892 288 892 288 903 258 c 128,-1,2
 914 228 914 228 886 205 c 0,3,4
 820 150 820 150 674.5 117.5 c 128,-1,5
 529 85 529 85 406 78.5 c 128,-1,6
 283 72 283 72 171 75 c 1,7,8
 153 34 153 34 136 15 c 0,9,10
 118 -5 118 -5 104 6 c 0,11,12
 83 25 83 25 52 58 c 128,-1,13
 21 91 21 91 9 103 c 0,14,15
 -8 119 -8 119 7 146 c 0,16,17
 33 189 33 189 73 235 c 0,18,19
 95 260 95 260 130 247 c 1,20,21
 505 188 505 188 854 278 c 0,0,1
EndSplineSet
EndChar

StartChar: meem.fina.alt
Encoding: 65588 -1 42
Width: 0
VWidth: 0
AnchorPoint: "HamzaBelow" 0 0 basechar 0
AnchorPoint: "HamzaAbove" 0 0 basechar 0
AnchorPoint: "DotBelow" 0 0 basechar 0
AnchorPoint: "DotAbove" 0 0 basechar 0
LayerCount: 2
Fore
SplineSet
553 186 m 0,0,1
 572 189 572 189 581.5 168 c 128,-1,2
 591 147 591 147 588 109 c 0,3,4
 588 106 588 106 588 100 c 0,5,6
 586 76 586 76 585 63.5 c 128,-1,7
 584 51 584 51 580 34 c 128,-1,8
 576 17 576 17 569.5 9 c 128,-1,9
 563 1 563 1 552 0 c 0,10,11
 498 -6 498 -6 456 -21.5 c 128,-1,12
 414 -37 414 -37 399.5 -47.5 c 128,-1,13
 385 -58 385 -58 385 -60 c 0,14,15
 578 -160 578 -160 668 -228 c 0,16,17
 703 -255 703 -255 688 -302 c 0,18,19
 680 -326 680 -326 668.5 -352 c 128,-1,20
 657 -378 657 -378 646.5 -399.5 c 128,-1,21
 636 -421 636 -421 635 -425 c 0,22,23
 613 -478 613 -478 581 -468 c 1,24,25
 501 -420 501 -420 325 -426 c 0,26,27
 81 -434 81 -434 68 -528 c 0,28,29
 58 -603 58 -603 181 -1166 c 0,30,31
 216 -1324 216 -1324 210 -1451 c 0,32,33
 207 -1508 207 -1508 180 -1512 c 0,34,35
 152 -1516 152 -1516 145 -1455 c 0,36,37
 144 -1447 144 -1447 144 -1438 c 0,38,39
 141 -1343 141 -1343 84.5 -1122 c 128,-1,40
 28 -901 28 -901 15 -822 c 0,41,42
 -2 -724 -2 -724 1.5 -651 c 128,-1,43
 5 -578 5 -578 12.5 -535 c 128,-1,44
 20 -492 20 -492 22 -492 c 0,45,46
 53 -363 53 -363 114.5 -312.5 c 128,-1,47
 176 -262 176 -262 277 -246 c 1,48,49
 192 -199 192 -199 174 -191 c 0,50,51
 151 -180 151 -180 160 -153 c 0,52,53
 161 -149 161 -149 167.5 -123.5 c 128,-1,54
 174 -98 174 -98 181.5 -78 c 128,-1,55
 189 -58 189 -58 199 -49 c 0,56,57
 222 -27.5 l 0,58,59
 245 -6 245 -6 253.5 1.5 c 128,-1,60
 262 9 262 9 287.5 31 c 128,-1,61
 313 53 313 53 328.5 64.5 c 128,-1,62
 344 76 344 76 369.5 95.5 c 128,-1,63
 395 115 395 115 415.5 127 c 128,-1,64
 436 139 436 139 460.5 152.5 c 128,-1,65
 485 166 485 166 508 174 c 128,-1,66
 531 182 531 182 553 186 c 0,0,1
EndSplineSet
EndChar

StartChar: meem.fina
Encoding: 65589 -1 43
Width: 942
VWidth: 0
AnchorPoint: "HamzaBelow" 0 0 basechar 0
AnchorPoint: "HamzaAbove" 0 0 basechar 0
AnchorPoint: "DotBelow" 0 0 basechar 0
AnchorPoint: "DotAbove" 0 0 basechar 0
LayerCount: 2
Fore
SplineSet
384.5 428.5 m 128,-1,1
 394 429 394 429 408 413 c 0,2,3
 508 295 508 295 654.5 242.5 c 128,-1,4
 801 190 801 190 941 185 c 0,5,6
 1006 183 1006 183 992 102 c 0,7,8
 975 1 975 1 941 0 c 0,9,10
 764 -1 764 -1 604 81 c 0,11,12
 593 87 593 87 594 76 c 0,13,14
 603 -142 603 -142 517 -212 c 0,15,16
 491 -233 491 -233 459 -210 c 0,17,18
 413 -177 413 -177 367 -83 c 128,-1,19
 321 11 321 11 315 117 c 1,20,21
 266 123 266 123 190.5 78 c 128,-1,22
 115 33 115 33 89 -4 c 0,23,24
 70 -30 70 -30 103.5 -269.5 c 128,-1,25
 137 -509 137 -509 171.5 -777.5 c 128,-1,26
 206 -1046 206 -1046 188 -1124 c 0,27,28
 177 -1171 177 -1171 159 -1182 c 128,-1,29
 141 -1193 141 -1193 127 -1171 c 128,-1,30
 113 -1149 113 -1149 112 -1112 c 0,31,32
 110 -1053 110 -1053 105 -992.5 c 128,-1,33
 100 -932 100 -932 90.5 -861 c 128,-1,34
 81 -790 81 -790 73.5 -742.5 c 128,-1,35
 66 -695 66 -695 52 -606 c 128,-1,36
 38 -517 38 -517 31 -477 c 0,37,38
 -1 -289 -1 -289 0.5 -153 c 128,-1,39
 2 -17 2 -17 42 86 c 0,40,41
 109 256 109 256 333 348 c 1,42,43
 345 384 345 384 363 410 c 0,44,0
 375 428 375 428 384.5 428.5 c 128,-1,1
EndSplineSet
Substitution2: "BaaMeemIsol subtable" meem.fina_BaaMeemIsol
Substitution2: "LamMeemIsol subtable" meem.fina_LamMeemIsol
Substitution2: "KafMeemFina subtable" meem.fina_KafMeemFina
Substitution2: "KafMeemIsol subtable" meem.fina_KafMeemIsol
Substitution2: "BaaMeemFina subtable" meem.fina_BaaMeemFina
Substitution2: "LamMeemFina subtable" meem.fina_LamMeemFina
Colour: ffff00
EndChar

StartChar: meem.init
Encoding: 65590 -1 44
Width: 716
VWidth: 0
AnchorPoint: "HamzaBelow" 0 0 basechar 0
AnchorPoint: "HamzaAbove" 0 0 basechar 0
AnchorPoint: "DotBelow" 0 0 basechar 0
AnchorPoint: "DotAbove" 0 0 basechar 0
LayerCount: 2
Fore
SplineSet
477 652 m 0,0,1
 614 652 614 652 667 311 c 0,2,3
 670 288 670 288 661 277 c 2,4,-1
 549 135 l 2,5,6
 533 114 533 114 510 121 c 0,7,8
 351 167 351 167 232 268 c 1,9,10
 230 264 230 264 218 235 c 128,-1,11
 206 206 206 206 201 194.5 c 128,-1,12
 196 183 196 183 181.5 154.5 c 128,-1,13
 167 126 167 126 156 111.5 c 128,-1,14
 145 97 145 97 127 74.5 c 128,-1,15
 109 52 109 52 91 39.5 c 128,-1,16
 73 27 73 27 49.5 15.5 c 128,-1,17
 26 4 26 4 0 0 c 0,18,19
 -15 -2 -15 -2 -31 42 c 128,-1,20
 -47 86 -47 86 -42 133.5 c 128,-1,21
 -37 181 -37 181 0 186 c 0,22,23
 103 200 103 200 181 300 c 0,24,25
 210 337 210 337 248 406.5 c 128,-1,26
 286 476 286 476 313 525 c 128,-1,27
 340 574 340 574 383.5 613 c 128,-1,28
 427 652 427 652 477 652 c 0,0,1
413 485 m 0,29,30
 366 486 366 486 330 451 c 1,31,32
 403 380 403 380 514 356 c 1,33,34
 517 439 517 439 449 476 c 0,35,36
 432 485 432 485 413 485 c 0,29,30
EndSplineSet
Substitution2: "MeemHaaMeemInit subtable" meem.init_MeemHaaMeemInit
Substitution2: "MeemHaaInit subtable" meem.init_MeemHaaInit
Substitution2: "MeemRaaIsol subtable" meem.init_MeemRaaIsol
Substitution2: "MeemYaaIsol subtable" meem.init_MeemYaaIsol
Substitution2: "MeemMeemInit subtable" meem.init_MeemMeemInit
Colour: ffff00
EndChar

StartChar: meem.isol
Encoding: 65591 -1 45
Width: 720
VWidth: 0
AnchorPoint: "HamzaBelow" 0 0 basechar 0
AnchorPoint: "HamzaAbove" 0 0 basechar 0
AnchorPoint: "DotBelow" 0 0 basechar 0
AnchorPoint: "DotAbove" 0 0 basechar 0
LayerCount: 2
Fore
SplineSet
190 484 m 1,0,1
 265 516 265 516 369 529 c 1,2,3
 296 591 296 591 255 580 c 0,4,5
 199 565 199 565 190 484 c 1,0,1
83 409 m 1,6,7
 100 542 100 542 158.5 663 c 128,-1,8
 217 784 217 784 285 808 c 0,9,10
 312 818 312 818 344 817 c 0,11,12
 366 817 366 817 383 811 c 0,13,14
 446 789 446 789 519 727.5 c 128,-1,15
 592 666 592 666 652 588 c 0,16,17
 670 565 670 565 667 545 c 0,18,19
 636 366 636 366 630 349 c 0,20,21
 620 321 620 321 594 326 c 0,22,23
 254 406 254 406 83 203 c 0,24,25
 68 185 68 185 74 163 c 0,26,27
 147 -104 147 -104 209 -423 c 128,-1,28
 271 -742 271 -742 258 -853 c 0,29,30
 252 -903 252 -903 225.5 -906 c 128,-1,31
 199 -909 199 -909 194 -853 c 0,32,33
 182 -727 182 -727 109 -396 c 0,34,35
 98 -344 98 -344 72 -241 c 128,-1,36
 46 -138 46 -138 31 -73.5 c 128,-1,37
 16 -9 16 -9 6.5 67 c 128,-1,38
 -3 143 -3 143 4 191 c 0,39,40
 26 341 26 341 83 409 c 1,6,7
EndSplineSet
Substitution2: "'fina' Terminal Forms in Arabic lookup 3 subtable" meem.fina
Substitution2: "'medi' Medial Forms in Arabic lookup 2 subtable" meem.medi
Substitution2: "'init' Initial Forms in Arabic lookup 1 subtable" meem.init
Colour: ffff00
EndChar

StartChar: meem.medi
Encoding: 65592 -1 46
Width: 950
VWidth: 0
AnchorPoint: "HamzaBelow" 0 0 basechar 0
AnchorPoint: "HamzaAbove" 0 0 basechar 0
AnchorPoint: "DotBelow" 0 0 basechar 0
AnchorPoint: "DotAbove" 0 0 basechar 0
LayerCount: 2
Fore
SplineSet
456 511 m 0,0,1
 468 514 468 514 475 507 c 0,2,3
 555 387 555 387 663 306 c 0,4,5
 785 215 785 215 944 186 c 0,6,7
 969 181 969 181 977.5 134.5 c 128,-1,8
 986 88 986 88 977.5 43.5 c 128,-1,9
 969 -1 969 -1 953 1 c 0,10,11
 790 13 790 13 662 102 c 1,12,13
 659 68 659 68 657.5 53.5 c 128,-1,14
 656 39 656 39 649.5 10 c 128,-1,15
 643 -19 643 -19 630.5 -31.5 c 128,-1,16
 618 -44 618 -44 599 -43 c 0,17,18
 492 -39 492 -39 384 21.5 c 128,-1,19
 276 82 276 82 215 160 c 1,20,21
 208 164 l 0,22,-1
 200 158 l 0,23,24
 102 55 102 55 0 0 c 0,25,26
 -18 -10 -18 -10 -30 33 c 0,27,28
 -51 110 -51 110 -28 164 c 0,29,30
 -20 184 -20 184 -6 185 c 0,31,32
 120 189 120 189 199 236 c 0,33,34
 214 245 214 245 236 282.5 c 128,-1,35
 258 320 258 320 280.5 361 c 128,-1,36
 303 402 303 402 349.5 446 c 128,-1,37
 396 490 396 490 456 511 c 0,0,1
448 360 m 0,38,39
 445 366 445 366 434 364 c 0,40,41
 371 348 371 348 346 313 c 0,42,43
 337 300 337 300 348 290 c 0,44,45
 421 229 421 229 524 197 c 0,46,47
 531 195 531 195 536 199 c 128,-1,48
 541 203 541 203 537 208 c 0,49,50
 493 264 493 264 448 360 c 0,38,39
EndSplineSet
Substitution2: "BaaHaaMeemInit subtable" meem.medi_BaaHaaMeemInit
Substitution2: "KafMeemAlefFina subtable" meem.medi_KafMeemAlefFina
Substitution2: "KafMeemAlefIsol subtable" meem.medi_KafMeemAlefIsol
Substitution2: "BaaBaaMeemInit subtable" meem.medi_BaaBaaMeemInit
Substitution2: "SeenBaaMeemInit subtable" meem.medi_SeenBaaMeemInit
Substitution2: "HaaMeemInit subtable" meem.medi_HaaMeemInit
Substitution2: "LamMeemMedi subtable" meem.medi_LamMeemMedi
Substitution2: "LamMeemHaaInit subtable" meem.medi_LamMeemHaaInit
Substitution2: "SadMeemInit subtable" meem.medi_SadMeemInit
Substitution2: "BaaMeemInit subtable" meem.medi_BaaMeemInit
Substitution2: "MeemHaaMeemInit subtable" meem.medi_MeemHaaMeemInit
Substitution2: "KafMeemLamFina subtable" meem.medi_KafMeemLamFina
Substitution2: "LamHaaMeemInit subtable" meem.medi_LamHaaMeemInit
Substitution2: "LamMeemInit subtable" meem.medi_LamMeemInit
Substitution2: "MeemAlefFina subtable" meem.medi_MeemAlefFina
Substitution2: "BaaMeemHaaInit subtable" meem.medi_BaaMeemHaaInit
Substitution2: "KafLamMeemMedi subtable" meem.medi_KafLamMeemMedi
Substitution2: "LamBaaMeemInit subtable" meem.medi_LamBaaMeemInit
Substitution2: "HehMeemInit subtable" meem.medi_HehMeemInit
Substitution2: "MeemMeemInit subtable" meem.medi_MeemMeemInit
Substitution2: "KafMeemInit subtable" meem.medi_KafMeemInit
Substitution2: "BaaMeemAlefFina subtable" meem.medi_BaaMeemAlefFina
Substitution2: "FaaMeemInit subtable" meem.medi_FaaMeemInit
Substitution2: "KafMeemMedi subtable" meem.medi_KafMeemMedi
Substitution2: "SeenMeemInit subtable" meem.medi_SeenMeemInit
Substitution2: "KafMeemLamInit subtable" meem.medi_KafMeemLamInit
Substitution2: "AynMeemInit subtable" meem.medi_AynMeemInit
Colour: ffff00
EndChar

StartChar: noon.fina.alt
Encoding: 65593 -1 47
Width: 0
VWidth: 0
AnchorPoint: "HamzaBelow" 0 0 basechar 0
AnchorPoint: "HamzaAbove" 0 0 basechar 0
AnchorPoint: "DotBelow" 0 0 basechar 0
AnchorPoint: "DotAbove" 0 0 basechar 0
LayerCount: 2
Fore
SplineSet
1909 660 m 2,0,1
 1917 674 1917 674 1927.5 672 c 128,-1,2
 1938 670 1938 670 1944 659 c 0,3,4
 1946 656 1946 656 1955 639 c 128,-1,5
 1964 622 1964 622 1967 617.5 c 128,-1,6
 1970 613 1970 613 1979 600 c 128,-1,7
 1988 587 1988 587 1994 582 c 128,-1,8
 2000 577 2000 577 2009.5 569 c 128,-1,9
 2019 561 2019 561 2030 557.5 c 128,-1,10
 2041 554 2041 554 2053 552 c 0,11,12
 2085 548 2085 548 2085.5 457.5 c 128,-1,13
 2086 367 2086 367 2054 365 c 0,14,15
 2043 364 2043 364 2020.5 364.5 c 128,-1,16
 1998 365 1998 365 1991 364 c 1,17,18
 1978 295 1978 295 1959 246 c 0,19,20
 1932 175 1932 175 1860 78 c 0,21,22
 1763 -52 1763 -52 1589.5 -149.5 c 128,-1,23
 1416 -247 1416 -247 1208.5 -300 c 128,-1,24
 1001 -353 1001 -353 801.5 -378.5 c 128,-1,25
 602 -404 602 -404 407 -406 c 0,26,27
 -274 -413 -274 -413 -671 -175 c 0,28,29
 -713 -150 -713 -150 -773 -100 c 128,-1,30
 -833 -50 -833 -50 -870 -15 c 128,-1,31
 -907 20 -907 20 -985.5 96.5 c 128,-1,32
 -1064 173 -1064 173 -1078 187 c 0,33,34
 -1090 198 -1090 198 -1089 212 c 128,-1,35
 -1088 226 -1088 226 -1078 230 c 128,-1,36
 -1068 234 -1068 234 -1053 225 c 0,37,38
 -461 -210 -461 -210 444 -202 c 0,39,40
 722 -199 722 -199 1013 -141 c 128,-1,41
 1304 -83 1304 -83 1546 27.5 c 128,-1,42
 1788 138 1788 138 1883 275 c 0,43,44
 1892 288 1892 288 1892 295 c 0,45,46
 1890 390 1890 390 1843 496 c 0,47,48
 1837 510 1837 510 1843 522 c 2,49,-1
 1909 660 l 2,0,1
EndSplineSet
EndChar

StartChar: noon.fina
Encoding: 65594 -1 48
Width: 1132
VWidth: 0
AnchorPoint: "HamzaBelow" 0 0 basechar 0
AnchorPoint: "HamzaAbove" 0 0 basechar 0
AnchorPoint: "DotBelow" 0 0 basechar 0
AnchorPoint: "DotAbove" 0 0 basechar 0
LayerCount: 2
Fore
SplineSet
950 303 m 2,0,1
 963 333 963 333 985 310 c 0,2,3
 998 296 998 296 1046 224 c 1,4,5
 1068 185 1068 185 1129 187 c 0,6,7
 1142 187 1142 187 1149 141.5 c 128,-1,8
 1156 96 1156 96 1151 49.5 c 128,-1,9
 1146 3 1146 3 1129 2 c 2,10,-1
 1068 0 l 1,11,12
 1020 -273 1020 -273 941 -442 c 1,13,14
 873 -553 873 -553 731 -621.5 c 128,-1,15
 589 -690 589 -690 401 -689 c 0,16,17
 209 -688 209 -688 101.5 -584.5 c 128,-1,18
 -6 -481 -6 -481 1 -334 c 0,19,20
 5 -244 5 -244 55 -111 c 128,-1,21
 105 22 105 22 157 101 c 0,22,23
 163 112 163 112 175 112.5 c 128,-1,24
 187 113 187 113 193.5 103.5 c 128,-1,25
 200 94 200 94 193 78 c 0,26,27
 188 67 188 67 166 22 c 128,-1,28
 144 -23 144 -23 133 -49 c 128,-1,29
 122 -75 122 -75 110.5 -116 c 128,-1,30
 99 -157 99 -157 99 -191 c 0,31,32
 99 -305 99 -305 176.5 -384 c 128,-1,33
 254 -463 254 -463 426 -467 c 0,34,35
 592 -470 592 -470 742 -411 c 128,-1,36
 892 -352 892 -352 941 -280 c 1,37,38
 974 -45 974 -45 901 131 c 0,39,40
 900 133 900 133 895 141.5 c 128,-1,41
 890 150 890 150 890 152.5 c 128,-1,42
 890 155 890 155 891 166 c 1,43,-1
 950 303 l 2,0,1
EndSplineSet
Substitution2: "BaaNoonFina subtable" noon.fina_BaaNoonFina
Substitution2: "BaaNoonIsol subtable" noon.fina_BaaNoonIsol
Colour: ffff00
EndChar

StartChar: noon.isol.alt
Encoding: 65595 -1 49
Width: 0
VWidth: 0
AnchorPoint: "HamzaBelow" 0 0 basechar 0
AnchorPoint: "HamzaAbove" 0 0 basechar 0
AnchorPoint: "DotBelow" 0 0 basechar 0
AnchorPoint: "DotAbove" 0 0 basechar 0
LayerCount: 2
Fore
SplineSet
1934 1063 m 0,0,1
 1992 955 1992 955 2014.5 805.5 c 128,-1,2
 2037 656 2037 656 2011 545 c 0,3,4
 1998 489 1998 489 1966 423.5 c 128,-1,5
 1934 358 1934 358 1907 327 c 0,6,7
 1808 214 1808 214 1620.5 129 c 128,-1,8
 1433 44 1433 44 1210 -2 c 128,-1,9
 987 -48 987 -48 767 -69.5 c 128,-1,10
 547 -91 547 -91 340 -89 c 0,11,12
 51 -87 51 -87 -316 -13.5 c 128,-1,13
 -683 60 -683 60 -817 143 c 0,14,15
 -977 242 -977 242 -1255 518 c 0,16,17
 -1275 537 -1275 537 -1263.5 556 c 128,-1,18
 -1252 575 -1252 575 -1228 559 c 0,19,20
 -909 352 -909 352 -465.5 244 c 128,-1,21
 -22 136 -22 136 383 134 c 0,22,23
 615 133 615 133 844.5 154 c 128,-1,24
 1074 175 1074 175 1294.5 220 c 128,-1,25
 1515 265 1515 265 1686 347.5 c 128,-1,26
 1857 430 1857 430 1935 539 c 0,27,28
 1941 547 1941 547 1940 560 c 0,29,30
 1932 686 1932 686 1833 876 c 0,31,32
 1826 889 1826 889 1833 904 c 2,33,-1
 1908 1065 l 2,34,35
 1913 1076 1913 1076 1920.5 1074.5 c 128,-1,36
 1928 1073 1928 1073 1934 1063 c 0,0,1
EndSplineSet
EndChar

StartChar: noon.isol
Encoding: 65596 -1 50
Width: 946
VWidth: 0
AnchorPoint: "HamzaBelow" 0 0 basechar 0
AnchorPoint: "HamzaAbove" 0 0 basechar 0
AnchorPoint: "DotBelow" 0 0 basechar 0
AnchorPoint: "DotAbove" 0 0 basechar 0
LayerCount: 2
Fore
SplineSet
765 667 m 0,0,1
 839 533 839 533 885 339.5 c 128,-1,2
 931 146 931 146 902 -29 c 0,3,4
 887 -123 887 -123 840.5 -196.5 c 128,-1,5
 794 -270 794 -270 727 -313.5 c 128,-1,6
 660 -357 660 -357 584.5 -381 c 128,-1,7
 509 -405 509 -405 426 -411 c 0,8,9
 208 -426 208 -426 96 -322 c 0,10,11
 -9 -224 -9 -224 0.5 -44 c 128,-1,12
 10 136 10 136 127 303 c 0,13,14
 143 325 143 325 158 315 c 0,15,16
 176 302 176 302 154 276 c 0,17,18
 129 247 129 247 107.5 192.5 c 128,-1,19
 86 138 86 138 78.5 67.5 c 128,-1,20
 71 -3 71 -3 102 -64 c 0,21,22
 131 -122 131 -122 219 -166 c 128,-1,23
 307 -210 307 -210 415 -203 c 0,24,25
 711 -186 711 -186 847 -23 c 0,26,27
 850 -19 850 -19 850 -6 c 0,28,29
 852 90 852 90 793 248.5 c 128,-1,30
 734 407 734 407 683 482 c 0,31,32
 669 502 669 502 675 516 c 2,33,-1
 737 669 l 2,34,35
 741 680 741 680 749 680.5 c 128,-1,36
 757 681 757 681 765 667 c 0,0,1
EndSplineSet
Substitution2: "'medi' Medial Forms in Arabic lookup 2 subtable" baa.medi
Substitution2: "'init' Initial Forms in Arabic lookup 1 subtable" baa.init
Substitution2: "'fina' Terminal Forms in Arabic lookup 3 subtable" noon.fina
Colour: ffff00
EndChar

StartChar: qaf.fina
Encoding: 65597 -1 51
Width: 1118
VWidth: 0
AnchorPoint: "HamzaBelow" 0 0 basechar 0
AnchorPoint: "HamzaAbove" 0 0 basechar 0
AnchorPoint: "DotBelow" 0 0 basechar 0
AnchorPoint: "DotAbove" 0 0 basechar 0
LayerCount: 2
Fore
SplineSet
871 442 m 0,0,1
 928 443 928 443 983.5 351.5 c 128,-1,2
 1039 260 1039 260 1043 184 c 1,3,4
 1112 185 1112 185 1117 185 c 0,5,6
 1146 185 1146 185 1157 138.5 c 128,-1,7
 1168 92 1168 92 1156.5 45.5 c 128,-1,8
 1145 -1 1145 -1 1117 -1 c 0,9,10
 1104 -1 1104 -1 1078 -0.5 c 128,-1,11
 1052 0 1052 0 1039 0 c 1,12,13
 1030 -55 1030 -55 1013 -101 c 1,14,15
 992 -192 992 -192 941 -265.5 c 128,-1,16
 890 -339 890 -339 829.5 -384 c 128,-1,17
 769 -429 769 -429 697 -460.5 c 128,-1,18
 625 -492 625 -492 568.5 -505 c 128,-1,19
 512 -518 512 -518 462 -522 c 0,20,21
 264 -537 264 -537 157.5 -471.5 c 128,-1,22
 51 -406 51 -406 20 -299 c 0,23,24
 2 -239 2 -239 3 -176 c 128,-1,25
 4 -113 4 -113 13 -68.5 c 128,-1,26
 22 -24 22 -24 52.5 41.5 c 128,-1,27
 83 107 83 107 100.5 137.5 c 128,-1,28
 118 168 118 168 159 237 c 0,29,30
 168 252 168 252 180 251 c 128,-1,31
 192 250 192 250 196 239 c 128,-1,32
 200 228 200 228 194 215 c 0,33,34
 162 164 162 164 146 135.5 c 128,-1,35
 130 107 130 107 109 56.5 c 128,-1,36
 88 6 88 6 84.5 -32.5 c 128,-1,37
 81 -71 81 -71 91.5 -121.5 c 128,-1,38
 102 -172 102 -172 132 -219 c 0,39,40
 159 -261 159 -261 222 -295.5 c 128,-1,41
 285 -330 285 -330 357 -336 c 0,42,43
 563 -353 563 -353 731 -287 c 128,-1,44
 899 -221 899 -221 967 -87 c 1,45,46
 977 -59 977 -59 959 1 c 1,47,48
 881 1 881 1 815.5 17 c 128,-1,49
 750 33 750 33 721 58 c 0,50,51
 648 122 648 122 753 303 c 0,52,53
 835 441 835 441 871 442 c 0,0,1
893 210 m 0,54,55
 885 233 885 233 865 249.5 c 128,-1,56
 845 266 845 266 818 263 c 0,57,58
 808 262 808 262 800 254.5 c 128,-1,59
 792 247 792 247 797 235 c 0,60,61
 816 189 816 189 884 195 c 0,62,63
 899 197 899 197 893 210 c 0,54,55
EndSplineSet
Substitution2: "LamQafFina subtable" qaf.fina_LamQafFina
Colour: ffff00
EndChar

StartChar: qaf.isol
Encoding: 65598 -1 52
Width: 1187
VWidth: 0
AnchorPoint: "HamzaBelow" 0 0 basechar 0
AnchorPoint: "HamzaAbove" 0 0 basechar 0
AnchorPoint: "DotBelow" 0 0 basechar 0
AnchorPoint: "DotAbove" 0 0 basechar 0
LayerCount: 2
Fore
SplineSet
916 734 m 0,0,1
 954 734 954 734 1002 676 c 128,-1,2
 1050 618 1050 618 1088.5 524.5 c 128,-1,3
 1127 431 1127 431 1145 314 c 128,-1,4
 1163 197 1163 197 1140 80 c 0,5,6
 1100 -120 1100 -120 919.5 -253 c 128,-1,7
 739 -386 739 -386 499 -405 c 0,8,9
 431 -410 431 -410 360 -400 c 128,-1,10
 289 -390 289 -390 218.5 -358 c 128,-1,11
 148 -326 148 -326 96.5 -276 c 128,-1,12
 45 -226 45 -226 20 -144.5 c 128,-1,13
 -5 -63 -5 -63 12 39 c 0,14,15
 47 261 47 261 202 486 c 0,16,17
 211 498 211 498 224.5 496 c 128,-1,18
 238 494 238 494 243 483 c 128,-1,19
 248 472 248 472 240 456 c 0,20,21
 105 260 105 260 101 125 c 0,22,23
 97 -8 97 -8 194.5 -100.5 c 128,-1,24
 292 -193 292 -193 501 -191 c 0,25,26
 616 -190 616 -190 753.5 -135 c 128,-1,27
 891 -80 891 -80 988 0.5 c 128,-1,28
 1085 81 1085 81 1094 150 c 0,29,30
 1099 183 1099 183 1079.5 230 c 128,-1,31
 1060 277 1060 277 1042 285 c 1,32,33
 1003 231 1003 231 923.5 203 c 128,-1,34
 844 175 844 175 783 198 c 0,35,36
 613 262 613 262 703 486 c 0,37,38
 802 733 802 733 916 734 c 0,0,1
847 503 m 0,39,40
 815 503 815 503 788 461 c 1,41,42
 815 431 815 431 855 428.5 c 128,-1,43
 895 426 895 426 925 454 c 1,44,45
 881 503 881 503 847 503 c 0,39,40
EndSplineSet
Substitution2: "'medi' Medial Forms in Arabic lookup 2 subtable" faa.medi
Substitution2: "'init' Initial Forms in Arabic lookup 1 subtable" faa.init
Substitution2: "'fina' Terminal Forms in Arabic lookup 3 subtable" qaf.fina
Colour: ffff00
EndChar

StartChar: question-mark
Encoding: 65599 -1 53
Width: 0
VWidth: 0
AnchorPoint: "HamzaBelow" 0 0 basechar 0
AnchorPoint: "HamzaAbove" 0 0 basechar 0
AnchorPoint: "DotBelow" 0 0 basechar 0
AnchorPoint: "DotAbove" 0 0 basechar 0
LayerCount: 2
Fore
SplineSet
71 874 m 1,0,1
 104 909 104 909 161 906.5 c 128,-1,2
 218 904 218 904 249 862 c 0,3,4
 271 831 271 831 271.5 787 c 128,-1,5
 272 743 272 743 241 704 c 1,6,7
 204 663 204 663 148 662 c 0,8,9
 65 661 65 661 25 751 c 0,10,11
 10 784 10 784 5 852.5 c 128,-1,12
 0 921 0 921 15 975 c 1,13,14
 51 1084 51 1084 123 1130 c 0,15,16
 205 1181 205 1181 319 1177 c 0,17,18
 393 1174 393 1174 466 1132 c 0,19,20
 532 1094 532 1094 584 1026 c 0,21,22
 705 865 705 865 636 673 c 0,23,24
 613 608 613 608 551.5 541.5 c 128,-1,25
 490 475 490 475 427 419 c 128,-1,26
 364 363 364 363 346 336 c 0,27,28
 328 307 328 307 327.5 232.5 c 128,-1,29
 327 158 327 158 349 64 c 0,30,31
 353 49 353 49 348.5 41.5 c 128,-1,32
 344 34 344 34 336.5 36 c 128,-1,33
 329 38 329 38 323 49 c 0,34,35
 275 139 275 139 289 323.5 c 128,-1,36
 303 508 303 508 371 673 c 0,37,38
 381 698 381 698 418 769.5 c 128,-1,39
 455 841 455 841 470 891 c 128,-1,40
 485 941 485 941 478 990 c 0,41,42
 469 1064 469 1064 421.5 1101.5 c 128,-1,43
 374 1139 374 1139 314 1145 c 0,44,45
 225 1154 225 1154 149 1113 c 0,46,47
 93 1083 93 1083 65.5 1005.5 c 128,-1,48
 38 928 38 928 71 874 c 1,0,1
486 -133 m 128,-1,50
 486 -188 486 -188 447.5 -226.5 c 128,-1,51
 409 -265 409 -265 354 -265 c 128,-1,52
 299 -265 299 -265 260 -226.5 c 128,-1,53
 221 -188 221 -188 221 -133 c 128,-1,54
 221 -78 221 -78 260 -39 c 128,-1,55
 299 0 299 0 354 0 c 128,-1,56
 409 0 409 0 447.5 -39 c 128,-1,49
 486 -78 486 -78 486 -133 c 128,-1,50
EndSplineSet
EndChar

StartChar: raa.fina.alt2
Encoding: 65601 -1 54
Width: 0
VWidth: 0
AnchorPoint: "HamzaBelow" 0 0 basechar 0
AnchorPoint: "HamzaAbove" 0 0 basechar 0
AnchorPoint: "DotBelow" 0 0 basechar 0
AnchorPoint: "DotAbove" 0 0 basechar 0
LayerCount: 2
Fore
SplineSet
943 473 m 0,0,1
 970 487 970 487 979 437 c 0,2,3
 994 360 994 360 965 295 c 0,4,5
 956 275 956 275 944 269 c 0,6,7
 868 233 868 233 818 198 c 0,8,9
 747 149 747 149 664.5 57 c 128,-1,10
 582 -35 582 -35 520 -125 c 0,11,12
 506 -145 506 -145 481 -185 c 0,13,14
 464 -211 464 -211 455 -224 c 128,-1,15
 446 -237 446 -237 429.5 -260.5 c 128,-1,16
 413 -284 413 -284 403 -296 c 128,-1,17
 393 -308 393 -308 377 -327 c 128,-1,18
 361 -346 361 -346 348.5 -355 c 128,-1,19
 336 -364 336 -364 319.5 -376.5 c 128,-1,20
 303 -389 303 -389 287.5 -394.5 c 128,-1,21
 272 -400 272 -400 254 -404.5 c 128,-1,22
 236 -409 236 -409 216.5 -408.5 c 128,-1,23
 197 -408 197 -408 177 -404 c 0,24,25
 88 -386 88 -386 39 -311.5 c 128,-1,26
 -10 -237 -10 -237 1 -115 c 0,27,28
 15 38 15 38 130 252 c 0,29,30
 138 267 138 267 150 269.5 c 128,-1,31
 162 272 162 272 166.5 262.5 c 128,-1,32
 171 253 171 253 166 238 c 0,33,34
 165 235 165 235 134.5 173.5 c 128,-1,35
 104 112 104 112 87 66.5 c 128,-1,36
 70 21 70 21 66 -21 c 0,37,38
 59 -84 59 -84 86.5 -139 c 128,-1,39
 114 -194 114 -194 181 -214 c 0,40,41
 270 -240 270 -240 329 -200.5 c 128,-1,42
 388 -161 388 -161 442 -68 c 1,43,44
 504 45 504 45 600.5 176 c 128,-1,45
 697 307 697 307 770 364 c 0,46,47
 850 425 850 425 943 473 c 0,0,1
EndSplineSet
EndChar

StartChar: raa.fina
Encoding: 65602 -1 55
Width: 651
VWidth: -122
AnchorPoint: "HamzaBelow" 0 0 basechar 0
AnchorPoint: "HamzaAbove" 0 0 basechar 0
AnchorPoint: "DotBelow" 0 0 basechar 0
AnchorPoint: "DotAbove" 0 0 basechar 0
LayerCount: 2
Fore
SplineSet
417 128 m 2,0,1
 480 291 l 2,2,3
 486 306 486 306 494 309 c 128,-1,4
 502 312 502 312 507 303 c 0,5,6
 513 294 513 294 526.5 272.5 c 128,-1,7
 540 251 540 251 544 246 c 128,-1,8
 548 241 548 241 558 226.5 c 128,-1,9
 568 212 568 212 573 209.5 c 128,-1,10
 578 207 578 207 587.5 199 c 128,-1,11
 597 191 597 191 605 189.5 c 128,-1,12
 613 188 613 188 624.5 186 c 128,-1,13
 636 184 636 184 650 184 c 0,14,15
 667 184 667 184 683 161 c 128,-1,16
 699 138 699 138 699 93 c 0,17,18
 699 47 699 47 684.5 24.5 c 128,-1,19
 670 2 670 2 650 0 c 0,20,21
 637 -0.5 l 0,22,23
 624 -1 624 -1 607.5 -1.5 c 128,-1,24
 591 -2 591 -2 582 -2 c 0,25,26
 574 -2 574 -2 573 -12 c 0,27,28
 567 -211 567 -211 428 -391 c 0,29,30
 301 -556 301 -556 177 -570 c 0,31,32
 71 -582 71 -582 -18 -561.5 c 128,-1,33
 -107 -541 -107 -541 -206 -486 c 0,34,35
 -220 -479 -220 -479 -223.5 -468 c 128,-1,36
 -227 -457 -227 -457 -219.5 -450.5 c 128,-1,37
 -212 -444 -212 -444 -199 -448 c 0,38,39
 -69 -480 -69 -480 35.5 -460 c 128,-1,40
 140 -440 140 -440 253 -366 c 0,41,42
 345 -303 345 -303 417.5 -221 c 128,-1,43
 490 -139 490 -139 508 -56 c 1,44,45
 513 -8 513 -8 424 83 c 0,46,47
 406 100 406 100 417 128 c 2,0,1
EndSplineSet
Substitution2: "SeenYaaFina subtable" raa.fina_PostTooth
Substitution2: "BaaSeenAltInit subtable" raa.fina_PostTooth
Substitution2: "LamRaaIsol subtable" raa.fina_LamRaaIsol
Substitution2: "HaaRaaIsol subtable" raa.fina_HaaRaaIsol
Substitution2: "KafRaaIsol subtable" raa.fina_KafRaaIsol
Substitution2: "KafRaaFina subtable" raa.fina_KafRaaFina
Substitution2: "BaaRaaFina subtable" raa.fina_BaaRaaFina
Substitution2: "MeemRaaIsol subtable" raa.fina_MeemRaaIsol
Substitution2: "BaaRaaIsol subtable" raa.fina_BaaRaaIsol
Colour: ffff00
EndChar

StartChar: raa.isol
Encoding: 65603 -1 56
Width: 692
VWidth: 0
AnchorPoint: "HamzaBelow" 0 0 basechar 0
AnchorPoint: "HamzaAbove" 0 0 basechar 0
AnchorPoint: "DotBelow" 0 0 basechar 0
AnchorPoint: "DotAbove" 0 0 basechar 0
LayerCount: 2
Fore
SplineSet
460 631 m 2,0,1
 463 642 463 642 472.5 642.5 c 128,-1,2
 482 643 482 643 485 638 c 0,3,4
 575 545 575 545 615 406 c 128,-1,5
 655 267 655 267 643 131 c 0,6,7
 636 61 636 61 596.5 -31.5 c 128,-1,8
 557 -124 557 -124 507 -190 c 0,9,10
 446 -269 446 -269 356.5 -326 c 128,-1,11
 267 -383 267 -383 189 -402 c 1,12,13
 134 -413 134 -413 91 -400 c 0,14,15
 7 -375 7 -375 -88.5 -336.5 c 128,-1,16
 -184 -298 -184 -298 -206 -283 c 0,17,18
 -214 -278 -214 -278 -214.5 -270 c 128,-1,19
 -215 -262 -215 -262 -207.5 -256 c 128,-1,20
 -200 -250 -200 -250 -191 -253 c 0,21,22
 -51 -296 -51 -296 43 -284 c 0,23,24
 153 -270 153 -270 285 -185 c 0,25,26
 370 -130 370 -130 450 -49.5 c 128,-1,27
 530 31 530 31 570 110 c 0,28,29
 579 127 579 127 574 142 c 0,30,31
 529 274 529 274 414 411 c 0,32,33
 408 419 408 419 409 426 c 2,34,-1
 460 631 l 2,0,1
EndSplineSet
Substitution2: "'fina' Terminal Forms in Arabic lookup 3 subtable" raa.fina
Colour: ffff00
EndChar

StartChar: sad.fina
Encoding: 65604 -1 57
Width: 2314
VWidth: 0
AnchorPoint: "HamzaBelow" 0 0 basechar 0
AnchorPoint: "HamzaAbove" 0 0 basechar 0
AnchorPoint: "DotBelow" 0 0 basechar 0
AnchorPoint: "DotAbove" 0 0 basechar 0
LayerCount: 2
Back
SplineSet
2006.37 720.697 m 0,0,1
 2083.46 721.899 2083.46 721.899 2141.41 663.516 c 0,2,3
 2199.36 605.131 2199.36 605.131 2230.05 522.801 c 0,2,3
 2235.25 504.828 2235.25 504.828 2233.34 488.928 c 0,4,5
 2227.04 436.92 2227.04 436.92 2185.17 363.81 c 0,6,7
 2143.29 290.699 2143.29 290.699 2112.59 256.631 c 0,6,7
 2087.71 228.993 2087.71 228.993 2036.69 194.462 c 0,8,9
 1985.67 159.932 1985.67 159.932 1940.73 139.086 c 1,8,9
 2008.26 131.278 2008.26 131.278 2125.86 147.909 c 0,10,11
 2243.45 164.54 2243.45 164.54 2314.38 184.62 c 0,10,11
 2340.44 191.997 2340.44 191.997 2350.63 148.518 c 0,12,13
 2366.79 79.5645 2366.79 79.5645 2338.73 23.7725 c 0,14,15
 2328.17 2.78223 2328.17 2.78223 2313.73 0 c 0,12,13
 2211.18 -21.0068 2211.18 -21.0068 2085.53 -12.292 c 0,14,15
 1959.88 -3.57812 1959.88 -3.57812 1856.57 16.9512 c 0,16,17
 1753.25 37.4795 1753.25 37.4795 1675.73 64.6963 c 1,14,15
 1635.02 59.4873 1635.02 59.4873 1593.81 56.3438 c 0,16,17
 1364.37 38.8418 1364.37 38.8418 1157.65 86.9678 c 1,18,19
 1114.35 -247.174 1114.35 -247.174 1038.73 -335.067 c 0,20,21
 970.177 -414.851 970.177 -414.851 846.503 -471.715 c 0,22,23
 722.829 -528.579 722.829 -528.579 632.319 -547.924 c 0,24,25
 541.81 -567.269 541.81 -567.269 493.199 -567.229 c 0,22,23
 348.688 -565.481 348.688 -565.481 274.155 -541.646 c 0,24,25
 199.623 -517.809 199.623 -517.809 127.508 -440.25 c 0,24,25
 63.8027 -371.738 63.8027 -371.738 39.4785 -283.85 c 0,26,27
 15.1543 -195.962 15.1543 -195.962 24.9189 -115.71 c 0,28,29
 34.6846 -35.459 34.6846 -35.459 63.1719 44.2773 c 0,30,31
 91.6592 124.013 91.6592 124.013 124.213 179.104 c 0,32,33
 156.766 234.195 156.766 234.195 187.382 268.878 c 0,26,27
 203.604 287.257 203.604 287.257 216.372 285.361 c 0,28,29
 229.139 283.467 229.139 283.467 229.329 269.329 c 0,30,31
 229.519 255.191 229.519 255.191 220.388 241.681 c 0,28,29
 96.7334 91.7158 96.7334 91.7158 98.792 -44.0244 c 0,30,31
 100.661 -167.142 100.661 -167.142 198.156 -262.966 c 0,32,33
 295.651 -358.79 295.651 -358.79 471.89 -366.349 c 0,32,33
 537.858 -369.151 537.858 -369.151 626.195 -354.258 c 0,34,35
 714.532 -339.363 714.532 -339.363 807.512 -308.665 c 0,36,37
 900.491 -277.967 900.491 -277.967 977.541 -221.053 c 0,38,39
 1054.59 -164.138 1054.59 -164.138 1083.4 -92.7637 c 0,34,35
 1088.16 -81.6221 1088.16 -81.6221 1086.15 -63.5459 c 0,36,37
 1056.87 133.317 1056.87 133.317 981.883 238.44 c 0,38,39
 965.579 261.289 965.579 261.289 970.744 274.76 c 2,40,-1
 1035.22 443.12 l 1,41,42
 1044.92 462.261 1044.92 462.261 1054.74 461.061 c 0,43,44
 1064.57 459.86 1064.57 459.86 1071.68 447.711 c 2,43,-1
 1147.11 318.884 l 1,44,45
 1208.91 280.376 1208.91 280.376 1369.9 265.998 c 1,46,47
 1520.39 434.464 1520.39 434.464 1713.2 578.027 c 0,48,49
 1906.01 721.592 1906.01 721.592 2006.37 720.697 c 0,0,1
1896.93 478.796 m 0,48,49
 1849.93 478.442 1849.93 478.442 1807.05 471.293 c 0,50,51
 1764.16 464.145 1764.16 464.145 1724.61 446.609 c 0,52,53
 1685.05 429.074 1685.05 429.074 1658.37 416.801 c 0,54,55
 1631.7 404.526 1631.7 404.526 1595.96 375.796 c 0,56,57
 1560.23 347.066 1560.23 347.066 1547.54 336.86 c 0,58,59
 1534.86 326.655 1534.86 326.655 1500.73 293.925 c 0,60,61
 1466.6 261.193 1466.6 261.193 1464.29 259.043 c 1,50,51
 1605.76 253.965 1605.76 253.965 1789.4 290.568 c 0,52,53
 1973.03 327.173 1973.03 327.173 2049.74 397.384 c 1,52,53
 1982.24 479.438 1982.24 479.438 1896.93 478.796 c 0,48,49
EndSplineSet
Fore
SplineSet
2006 721 m 0,0,1
 2083 722 2083 722 2141 663.5 c 128,-1,2
 2199 605 2199 605 2230 523 c 0,3,4
 2235 505 2235 505 2233 489 c 0,5,6
 2227 437 2227 437 2185 364 c 128,-1,7
 2143 291 2143 291 2113 257 c 0,8,9
 2062 201 2062 201 1974 160 c 1,10,11
 2051 152 2051 152 2152.5 160 c 128,-1,12
 2254 168 2254 168 2314 185 c 0,13,14
 2340 192 2340 192 2351 149 c 0,15,16
 2367 80 2367 80 2339 24 c 0,17,18
 2328 3 2328 3 2314 0 c 0,19,20
 2211 -21 2211 -21 2085.5 -12.5 c 128,-1,21
 1960 -4 1960 -4 1856.5 16.5 c 128,-1,22
 1753 37 1753 37 1676 65 c 1,23,24
 1635 60 1635 60 1594 56 c 0,25,26
 1365 38 1365 38 1158 87 c 1,27,28
 1115 -247 1115 -247 1039 -335 c 0,29,30
 970 -415 970 -415 846.5 -472 c 128,-1,31
 723 -529 723 -529 632.5 -548 c 128,-1,32
 542 -567 542 -567 493 -567 c 0,33,34
 348 -565 348 -565 274 -541.5 c 128,-1,35
 200 -518 200 -518 128 -440 c 0,36,37
 64 -371 64 -371 39.5 -283.5 c 128,-1,38
 15 -196 15 -196 25 -115.5 c 128,-1,39
 35 -35 35 -35 63.5 44.5 c 128,-1,40
 92 124 92 124 124.5 179 c 128,-1,41
 157 234 157 234 187 269 c 0,42,43
 203 287 203 287 216 285 c 128,-1,44
 229 283 229 283 229.5 269 c 128,-1,45
 230 255 230 255 220 242 c 0,46,47
 96 92 96 92 99 -44 c 0,48,49
 101 -167 101 -167 198.5 -263 c 128,-1,50
 296 -359 296 -359 472 -366 c 0,51,52
 538 -369 538 -369 626.5 -354 c 128,-1,53
 715 -339 715 -339 807.5 -308.5 c 128,-1,54
 900 -278 900 -278 977.5 -221 c 128,-1,55
 1055 -164 1055 -164 1083 -93 c 0,56,57
 1088 -82 1088 -82 1086 -64 c 0,58,59
 1057 133 1057 133 982 238 c 0,60,61
 966 261 966 261 971 275 c 2,62,-1
 1035 443 l 1,63,64
 1045 462 1045 462 1055 461 c 128,-1,65
 1065 460 1065 460 1072 448 c 2,66,-1
 1147 319 l 1,67,68
 1209 280 1209 280 1370 266 c 1,69,70
 1520 434 1520 434 1713 578 c 128,-1,71
 1906 722 1906 722 2006 721 c 0,0,1
1897 479 m 0,72,73
 1850 479 1850 479 1807 471.5 c 128,-1,74
 1764 464 1764 464 1724.5 446.5 c 128,-1,75
 1685 429 1685 429 1658.5 417 c 128,-1,76
 1632 405 1632 405 1596 376 c 128,-1,77
 1560 347 1560 347 1547.5 337 c 128,-1,78
 1535 327 1535 327 1501 294 c 128,-1,79
 1467 261 1467 261 1464 259 c 1,80,81
 1605 254 1605 254 1789 290.5 c 128,-1,82
 1973 327 1973 327 2050 397 c 1,83,84
 1982 480 1982 480 1897 479 c 0,72,73
EndSplineSet
Colour: ffff00
EndChar

StartChar: sad.init
Encoding: 65606 -1 58
Width: 1361
VWidth: 0
AnchorPoint: "HamzaBelow" 0 0 basechar 0
AnchorPoint: "HamzaAbove" 0 0 basechar 0
AnchorPoint: "DotBelow" 0 0 basechar 0
AnchorPoint: "DotAbove" 0 0 basechar 0
LayerCount: 2
Fore
SplineSet
1072 584 m 0,0,1
 1134 581 1134 581 1223.5 515.5 c 128,-1,2
 1313 450 1313 450 1299 374 c 0,3,4
 1288 312 1288 312 1236 218.5 c 128,-1,5
 1184 125 1184 125 1160 105 c 0,6,7
 1070 33 1070 33 932 -1 c 128,-1,8
 794 -35 794 -35 667 -32.5 c 128,-1,9
 540 -30 540 -30 441 -2 c 1,10,11
 430 -16 430 -16 412 -72 c 128,-1,12
 394 -128 394 -128 385 -169 c 1,13,14
 370 -197 370 -197 339.5 -186 c 128,-1,15
 309 -175 309 -175 316 -143 c 1,16,17
 323 -79 323 -79 367 26 c 1,18,19
 260 72 260 72 199 145 c 0,20,21
 177 172 177 172 166.5 171 c 128,-1,22
 156 170 156 170 140 143 c 0,23,24
 110 90 110 90 71 50.5 c 128,-1,25
 32 11 32 11 0 0 c 0,26,27
 -11 -4 -11 -4 -23 23 c 0,28,29
 -54 90 -54 90 -36 149 c 0,30,31
 -26 180 -26 180 -1 186 c 0,32,33
 105 212 105 212 178 342 c 0,34,35
 193 370 193 370 222 369.5 c 128,-1,36
 251 369 251 369 270 337 c 0,37,38
 297 292 297 292 353 252 c 128,-1,39
 409 212 409 212 487 191 c 1,40,41
 567 280 567 280 659 363 c 128,-1,42
 751 446 751 446 870.5 517 c 128,-1,43
 990 588 990 588 1072 584 c 0,0,1
1161 272 m 0,44,45
 1113 325 1113 325 1039 349.5 c 128,-1,46
 965 374 965 374 899 367 c 0,47,48
 841 361 841 361 727 286.5 c 128,-1,49
 613 212 613 212 572 170 c 1,50,51
 690 152 690 152 903.5 176 c 128,-1,52
 1117 200 1117 200 1160 252 c 1,53,54
 1172 260 1172 260 1161 272 c 0,44,45
EndSplineSet
Substitution2: "SeenYaaFina subtable" sad.init_PreYaa
Substitution2: "SadHaaInit subtable" sad.init_SadHaaInit
Substitution2: "SadMeemInit subtable" sad.init_SadMeemInit
Substitution2: "SadHaaIsol subtable" sad.init_SadHaaIsol
Colour: ffff00
EndChar

StartChar: sad.isol
Encoding: 65607 -1 59
Width: 2283
VWidth: 0
AnchorPoint: "HamzaBelow" 0 0 basechar 0
AnchorPoint: "HamzaAbove" 0 0 basechar 0
AnchorPoint: "DotBelow" 0 0 basechar 0
AnchorPoint: "DotAbove" 0 0 basechar 0
LayerCount: 2
Fore
SplineSet
1994 615 m 1,0,1
 2071 617 2071 617 2129.5 565 c 128,-1,2
 2188 513 2188 513 2217 435 c 0,3,4
 2222 417 2222 417 2221 401 c 0,5,6
 2215 348 2215 348 2178 275 c 128,-1,7
 2141 202 2141 202 2114 172 c 0,8,9
 2042 92 2042 92 1891.5 41.5 c 128,-1,10
 1741 -9 1741 -9 1564 -24 c 0,11,12
 1337 -43 1337 -43 1150 0 c 1,13,14
 1111 -315 1111 -315 1019 -424 c 0,15,16
 951 -504 951 -504 828.5 -561 c 128,-1,17
 706 -618 706 -618 616 -637.5 c 128,-1,18
 526 -657 526 -657 478 -658 c 0,19,20
 332 -657 332 -657 253 -634.5 c 128,-1,21
 174 -612 174 -612 99 -540 c 0,22,23
 35 -478 35 -478 12 -386.5 c 128,-1,24
 -11 -295 -11 -295 1.5 -205 c 128,-1,25
 14 -115 14 -115 45.5 -23.5 c 128,-1,26
 77 68 77 68 113 134 c 128,-1,27
 149 200 149 200 181 240 c 0,28,29
 191 252 191 252 203.5 249.5 c 128,-1,30
 216 247 216 247 219.5 235.5 c 128,-1,31
 223 224 223 224 216 211 c 0,32,33
 184 168 184 168 159 107 c 128,-1,34
 134 46 134 46 119 -26 c 128,-1,35
 104 -98 104 -98 114.5 -169.5 c 128,-1,36
 125 -241 125 -241 158 -301 c 128,-1,37
 191 -361 191 -361 267.5 -402 c 128,-1,38
 344 -443 344 -443 456 -450 c 0,39,40
 509 -454 509 -454 591.5 -442 c 128,-1,41
 674 -430 674 -430 770.5 -403 c 128,-1,42
 867 -376 867 -376 949 -318 c 128,-1,43
 1031 -260 1031 -260 1062 -183 c 0,44,45
 1067 -172 1067 -172 1064 -154 c 0,46,47
 1034 41 1034 41 959 145 c 0,48,49
 943 168 943 168 948 181 c 2,50,-1
 1011 349 l 1,51,52
 1021 368 1021 368 1030.5 367 c 128,-1,53
 1040 366 1040 366 1047 354 c 2,54,-1
 1123 226 l 1,55,56
 1195 182 1195 182 1353 176 c 1,57,58
 1531 356 1531 356 1712.5 485.5 c 128,-1,59
 1894 615 1894 615 1994 615 c 1,0,1
1888 398 m 0,60,61
 1852 397 1852 397 1814 387 c 0,62,63
 1683 353 1683 353 1450 175 c 1,64,65
 1881 150 1881 150 2096 312 c 1,66,67
 2000 400 2000 400 1888 398 c 0,60,61
EndSplineSet
Substitution2: "'fina' Terminal Forms in Arabic lookup 3 subtable" sad.fina
Substitution2: "'medi' Medial Forms in Arabic lookup 2 subtable" sad.medi
Substitution2: "'init' Initial Forms in Arabic lookup 1 subtable" sad.init
Colour: ffff00
EndChar

StartChar: sad.medi
Encoding: 65608 -1 60
Width: 1482
VWidth: 0
AnchorPoint: "HamzaBelow" 0 0 basechar 0
AnchorPoint: "HamzaAbove" 0 0 basechar 0
AnchorPoint: "DotBelow" 0 0 basechar 0
AnchorPoint: "DotAbove" 0 0 basechar 0
LayerCount: 2
Back
SplineSet
1098.4 679.772 m 1,0,-1
 1179.54 696.767 1179.54 696.767 1271.54 640.556 c 0,1,2
 1363.55 584.345 1363.55 584.345 1381.67 508.601 c 1,3,4
 1351.85 369.497 1351.85 369.497 1295.69 281.334 c 0,5,6
 1279.07 255.245 1279.07 255.245 1252.67 230.988 c 0,7,8
 1226.26 206.731 1226.26 206.731 1182.86 174.694 c 0,9,10
 1139.46 142.657 1139.46 142.657 1127.54 132.96 c 1,7,8
 1172.2 134.054 1172.2 134.054 1222.51 139.941 c 0,9,10
 1272.83 145.828 1272.83 145.828 1304.39 151.351 c 0,11,12
 1335.94 156.872 1335.94 156.872 1395.82 168.573 c 0,13,14
 1455.7 180.273 1455.7 180.273 1479.48 184.608 c 0,9,10
 1506.87 189.603 1506.87 189.603 1518.14 146.097 c 0,11,12
 1535.88 77.5918 1535.88 77.5918 1508.91 21.7402 c 0,13,14
 1498.12 -0.605469 1498.12 -0.605469 1483.05 -0.862305 c 0,11,12
 1146.21 -6.60938 1146.21 -6.60938 958.779 9.81836 c 1,13,14
 857.355 -5.375 857.355 -5.375 721.217 -2.68359 c 0,15,16
 585.077 0.00878906 585.077 0.00878906 480.226 21.7256 c 1,15,16
 447.775 -69.5049 447.775 -69.5049 439.376 -124.654 c 0,17,18
 435.31 -151.352 435.31 -151.352 414.873 -161.822 c 0,19,20
 394.437 -172.293 394.437 -172.293 377.31 -158.969 c 0,21,22
 360.183 -145.645 360.183 -145.645 364.202 -114.39 c 0,19,20
 371.235 -59.7041 371.235 -59.7041 407.863 45.6943 c 1,21,22
 344.113 64.2109 344.113 64.2109 301.91 94.0234 c 0,23,24
 259.707 123.836 259.707 123.836 219.169 176.734 c 1,23,24
 205.017 170.314 205.017 170.314 173.859 134.073 c 0,25,26
 142.703 97.832 142.703 97.832 97.168 57.918 c 0,27,28
 51.6338 18.0049 51.6338 18.0049 0 0 c 0,25,26
 -22.3047 -7.77832 -22.3047 -7.77832 -34.916 34.4014 c 0,27,28
 -56.3594 106.114 -56.3594 106.114 -31.6768 160.526 c 0,29,30
 -20.7363 184.644 -20.7363 184.644 -2.24414 183.578 c 0,27,28
 33.0879 181.542 33.0879 181.542 69.7432 198.473 c 0,29,30
 106.399 215.403 106.399 215.403 128.838 235.102 c 0,31,32
 151.275 254.801 151.275 254.801 180.486 284.249 c 0,33,34
 209.696 313.697 209.696 313.697 218.648 321.198 c 0,29,30
 241.818 335.975 241.818 335.975 251.959 332.377 c 0,31,32
 262.101 328.778 262.101 328.778 283.199 305.459 c 0,31,32
 376.617 202.199 376.617 202.199 506.753 191.522 c 1,33,34
 624.566 369.577 624.566 369.577 803.31 510.951 c 0,35,36
 982.054 652.324 982.054 652.324 1098.4 679.772 c 1,0,-1
1226.25 393.507 m 0,35,36
 1144.08 470.859 1144.08 470.859 1030.31 464.794 c 0,37,38
 937.578 458.676 937.578 458.676 803.412 369.604 c 0,39,40
 669.245 280.531 669.245 280.531 600.838 179.512 c 1,39,40
 781.522 173.692 781.522 173.692 971.127 241.292 c 0,41,42
 1160.73 308.892 1160.73 308.892 1227.24 370.963 c 0,41,42
 1230.59 374.473 1230.59 374.473 1229.91 382.794 c 0,43,44
 1229.23 391.114 1229.23 391.114 1226.25 393.507 c 0,35,36
EndSplineSet
Fore
SplineSet
1098 680 m 1,0,1
 1179 697 1179 697 1271.5 640.5 c 128,-1,2
 1364 584 1364 584 1382 509 c 1,3,4
 1352 370 1352 370 1296 281 c 0,5,6
 1244 199 1244 199 1151 150 c 1,7,8
 1308 154 1308 154 1479 185 c 0,9,10
 1506 190 1506 190 1518 148 c 0,11,12
 1535 82 1535 82 1508 24 c 0,13,14
 1497 1 1497 1 1483 -1 c 0,15,16
 1256 -42 1256 -42 959 10 c 1,17,18
 858 -5 858 -5 721.5 -2.5 c 128,-1,19
 585 0 585 0 480 22 c 1,20,21
 448 -69 448 -69 439 -125 c 0,22,23
 435 -152 435 -152 414.5 -162 c 128,-1,24
 394 -172 394 -172 377 -159 c 128,-1,25
 360 -146 360 -146 364 -114 c 0,26,27
 371 -59 371 -59 408 46 c 1,28,29
 344 65 344 65 302 94.5 c 128,-1,30
 260 124 260 124 219 177 c 1,31,32
 205 171 205 171 174 134.5 c 128,-1,33
 143 98 143 98 97.5 58 c 128,-1,34
 52 18 52 18 0 0 c 0,35,36
 -22 -8 -22 -8 -35 34 c 0,37,38
 -56 106 -56 106 -32 161 c 0,39,40
 -21 185 -21 185 -2 184 c 0,41,42
 33 182 33 182 69.5 198.5 c 128,-1,43
 106 215 106 215 128.5 235 c 128,-1,44
 151 255 151 255 180.5 284.5 c 128,-1,45
 210 314 210 314 219 321 c 0,46,47
 242 336 242 336 252 332.5 c 128,-1,48
 262 329 262 329 283 305 c 0,49,50
 376 202 376 202 507 192 c 1,51,52
 625 370 625 370 803.5 511.5 c 128,-1,53
 982 653 982 653 1098 680 c 1,0,1
1226 394 m 0,54,55
 1144 471 1144 471 1030 465 c 0,56,57
 937 459 937 459 803 370 c 128,-1,58
 669 281 669 281 601 180 c 1,59,60
 782 174 782 174 971.5 241.5 c 128,-1,61
 1161 309 1161 309 1227 371 c 0,62,63
 1230 375 1230 375 1229.5 383.5 c 128,-1,64
 1229 392 1229 392 1226 394 c 0,54,55
EndSplineSet
Substitution2: "SeenYaaFina subtable" sad.medi_PreYaa
Colour: ffff00
EndChar

StartChar: seen.fina
Encoding: 65609 -1 61
Width: 2052
VWidth: 0
AnchorPoint: "HamzaBelow" 0 0 basechar 0
AnchorPoint: "HamzaAbove" 0 0 basechar 0
AnchorPoint: "DotBelow" 0 0 basechar 0
AnchorPoint: "DotAbove" 0 0 basechar 0
LayerCount: 2
Fore
SplineSet
1797 374 m 0,0,1
 1805 399 1805 399 1823.5 405.5 c 128,-1,2
 1842 412 1842 412 1860 389 c 0,3,4
 1863 384 1863 384 1870 374 c 0,5,6
 1902 326 1902 326 1920.5 299 c 128,-1,7
 1939 272 1939 272 1974.5 236.5 c 128,-1,8
 2010 201 2010 201 2046 184 c 0,9,10
 2101 157 2101 157 2093 69 c 0,11,12
 2086 1 2086 1 2053 -1 c 0,13,14
 2049 -1 2049 -1 2045 -0 c 0,15,16
 2004 12 2004 12 1970 34.5 c 128,-1,17
 1936 57 1936 57 1912.5 88 c 128,-1,18
 1889 119 1889 119 1875.5 141 c 128,-1,19
 1862 163 1862 163 1847.5 195 c 128,-1,20
 1833 227 1833 227 1831 231 c 0,21,22
 1828 236 1828 236 1821.5 236 c 128,-1,23
 1815 236 1815 236 1813 230 c 0,24,25
 1770 79 1770 79 1740.5 23 c 128,-1,26
 1711 -33 1711 -33 1662 -34 c 0,27,28
 1541 -36 1541 -36 1440 58 c 1,29,30
 1331 -62 1331 -62 1150 -40 c 1,31,32
 1143 -251 1143 -251 1085 -387 c 1,33,-1
 1084 -387 l 1,34,35
 1044 -481 1044 -481 964 -541 c 0,36,37
 733 -716 733 -716 445 -716 c 0,38,39
 325 -716 325 -716 247 -683.5 c 128,-1,40
 169 -651 169 -651 97 -581 c 0,41,42
 32 -518 32 -518 10.5 -427.5 c 128,-1,43
 -11 -337 -11 -337 8 -238.5 c 128,-1,44
 27 -140 27 -140 61 -50 c 128,-1,45
 95 40 95 40 145 129 c 0,46,47
 152 142 152 142 164.5 143 c 128,-1,48
 177 144 177 144 183.5 134.5 c 128,-1,49
 190 125 190 125 184 111 c 0,50,51
 178 98 178 98 165 71.5 c 128,-1,52
 152 45 152 45 145 30 c 128,-1,53
 138 15 138 15 125.5 -13 c 128,-1,54
 113 -41 113 -41 107.5 -57 c 128,-1,55
 102 -73 102 -73 92.5 -100.5 c 128,-1,56
 83 -128 83 -128 82 -143 c 128,-1,57
 81 -158 81 -158 77.5 -184 c 128,-1,58
 74 -210 74 -210 80 -223 c 1,59,60
 101 -336 101 -336 204 -411.5 c 128,-1,61
 307 -487 307 -487 465 -498 c 1,62,63
 632 -503 632 -503 801 -439 c 128,-1,64
 970 -375 970 -375 1060 -244 c 1,65,66
 1103 -89 1103 -89 986 96 c 0,67,68
 982 102 982 102 979.5 116.5 c 128,-1,69
 977 131 977 131 978 136 c 2,70,-1
 1027 306 l 2,71,72
 1032 323 1032 323 1042 324.5 c 128,-1,73
 1052 326 1052 326 1058 317 c 0,74,75
 1080 289 1080 289 1110 202 c 0,76,77
 1130 145 1130 145 1275 156 c 0,78,79
 1333 160 1333 160 1374 176 c 128,-1,80
 1415 192 1415 192 1440.5 222.5 c 128,-1,81
 1466 253 1466 253 1479.5 279.5 c 128,-1,82
 1493 306 1493 306 1510 354 c 0,83,84
 1517 373 1517 373 1531.5 376 c 128,-1,85
 1546 379 1546 379 1557 367.5 c 128,-1,86
 1568 356 1568 356 1564 340 c 0,87,88
 1563 334 1563 334 1555.5 313.5 c 128,-1,89
 1548 293 1548 293 1545 280 c 128,-1,90
 1542 267 1542 267 1546 251 c 128,-1,91
 1550 235 1550 235 1565 226 c 0,92,93
 1658 169 1658 169 1730 202 c 0,94,95
 1737 205 1737 205 1745 219 c 128,-1,96
 1753 233 1753 233 1761 255 c 128,-1,97
 1769 277 1769 277 1774.5 296 c 128,-1,98
 1780 315 1780 315 1787 340.5 c 128,-1,99
 1794 366 1794 366 1797 374 c 0,0,1
EndSplineSet
Colour: ffff00
EndChar

StartChar: seen.init
Encoding: 65611 -1 62
Width: 1073
VWidth: 0
AnchorPoint: "HamzaBelow" 0 0 basechar 0
AnchorPoint: "HamzaAbove" 0 0 basechar 0
AnchorPoint: "DotBelow" 0 0 basechar 0
AnchorPoint: "DotAbove" 0 0 basechar 0
LayerCount: 2
Fore
SplineSet
994 584 m 0,0,1
 1002 596 1002 596 1011 579 c 0,2,3
 1030 548 1030 548 1034 474.5 c 128,-1,4
 1038 401 1038 401 1019.5 314 c 128,-1,5
 1001 227 1001 227 960 176 c 1,6,7
 945 151 945 151 913 146 c 0,8,9
 867 139 867 139 786.5 165 c 128,-1,10
 706 191 706 191 658 249 c 1,11,12
 630 176 630 176 577 121 c 128,-1,13
 524 66 524 66 457 46 c 0,14,15
 391 27 391 27 320 63 c 128,-1,16
 249 99 249 99 204 153 c 1,17,18
 98 23 98 23 0 0 c 0,19,20
 -24 -6 -24 -6 -38 58 c 0,21,22
 -59 152 -59 152 -23 189 c 0,23,24
 -13 199 -13 199 0 201 c 0,25,26
 103 213 103 213 176 258 c 128,-1,27
 249 303 249 303 307 392 c 0,28,29
 316 403 316 403 324 402 c 128,-1,30
 332 401 332 401 337.5 393.5 c 128,-1,31
 343 386 343 386 341 380 c 0,32,33
 319 324 319 324 308 304 c 1,34,35
 346 235 346 235 474 240 c 0,36,37
 497 241 497 241 518 246.5 c 128,-1,38
 539 252 539 252 555.5 259 c 128,-1,39
 572 266 572 266 588 281 c 128,-1,40
 604 296 604 296 615 306 c 128,-1,41
 626 316 626 316 638.5 337.5 c 128,-1,42
 651 359 651 359 657.5 370 c 128,-1,43
 664 381 664 381 675 407.5 c 128,-1,44
 686 434 686 434 689.5 443.5 c 128,-1,45
 693 453 693 453 703.5 482 c 128,-1,46
 714 511 714 511 716 517 c 0,47,48
 720 528 720 528 730 529.5 c 128,-1,49
 740 531 740 531 747 522.5 c 128,-1,50
 754 514 754 514 752 502 c 0,51,52
 750 489 750 489 742.5 462 c 128,-1,53
 735 435 735 435 731 415 c 1,54,55
 776 368 776 368 856.5 346.5 c 128,-1,56
 937 325 937 325 952 351 c 0,57,58
 959 365 959 365 952.5 405 c 128,-1,59
 946 445 946 445 934 472 c 0,60,61
 931 479 931 479 938 492 c 0,62,63
 957 525 957 525 994 584 c 0,0,1
EndSplineSet
MultipleSubs2: "HehMediTooth subtable" seen.init_PreYaa baa.medi_BaaHehMedi
Substitution2: "SeenYaaFina subtable" seen.init_PreYaa
Substitution2: "SeenBaaMeemInit subtable" seen.init_SeenBaaMeemInit
Substitution2: "SeenHaaInit subtable" seen.init_SeenHaaInit
Substitution2: "SeenHaaIsol subtable" seen.init_SeenHaaIsol
Substitution2: "SeenMeemInit subtable" seen.init_SeenMeemInit
Colour: ffff00
EndChar

StartChar: seen.isol
Encoding: 65612 -1 63
Width: 1816
VWidth: 0
AnchorPoint: "HamzaBelow" 0 0 basechar 0
AnchorPoint: "HamzaAbove" 0 0 basechar 0
AnchorPoint: "DotBelow" 0 0 basechar 0
AnchorPoint: "DotAbove" 0 0 basechar 0
LayerCount: 2
Fore
SplineSet
1704 807 m 2,0,1
 1709 827 1709 827 1725 827.5 c 128,-1,2
 1741 828 1741 828 1751 811 c 0,3,4
 1778 766 1778 766 1778 672 c 128,-1,5
 1778 578 1778 578 1754 515 c 0,6,7
 1723 431 1723 431 1706.5 404.5 c 128,-1,8
 1690 378 1690 378 1656 367 c 0,9,10
 1617 354 1617 354 1544 375.5 c 128,-1,11
 1471 397 1471 397 1434 425 c 1,12,13
 1381 339 1381 339 1324.5 307.5 c 128,-1,14
 1268 276 1268 276 1169 285 c 1,15,16
 1159 109 1159 109 1117.5 -15.5 c 128,-1,17
 1076 -140 1076 -140 965 -232 c 1,18,19
 734 -407 734 -407 447 -408 c 0,20,21
 327 -408 327 -408 249 -375.5 c 128,-1,22
 171 -343 171 -343 99 -272 c 0,23,24
 35 -209 35 -209 15 -114.5 c 128,-1,25
 -5 -20 -5 -20 16 81.5 c 128,-1,26
 37 183 37 183 70 271 c 128,-1,27
 103 359 103 359 147 437 c 0,28,29
 154 450 154 450 167 451 c 128,-1,30
 180 452 180 452 185.5 443 c 128,-1,31
 191 434 191 434 185 419 c 0,32,33
 63 185 63 185 81 85 c 0,34,35
 102 -29 102 -29 205.5 -105.5 c 128,-1,36
 309 -182 309 -182 467 -190 c 0,37,38
 634 -198 634 -198 806 -131 c 128,-1,39
 978 -64 978 -64 1067 73 c 0,40,41
 1090 108 1090 108 1061 243.5 c 128,-1,42
 1032 379 1032 379 993 439 c 0,43,44
 980 459 980 459 988 473 c 0,45,46
 1021 544 1021 544 1061 611 c 0,47,48
 1069 623 1069 623 1081 613 c 0,49,50
 1090 605 1090 605 1123.5 548 c 128,-1,51
 1157 491 1157 491 1174 487 c 0,52,53
 1219 477 1219 477 1279.5 492 c 128,-1,54
 1340 507 1340 507 1386 551 c 0,55,56
 1400 565 1400 565 1410 579 c 128,-1,57
 1420 593 1420 593 1429 616.5 c 128,-1,58
 1438 640 1438 640 1441 649 c 128,-1,59
 1444 658 1444 658 1452.5 694 c 128,-1,60
 1461 730 1461 730 1463 738 c 0,61,62
 1467 755 1467 755 1479 760 c 128,-1,63
 1491 765 1491 765 1500.5 758.5 c 128,-1,64
 1510 752 1510 752 1511 742 c 0,65,66
 1513 700 1513 700 1503 641 c 1,67,68
 1535 614 1535 614 1592.5 598 c 128,-1,69
 1650 582 1650 582 1685 591 c 1,70,71
 1686 620 1686 620 1670 641 c 0,72,73
 1664 648 1664 648 1667 659 c 2,74,-1
 1704 807 l 2,0,1
EndSplineSet
Substitution2: "'fina' Terminal Forms in Arabic lookup 3 subtable" seen.fina
Substitution2: "'medi' Medial Forms in Arabic lookup 2 subtable" seen.medi
Substitution2: "'init' Initial Forms in Arabic lookup 1 subtable" seen.init
Colour: ffff00
EndChar

StartChar: seen.medi
Encoding: 65614 -1 64
Width: 1056
VWidth: 0
AnchorPoint: "HamzaBelow" 0 0 basechar 0
AnchorPoint: "HamzaAbove" 0 0 basechar 0
AnchorPoint: "DotBelow" 0 0 basechar 0
AnchorPoint: "DotAbove" 0 0 basechar 0
LayerCount: 2
Fore
SplineSet
1059 2 m 0,0,1
 1024 13 1024 13 983.5 52 c 128,-1,2
 943 91 943 91 919 153 c 0,3,4
 914 166 914 166 908.5 169.5 c 128,-1,5
 903 173 903 173 899.5 169.5 c 128,-1,6
 896 166 896 166 895 159 c 0,7,8
 886 105 886 105 855 47.5 c 128,-1,9
 824 -10 824 -10 801 -23 c 0,10,11
 760 -43 760 -43 674 -13.5 c 128,-1,12
 588 16 588 16 561 78 c 1,13,14
 487 -39 487 -39 348 -37 c 0,15,16
 275 -36 275 -36 234.5 7.5 c 128,-1,17
 194 51 194 51 177 104 c 0,18,19
 176 107 176 107 172.5 107.5 c 128,-1,20
 169 108 169 108 167 105 c 0,21,22
 125 59 125 59 89.5 35.5 c 128,-1,23
 54 12 54 12 0 0 c 0,24,25
 -24 -5 -24 -5 -36 35 c 0,26,27
 -57 103 -57 103 -32 160 c 0,28,29
 -21 186 -21 186 -4 183 c 0,30,31
 25 178 25 178 69 183 c 128,-1,32
 113 188 113 188 182 223 c 128,-1,33
 251 258 251 258 297 322 c 0,34,35
 314 345 314 345 337 329 c 0,36,37
 347 321 347 321 342 312 c 0,38,39
 316 268 316 268 325 229 c 0,40,41
 331 202 331 202 357 181 c 128,-1,42
 383 160 383 160 413 161 c 0,43,44
 486 163 486 163 552 210 c 128,-1,45
 618 257 618 257 656 341 c 0,46,47
 663 356 663 356 675.5 357 c 128,-1,48
 688 358 688 358 696.5 348 c 128,-1,49
 705 338 705 338 700 325 c 0,50,51
 682 277 682 277 679 258 c 0,52,53
 676 240 676 240 682 233 c 0,54,55
 704 209 704 209 741.5 195.5 c 128,-1,56
 779 182 779 182 808 182 c 0,57,58
 832 182 832 182 844 202 c 0,59,60
 857 223 857 223 878.5 275 c 0,61,62
 900 326 900 326 903 334 c 0,63,64
 912 352 912 352 925.5 348.5 c 128,-1,65
 939 345 939 345 943 326 c 0,66,67
 957 270 957 270 987 229.5 c 128,-1,68
 1017 189 1017 189 1054 185 c 0,69,70
 1102 179 1102 179 1096 84 c 0,71,72
 1091 7 1091 7 1064 1 c 0,73,74
 1062 1 1062 1 1059 2 c 0,0,1
EndSplineSet
MultipleSubs2: "HehMediTooth subtable" seen.medi_PreYaa baa.medi_BaaHehMedi
Substitution2: "SeenYaaFina subtable" seen.medi_PreYaa
Substitution2: "BaaSeenAltInit subtable" seen.medi_BaaSeenAltInit
Substitution2: "BaaSeenInit subtable" seen.medi_BaaSeenInit
Colour: ffff00
EndChar

StartChar: taa.fina
Encoding: 65615 -1 65
Width: 1415
VWidth: 0
AnchorPoint: "HamzaBelow" 0 0 basechar 0
AnchorPoint: "HamzaAbove" 0 0 basechar 0
AnchorPoint: "DotBelow" 0 0 basechar 0
AnchorPoint: "DotAbove" 0 0 basechar 0
LayerCount: 2
Fore
SplineSet
530 1569 m 0,0,1
 536 1580 536 1580 547 1579.5 c 128,-1,2
 558 1579 558 1579 564 1569 c 0,3,4
 571 1556 571 1556 584.5 1521.5 c 128,-1,5
 598 1487 598 1487 613.5 1460.5 c 128,-1,6
 629 1434 629 1434 654 1409 c 0,7,8
 659 1403 659 1403 661 1391.5 c 128,-1,9
 663 1380 663 1380 654 1364 c 1,10,-1
 615 1312 l 2,11,12
 604 1297 604 1297 605 1274 c 0,13,14
 652 750 652 750 645 627 c 0,15,16
 641 559 641 559 606 384 c 1,17,18
 801 550 801 550 1002 643 c 0,19,20
 1101 689 1101 689 1173 674 c 0,21,22
 1210 666 1210 666 1251 622 c 128,-1,23
 1292 578 1292 578 1315 526 c 0,24,25
 1325 503 1325 503 1318 466 c 0,26,27
 1295 345 1295 345 1225 257 c 0,28,29
 1175 194 1175 194 1044 127 c 1,30,31
 1154 132 1154 132 1415 184 c 0,32,33
 1445 190 1445 190 1453 146 c 0,34,35
 1467 78 1467 78 1438 22 c 0,36,37
 1427 1 1427 1 1414 0 c 0,38,39
 1158 -16 1158 -16 854 17 c 1,40,41
 766 3 766 3 575 -6 c 128,-1,42
 384 -15 384 -15 199 -5 c 0,43,44
 190 -4 190 -4 176 4 c 0,45,46
 127 32 127 32 77.5 86 c 128,-1,47
 28 140 28 140 6 187 c 0,48,49
 2 194 2 194 4 200 c 128,-1,50
 6 206 6 206 16 204 c 0,51,52
 102 187 102 187 252 187 c 128,-1,53
 402 187 402 187 424 196 c 1,54,55
 442 213 442 213 490.5 267.5 c 128,-1,56
 539 322 539 322 561 345 c 1,57,58
 564 404 564 404 564.5 472 c 128,-1,59
 565 540 565 540 564 592 c 128,-1,60
 563 644 563 644 557 726.5 c 128,-1,61
 551 809 551 809 548.5 849 c 128,-1,62
 546 889 546 889 535.5 984.5 c 128,-1,63
 525 1080 525 1080 522 1106 c 128,-1,64
 519 1132 519 1132 506.5 1238.5 c 128,-1,65
 494 1345 494 1345 493 1357 c 0,66,67
 489 1392 489 1392 486 1404 c 0,68,69
 478 1448 478 1448 480 1454 c 0,70,71
 506 1523 506 1523 530 1569 c 0,0,1
994 463 m 0,72,73
 984 463 984 463 968 461 c 0,74,75
 892 450 892 450 810 407.5 c 128,-1,76
 728 365 728 365 681.5 329 c 128,-1,77
 635 293 635 293 556 225 c 0,78,79
 541 212 541 212 533 205 c 1,80,81
 915 231 915 231 1173 343 c 1,82,83
 1151 385 1151 385 1105 424 c 128,-1,84
 1059 463 1059 463 994 463 c 0,72,73
EndSplineSet
Colour: ffff00
EndChar

StartChar: taa.init
Encoding: 65616 -1 66
Width: 1093
VWidth: 0
AnchorPoint: "HamzaBelow" 0 0 basechar 0
AnchorPoint: "HamzaAbove" 0 0 basechar 0
AnchorPoint: "DotBelow" 0 0 basechar 0
AnchorPoint: "DotAbove" 0 0 basechar 0
LayerCount: 2
Fore
SplineSet
256 1451 m 4,0,1
 264 1462 264 1462 273 1459.5 c 128,-1,2
 282 1457 282 1457 287 1444 c 0,3,4
 290 1437 290 1437 301 1411.5 c 128,-1,5
 312 1386 312 1386 317.5 1375 c 128,-1,6
 323 1364 323 1364 333 1344.5 c 128,-1,7
 343 1325 343 1325 353.5 1311 c 128,-1,8
 364 1297 364 1297 375 1285 c 0,9,10
 392 1267 392 1267 374 1244 c 2,11,-1
 333 1192 l 2,12,13
 321 1178 321 1178 323 1148 c 0,14,15
 350 739 350 739 350 696 c 0,16,17
 350 491 350 491 324 368 c 1,18,19
 623 609 623 609 769 648 c 0,20,21
 845 669 845 669 893 651 c 0,22,23
 969 622 969 622 1027 511 c 0,24,25
 1039 488 1039 488 1029 453 c 0,26,27
 990 314 990 314 924 219 c 1,28,29
 903 184 903 184 840 153 c 128,-1,30
 777 122 777 122 722 109 c 0,31,32
 347 22 347 22 0 0 c 0,33,34
 -21 -1 -21 -1 -35.5 45 c 128,-1,35
 -50 91 -50 91 -42.5 138 c 128,-1,36
 -35 185 -35 185 -1 187 c 0,37,38
 86 191 86 191 135 196 c 1,39,-1
 250 307 l 1,40,41
 254 323 254 323 258.5 384 c 128,-1,42
 263 445 263 445 262 466 c 0,43,44
 259 638 259 638 243.5 891 c 128,-1,45
 228 1144 228 1144 213 1244 c 0,46,47
 209 1276 209 1276 204 1303 c 0,48,49
 199 1328 199 1328 203 1339 c 0,50,51
 228 1406 228 1406 256 1451 c 4,0,1
696 462 m 4,52,53
 674 462 674 462 653 456 c 0,54,55
 557 428 557 428 444.5 353.5 c 128,-1,56
 332 279 332 279 261 204 c 1,57,58
 653 237 653 237 891 322 c 0,59,60
 903 326 903 326 897 336 c 0,61,62
 862 388 862 388 807 424.5 c 128,-1,63
 752 461 752 461 696 462 c 4,52,53
EndSplineSet
Colour: ffff00
EndChar

StartChar: taa.isol
Encoding: 65617 -1 67
Width: 1441
VWidth: 0
AnchorPoint: "HamzaBelow" 0 0 basechar 0
AnchorPoint: "HamzaAbove" 0 0 basechar 0
AnchorPoint: "DotBelow" 0 0 basechar 0
AnchorPoint: "DotAbove" 0 0 basechar 0
LayerCount: 2
Fore
SplineSet
546 1322 m 0,0,1
 553 1331 553 1331 562.5 1330 c 128,-1,2
 572 1329 572 1329 579 1319 c 0,3,4
 585 1306 585 1306 594.5 1281.5 c 128,-1,5
 604 1257 604 1257 611 1241.5 c 128,-1,6
 618 1226 618 1226 633.5 1203 c 128,-1,7
 649 1180 649 1180 670 1158 c 0,8,9
 675 1154 675 1154 676 1141 c 128,-1,10
 677 1128 677 1128 670 1116 c 0,11,12
 664 1107 664 1107 651.5 1091 c 128,-1,13
 639 1075 639 1075 631 1065 c 0,14,15
 619 1047 619 1047 621 1030 c 0,16,17
 667 535 667 535 660 417 c 0,18,19
 650 233 650 233 639 181 c 1,20,-1
 688 219 l 1,21,22
 879 370 879 370 991.5 426 c 128,-1,23
 1104 482 1104 482 1186 492 c 0,24,25
 1228 497 1228 497 1281 464 c 0,26,27
 1392 392 1392 392 1399 329 c 0,28,29
 1406 270 1406 270 1352 165 c 128,-1,30
 1298 60 1298 60 1263 24 c 0,31,32
 1211 -30 1211 -30 930 -116.5 c 128,-1,33
 649 -203 649 -203 342 -217 c 1,34,35
 228 -198 228 -198 149.5 -142.5 c 128,-1,36
 71 -87 71 -87 45 -34 c 0,37,38
 35 -16 35 -16 37 -7.5 c 128,-1,39
 39 1 39 1 43.5 3 c 128,-1,40
 48 5 48 5 56 4 c 0,41,42
 204 -17 204 -17 446 0 c 1,43,44
 574 125 574 125 581 132 c 1,45,46
 584 188 584 188 584.5 250.5 c 128,-1,47
 585 313 585 313 583 369 c 128,-1,48
 581 425 581 425 576 495 c 128,-1,49
 571 565 571 565 566 617 c 128,-1,50
 561 669 561 669 552.5 744 c 128,-1,51
 544 819 544 819 538.5 864.5 c 128,-1,52
 533 910 533 910 523.5 987 c 128,-1,53
 514 1064 514 1064 509 1102 c 0,54,55
 502 1160 502 1160 496 1185 c 0,56,57
 492 1200 492 1200 499 1217 c 0,58,59
 533 1300 533 1300 546 1322 c 0,0,1
1077 281 m 0,60,61
 1007 280 1007 280 938 258 c 128,-1,62
 869 236 869 236 800.5 192.5 c 128,-1,63
 732 149 732 149 684 111.5 c 128,-1,64
 636 74 636 74 566 14 c 1,65,66
 734 30 734 30 922 76.5 c 128,-1,67
 1110 123 1110 123 1240 194 c 1,68,69
 1195 283 1195 283 1077 281 c 0,60,61
EndSplineSet
Substitution2: "'fina' Terminal Forms in Arabic lookup 3 subtable" taa.fina
Substitution2: "'medi' Medial Forms in Arabic lookup 2 subtable" taa.medi
Substitution2: "'init' Initial Forms in Arabic lookup 1 subtable" taa.init
Colour: ffff00
EndChar

StartChar: taa.medi
Encoding: 65618 -1 68
Width: 1132
VWidth: 0
AnchorPoint: "HamzaBelow" 0 0 basechar 0
AnchorPoint: "HamzaAbove" 0 0 basechar 0
AnchorPoint: "DotBelow" 0 0 basechar 0
AnchorPoint: "DotAbove" 0 0 basechar 0
LayerCount: 2
Back
SplineSet
119.396 1382.54 m 0,0,1
 139.242 1435.09 139.242 1435.09 169.026 1494.29 c 0,2,3
 174.979 1505.98 174.979 1505.98 186.319 1504.53 c 0,4,5
 197.66 1503.08 197.66 1503.08 203.288 1490.17 c 0,4,5
 207.965 1479.45 207.965 1479.45 218.902 1452.07 c 0,6,7
 229.84 1424.69 229.84 1424.69 235.842 1412.12 c 0,8,9
 241.844 1399.55 241.844 1399.55 255.919 1378.32 c 0,10,11
 269.994 1357.1 269.994 1357.1 288.592 1337.8 c 0,6,7
 313.731 1311.71 313.731 1311.71 289.297 1283.8 c 0,8,9
 276.456 1269.13 276.456 1269.13 254.073 1239.13 c 0,10,11
 244.131 1225.8 244.131 1225.8 247.214 1193.4 c 0,12,13
 248.019 1184.94 248.019 1184.94 258.12 1090.78 c 0,14,15
 268.223 996.621 268.223 996.621 275.286 923.063 c 0,16,17
 282.35 849.505 282.35 849.505 287.582 754.422 c 0,18,19
 292.815 659.339 292.815 659.339 289.704 604.866 c 0,14,15
 281.137 453.39 281.137 453.39 260.348 359.237 c 1,16,17
 341.225 423.605 341.225 423.605 388.92 459.915 c 0,18,19
 436.616 496.225 436.616 496.225 512.45 545.224 c 0,20,21
 588.284 594.223 588.284 594.223 650.416 621.355 c 0,18,19
 755.81 667.381 755.81 667.381 831.965 652.241 c 0,20,21
 871.06 644.465 871.06 644.465 914.456 600.459 c 0,22,23
 957.854 556.452 957.854 556.452 982.549 505.076 c 0,22,23
 993.358 482.575 993.358 482.575 985.694 445.153 c 0,24,25
 960.973 324.481 960.973 324.481 886.547 237.205 c 0,26,27
 834.639 176.334 834.639 176.334 719.475 109.782 c 1,28,29
 813.46 109.627 813.46 109.627 889.42 119.044 c 0,30,31
 965.38 128.461 965.38 128.461 1129.14 159.358 c 0,30,31
 1157.26 164.664 1157.26 164.664 1167.33 121.65 c 0,32,33
 1183.05 54.4277 1183.05 54.4277 1154.61 -2.74121 c 0,34,35
 1143.46 -25.1602 1143.46 -25.1602 1129.02 -26.1064 c 0,32,33
 898.738 -41.1924 898.738 -41.1924 514.479 -1.69043 c 1,34,35
 425.346 -10.5996 425.346 -10.5996 257.013 -9.04199 c 0,36,37
 88.6797 -7.4834 88.6797 -7.4834 0 -0 c 0,36,37
 -31.1914 2.63281 -31.1914 2.63281 -49.4785 48.7266 c 0,38,39
 -67.7646 94.8213 -67.7646 94.8213 -55.5342 139.992 c 0,40,41
 -43.3037 185.162 -43.3037 185.162 0.0615234 185.284 c 0,38,39
 6.64551 185.303 6.64551 185.303 46.2158 184.537 c 0,40,41
 85.7871 183.771 85.7871 183.771 92.5342 183.8 c 1,40,41
 207.602 303.691 l 1,42,43
 212.319 448.746 212.319 448.746 200.091 633.664 c 0,44,45
 187.863 818.582 187.863 818.582 176.162 919.884 c 0,46,47
 164.46 1021.19 164.46 1021.19 135.23 1254.56 c 0,44,45
 125.206 1334.62 125.206 1334.62 120.888 1350.97 c 0,46,47
 115.366 1371.87 115.366 1371.87 119.396 1382.54 c 0,0,1
639.207 447.216 m 0,48,49
 625.475 447.301 625.475 447.301 612.012 445.063 c 0,50,51
 519.71 429.728 519.71 429.728 402.755 352.803 c 0,52,53
 285.8 275.879 285.8 275.879 188.258 182.412 c 1,52,53
 557.179 193.943 557.179 193.943 835.771 326.853 c 1,54,55
 813.362 366.699 813.362 366.699 760.955 406.748 c 0,56,57
 708.548 446.797 708.548 446.797 639.207 447.216 c 0,48,49
EndSplineSet
Fore
SplineSet
119 1383 m 0,0,1
 139 1436 139 1436 169 1494 c 0,2,3
 175 1506 175 1506 186.5 1504.5 c 128,-1,4
 198 1503 198 1503 203 1490 c 0,5,6
 208 1479 208 1479 219 1452 c 128,-1,7
 230 1425 230 1425 236 1412.5 c 128,-1,8
 242 1400 242 1400 256 1378.5 c 128,-1,9
 270 1357 270 1357 289 1338 c 0,10,11
 314 1312 314 1312 289 1284 c 0,12,13
 276 1269 276 1269 254 1239 c 0,14,15
 244 1226 244 1226 247 1193 c 0,16,17
 248 1185 248 1185 258 1091 c 128,-1,18
 268 997 268 997 275 923.5 c 128,-1,19
 282 850 282 850 287.5 754.5 c 128,-1,20
 293 659 293 659 290 605 c 0,21,22
 286 536 286 536 252 365 c 1,23,24
 331 431 331 431 378 468.5 c 128,-1,25
 425 506 425 506 500 556.5 c 128,-1,26
 575 607 575 607 636 636 c 0,27,28
 740 684 740 684 817 671 c 0,29,30
 856 664 856 664 900.5 621 c 128,-1,31
 945 578 945 578 971 527 c 0,32,33
 982 505 982 505 975 467 c 0,34,35
 953 346 953 346 881 257 c 0,36,37
 830 195 830 195 717 126 c 1,38,39
 811 128 811 128 886.5 139 c 128,-1,40
 962 150 962 150 1125 185 c 0,41,42
 1154 191 1154 191 1165 145 c 0,43,44
 1181 76 1181 76 1153 21 c 0,45,46
 1143 0 1143 0 1129 -1 c 0,47,48
 899 -21 899 -21 514 10 c 1,49,50
 441 -1 441 -1 257 -3.5 c 128,-1,51
 73 -6 73 -6 0 0 c 0,52,53
 -31 2 -31 2 -50.5 47.5 c 128,-1,54
 -70 93 -70 93 -58.5 138.5 c 128,-1,55
 -47 184 -47 184 -4 185 c 0,56,57
 3 185 3 185 42.5 185.5 c 128,-1,58
 82 186 82 186 88 186 c 1,59,-1
 201 308 l 1,60,61
 205 701 205 701 135 1255 c 0,62,63
 125 1335 125 1335 121 1351 c 0,64,65
 115 1372 115 1372 119 1383 c 0,0,1
629 462 m 0,66,67
 615 462 615 462 602 459 c 0,68,69
 510 442 510 442 394.5 362 c 128,-1,70
 279 282 279 282 184 187 c 1,71,72
 553 207 553 207 828 346 c 1,73,74
 805 385 805 385 751.5 424 c 128,-1,75
 698 463 698 463 629 462 c 0,66,67
EndSplineSet
Colour: ffff00
EndChar

StartChar: waw.fina
Encoding: 65619 -1 69
Width: 888
VWidth: 0
AnchorPoint: "HamzaBelow" 0 0 basechar 0
AnchorPoint: "HamzaAbove" 0 0 basechar 0
AnchorPoint: "DotBelow" 0 0 basechar 0
AnchorPoint: "DotAbove" 0 0 basechar 0
LayerCount: 2
Fore
SplineSet
696 470 m 1,0,-1
 696 470 l 2,1,2
 699 470 699 470 702 470 c 0,3,4
 755 467 755 467 797 383.5 c 128,-1,5
 839 300 839 300 852 189 c 0,6,7
 852 188 l 1,8,9
 857 189 857 189 868 188.5 c 128,-1,10
 879 188 879 188 884 188 c 0,11,12
 914 189 914 189 920 142.5 c 128,-1,13
 926 96 926 96 913 48.5 c 128,-1,14
 900 1 900 1 883 1 c 0,15,16
 847 0 847 0 843 -0 c 1,17,18
 840 -12 840 -12 838 -22 c 0,19,20
 802 -151 802 -151 743 -253.5 c 128,-1,21
 684 -356 684 -356 625 -414.5 c 128,-1,22
 566 -473 566 -473 499.5 -513 c 128,-1,23
 433 -553 433 -553 386.5 -568 c 128,-1,24
 340 -583 340 -583 301 -587 c 0,25,26
 283 -589 283 -589 262.5 -586 c 128,-1,27
 242 -583 242 -583 217 -572 c 128,-1,28
 192 -561 192 -561 175 -554 c 128,-1,29
 158 -547 158 -547 128 -528.5 c 128,-1,30
 98 -510 98 -510 88.5 -504 c 128,-1,31
 79 -498 79 -498 47.5 -476.5 c 128,-1,32
 16 -455 16 -455 15 -455 c 0,33,34
 0 -445 0 -445 -1 -435.5 c 128,-1,35
 -2 -426 -2 -426 7.5 -424 c 128,-1,36
 17 -422 17 -422 27 -427 c 0,37,38
 161 -488 161 -488 310 -439.5 c 128,-1,39
 459 -391 459 -391 592 -271 c 128,-1,40
 725 -151 725 -151 791 -10 c 0,41,42
 793 -7 793 -7 791.5 -3.5 c 128,-1,43
 790 0 790 0 785 0 c 0,44,45
 614 0 614 0 539 45 c 0,46,47
 501 68 501 68 490 127 c 128,-1,48
 479 186 479 186 507 272 c 1,49,50
 536 353 536 353 591.5 411 c 128,-1,51
 647 469 647 469 696 470 c 1,0,-1
739 212 m 0,52,53
 723 249 723 249 698 272 c 128,-1,54
 673 295 673 295 642 297.5 c 128,-1,55
 611 300 611 300 579 265 c 0,56,57
 572 257 572 257 584 241 c 0,58,59
 615 200 615 200 729 196 c 0,60,61
 734 196 734 196 738 200 c 128,-1,62
 742 204 742 204 739 212 c 0,52,53
EndSplineSet
Substitution2: "LamWawFina subtable" waw.fina_LamWawFina
Colour: ffff00
EndChar

StartChar: waw.isol
Encoding: 65620 -1 70
Width: 897
VWidth: 0
AnchorPoint: "HamzaBelow" 0 0 basechar 0
AnchorPoint: "HamzaAbove" 0 0 basechar 0
AnchorPoint: "DotBelow" 0 0 basechar 0
AnchorPoint: "DotAbove" 0 0 basechar 0
LayerCount: 2
Fore
SplineSet
517 444 m 0,0,1
 534 487 534 487 547.5 516 c 128,-1,2
 561 545 561 545 581.5 576.5 c 128,-1,3
 602 608 602 608 628 624 c 128,-1,4
 654 640 654 640 685 640 c 0,5,6
 743 640 743 640 794 558.5 c 128,-1,7
 845 477 845 477 860 370 c 0,8,9
 873 273 873 273 833 115 c 0,10,11
 782 -89 782 -89 647.5 -242 c 128,-1,12
 513 -395 513 -395 423 -406 c 0,13,14
 350 -414 350 -414 216 -391.5 c 128,-1,15
 82 -369 82 -369 20 -343 c 0,16,17
 -2 -334 -2 -334 1 -319 c 128,-1,18
 4 -304 4 -304 27 -307 c 0,19,20
 188 -327 188 -327 331 -294 c 0,21,22
 418 -274 418 -274 581.5 -130.5 c 128,-1,23
 745 13 745 13 776 110 c 1,24,25
 766 194 766 194 751 203 c 1,26,27
 677 89 677 89 555 143 c 0,28,29
 511 163 511 163 494.5 214 c 128,-1,30
 478 265 478 265 485.5 323.5 c 128,-1,31
 493 382 493 382 517 444 c 0,0,1
639 417 m 0,32,33
 608 418 608 418 575 376 c 1,34,35
 593 352 593 352 617 345.5 c 128,-1,36
 641 339 641 339 662 346 c 128,-1,37
 683 353 683 353 702 367 c 1,38,39
 672 416 672 416 639 417 c 0,32,33
EndSplineSet
Substitution2: "'fina' Terminal Forms in Arabic lookup 3 subtable" waw.fina
Colour: ffff00
EndChar

StartChar: yaa.fina
Encoding: 65622 -1 71
Width: 1077
VWidth: -290
AnchorPoint: "HamzaBelow" 0 0 basechar 0
AnchorPoint: "HamzaAbove" 0 0 basechar 0
AnchorPoint: "DotBelow" 0 0 basechar 0
AnchorPoint: "DotAbove" 0 0 basechar 0
LayerCount: 2
Fore
SplineSet
5 -237 m 0,0,1
 12 -136 12 -136 57 -12.5 c 128,-1,2
 102 111 102 111 148 173 c 0,3,4
 162 192 162 192 180.5 182 c 128,-1,5
 199 172 199 172 185 147 c 0,6,7
 163 107 163 107 151.5 85.5 c 128,-1,8
 140 64 140 64 117 7.5 c 128,-1,9
 94 -49 94 -49 86 -91.5 c 128,-1,10
 78 -134 78 -134 79.5 -191.5 c 128,-1,11
 81 -249 81 -249 101 -298 c 0,12,13
 137 -386 137 -386 245 -448 c 128,-1,14
 353 -510 353 -510 516 -504 c 0,15,16
 681 -498 681 -498 845.5 -437 c 128,-1,17
 1010 -376 1010 -376 1132 -268 c 1,18,19
 1155 -237 1155 -237 1095.5 -222.5 c 128,-1,20
 1036 -208 1036 -208 926.5 -200.5 c 128,-1,21
 817 -193 817 -193 778 -183 c 1,22,23
 742 -171 742 -171 730.5 -140 c 128,-1,24
 719 -109 719 -109 726 -75.5 c 128,-1,25
 733 -42 733 -42 752 -12 c 0,26,27
 794 58 794 58 884.5 108 c 128,-1,28
 975 158 975 158 1074 184 c 0,29,30
 1098 191 1098 191 1113.5 173.5 c 128,-1,31
 1129 156 1129 156 1124 118 c 0,32,33
 1119 75 1119 75 1105 38.5 c 128,-1,34
 1091 2 1091 2 1074 0 c 0,35,36
 1067 -1 1067 -1 1039 -1.5 c 128,-1,37
 1011 -2 1011 -2 986 -3.5 c 128,-1,38
 961 -5 961 -5 933.5 -9.5 c 128,-1,39
 906 -14 906 -14 889 -25.5 c 128,-1,40
 872 -37 872 -37 872 -54 c 1,41,42
 930 -56 930 -56 962 -58 c 128,-1,43
 994 -60 994 -60 1050.5 -68 c 128,-1,44
 1107 -76 1107 -76 1140.5 -88.5 c 128,-1,45
 1174 -101 1174 -101 1204.5 -125 c 128,-1,46
 1235 -149 1235 -149 1244 -182 c 0,47,48
 1255 -223 1255 -223 1227 -294.5 c 128,-1,49
 1199 -366 1199 -366 1168 -403 c 0,50,51
 1081 -508 1081 -508 871.5 -603 c 128,-1,52
 662 -698 662 -698 503 -697 c 0,53,54
 222 -694 222 -694 106 -573.5 c 128,-1,55
 -10 -453 -10 -453 5 -237 c 0,0,1
EndSplineSet
Substitution2: "SeenYaaFina subtable" yaa.fina_PostTooth
Substitution2: "BaaSeenAltInit subtable" yaa.fina_PostTooth
Substitution2: "BaaYaaFina subtable" yaa.fina_BaaYaaFina
Substitution2: "KafYaaFina subtable" yaa.fina_KafYaaFina
Substitution2: "LamYaaIsol subtable" yaa.fina_LamYaaIsol
Substitution2: "AynYaaIsol subtable" yaa.fina_AynYaaIsol
Substitution2: "FaaYaaIsol subtable" yaa.fina_FaaYaaIsol
Substitution2: "AynYaaFina subtable" yaa.fina_AynYaaFina
Substitution2: "LamYaaFina subtable" yaa.fina_LamYaaFina
Substitution2: "BaaBaaYaaIsol subtable" yaa.fina_BaaBaaYaaIsol
Substitution2: "MeemYaaIsol subtable" yaa.fina_MeemYaaIsol
Substitution2: "HaaYaaIsol subtable" yaa.fina_HaaYaaIsol
Substitution2: "BaaYaaIsol subtable" yaa.fina_BaaYaaIsol
Substitution2: "FaaYaaFina subtable" yaa.fina_FaaYaaFina
Substitution2: "KafYaaIsol subtable" yaa.fina_KafYaaIsol
Colour: ffff00
EndChar

StartChar: yaa.isol
Encoding: 65623 -1 72
Width: 1347
VWidth: 0
AnchorPoint: "HamzaBelow" 29 0 basechar 0
AnchorPoint: "HamzaAbove" 29 0 basechar 0
AnchorPoint: "DotBelow" 549 -799 basechar 0
AnchorPoint: "DotAbove" 213 86 basechar 0
LayerCount: 2
Fore
SplineSet
1247 590 m 0,0,1
 1212 610 1212 610 1159.5 612.5 c 128,-1,2
 1107 615 1107 615 1048.5 598 c 128,-1,3
 990 581 990 581 935 549.5 c 128,-1,4
 880 518 880 518 834 465 c 128,-1,5
 788 412 788 412 765 347 c 0,6,7
 756 321 756 321 769 293 c 0,8,9
 792 240 792 240 869.5 213.5 c 128,-1,10
 947 187 947 187 1028 182.5 c 128,-1,11
 1109 178 1109 178 1179.5 156.5 c 128,-1,12
 1250 135 1250 135 1260 91 c 0,13,14
 1277 19 1277 19 1243.5 -52.5 c 128,-1,15
 1210 -124 1210 -124 1168 -160 c 0,16,17
 1039 -269 1039 -269 851 -340 c 128,-1,18
 663 -411 663 -411 498 -411 c 0,19,20
 372 -411 372 -411 278 -386.5 c 128,-1,21
 184 -362 184 -362 128 -318 c 128,-1,22
 72 -274 72 -274 39 -213 c 128,-1,23
 6 -152 6 -152 2.5 -79 c 128,-1,24
 -1 -6 -1 -6 10 76 c 1,25,26
 27 179 27 179 80.5 295.5 c 128,-1,27
 134 412 134 412 210 504 c 0,28,29
 230 528 230 528 244 504 c 0,30,31
 254 488 254 488 241 471 c 0,32,33
 39 186 39 186 109 8 c 0,34,35
 147 -89 147 -89 246.5 -155 c 128,-1,36
 346 -221 346 -221 520 -218 c 0,37,38
 682 -215 682 -215 853.5 -167 c 128,-1,39
 1025 -119 1025 -119 1150 -19 c 0,40,41
 1170 -3 1170 -3 1153 11 c 0,42,43
 1132 29 1132 29 1060 38 c 128,-1,44
 988 47 988 47 914.5 51.5 c 128,-1,45
 841 56 841 56 772.5 82 c 128,-1,46
 704 108 704 108 687 158 c 0,47,48
 657 243 657 243 694 356 c 128,-1,49
 731 469 731 469 806.5 565 c 128,-1,50
 882 661 882 661 981.5 732.5 c 128,-1,51
 1081 804 1081 804 1168 816 c 0,52,53
 1217 823 1217 823 1259 801 c 128,-1,54
 1301 779 1301 779 1306 739 c 0,55,56
 1313 678 1313 678 1298.5 623.5 c 128,-1,57
 1284 569 1284 569 1247 590 c 0,0,1
EndSplineSet
Substitution2: "'medi' Medial Forms in Arabic lookup 2 subtable" baa.medi
Substitution2: "'init' Initial Forms in Arabic lookup 1 subtable" baa.init
Substitution2: "'fina' Terminal Forms in Arabic lookup 3 subtable" yaa.fina
Colour: ffff00
EndChar

StartChar: ayn.init_AynMeemInit
Encoding: 65624 -1 109
Width: 1040
VWidth: 0
AnchorPoint: "HamzaBelow" 0 0 basechar 0
AnchorPoint: "HamzaAbove" 0 0 basechar 0
AnchorPoint: "DotBelow" 0 0 basechar 0
AnchorPoint: "DotAbove" 0 0 basechar 0
AnchorPoint: "cursive" 41 434 exit 0
LayerCount: 2
Back
SplineSet
206.379 897.88 m 0,0,-1
 206.381 897.88 l 1,2,3
 242.916 987.673 242.916 987.673 352.805 1083.75 c 0,4,5
 462.693 1179.84 462.693 1179.84 579.431 1177.38 c 0,4,5
 627.801 1176.36 627.801 1176.36 673.137 1149.94 c 0,6,7
 718.472 1123.53 718.472 1123.53 741.317 1098.79 c 0,8,9
 764.164 1074.04 764.164 1074.04 793.553 1035.18 c 0,6,7
 806.297 1015.78 806.297 1015.78 794.225 1004.88 c 0,8,9
 782.152 993.976 782.152 993.976 767.568 998.875 c 0,8,9
 708.671 1018.67 708.671 1018.67 640.419 1022.19 c 0,10,11
 572.166 1025.72 572.166 1025.72 474.863 1000.34 c 0,12,13
 377.561 974.975 377.561 974.975 283.548 915.178 c 1,10,11
 270.726 903.681 270.726 903.681 278.354 891.294 c 0,12,13
 309.272 841.086 309.272 841.086 379.017 791.628 c 0,14,15
 448.762 742.169 448.762 742.169 554.869 721.313 c 1,14,15
 612.688 716.756 612.688 716.756 685.469 737.48 c 0,16,17
 758.249 758.206 758.249 758.206 795.802 775.843 c 0,18,19
 833.355 793.479 833.355 793.479 927.093 840.585 c 0,16,17
 955.11 854.665 955.11 854.665 973.476 836.48 c 0,18,19
 991.84 818.295 991.84 818.295 978.969 798.173 c 2,18,-1
 915.622 699.138 l 2,19,20
 912.38 692.736 912.38 692.736 902.278 682.81 c 0,21,22
 892.177 672.883 892.177 672.883 886.698 670.73 c 0,21,22
 768.506 624.281 768.506 624.281 522.698 543.013 c 0,23,24
 276.891 461.743 276.891 461.743 179.814 425.431 c 0,23,24
 76.0732 386.63 76.0732 386.63 52.2676 383.916 c 1,25,26
 30.2393 379.32 30.2393 379.32 11.8525 381.428 c 0,27,28
 -6.53418 383.535 -6.53418 383.535 -28.3184 399.192 c 0,27,28
 -51.4463 415.814 -51.4463 415.814 -56.0273 432.072 c 0,29,30
 -60.6094 448.329 -60.6094 448.329 -48.0117 452.967 c 0,29,30
 30.4404 492.704 30.4404 492.704 165.488 543.669 c 0,31,32
 300.537 594.634 300.537 594.634 312.654 599.88 c 1,31,32
 261.801 635.182 261.801 635.182 231.184 671.384 c 0,33,34
 200.567 707.587 200.567 707.587 189.033 734.448 c 0,35,36
 177.499 761.31 177.499 761.31 179.657 795.403 c 0,37,38
 181.816 829.496 181.816 829.496 187.62 847.77 c 0,39,40
 193.425 866.043 193.425 866.043 206.379 897.88 c 0,0,-1
-48.0117 452.967 m 0,33,34
 81.627 522.657 81.627 522.657 179.814 425.431 c 0,35,36
 223.795 381.881 223.795 381.881 252.921 332.645 c 0,37,38
 282.047 283.408 282.047 283.408 284.666 254.445 c 0,37,38
 289.403 202.042 289.403 202.042 265.754 145.009 c 0,39,40
 242.104 87.9756 242.104 87.9756 204.02 69.0117 c 0,39,40
 158.163 46.1758 158.163 46.1758 34.2178 90.4395 c 0,41,42
 -89.7275 134.704 -89.7275 134.704 -139.33 178.242 c 1,41,42
 -162.923 125.56 -162.923 125.56 -214.18 67.1816 c 0,43,44
 -265.438 8.80371 -265.438 8.80371 -307.2 0 c 1,43,44
 -362.806 0 -362.806 0 -372.613 104.516 c 0,45,46
 -377.005 151.306 -377.005 151.306 -361.365 169.038 c 0,47,48
 -345.727 186.771 -345.727 186.771 -307.364 186.744 c 0,47,48
 -261.967 186.711 -261.967 186.711 -218.284 198.705 c 0,49,50
 -174.602 210.698 -174.602 210.698 -155.311 231.211 c 1,49,50
 -142.144 402.362 -142.144 402.362 -48.0117 452.967 c 0,33,34
158.786 214.348 m 1,51,52
 147.184 254.031 147.184 254.031 113.512 288.147 c 0,53,54
 79.8398 322.265 79.8398 322.265 36.9619 342.143 c 0,53,54
 -36.6455 376.266 -36.6455 376.266 -87.6084 344.367 c 1,55,56
 -99.2334 332.144 -99.2334 332.144 -84.9883 321.609 c 0,57,58
 -39.3164 287.844 -39.3164 287.844 39.2236 253.41 c 0,59,60
 117.764 218.978 117.764 218.978 158.786 214.348 c 1,51,52
EndSplineSet
Fore
SplineSet
206 898 m 0,0,-1
 206 898 l 1,1,2
 243 988 243 988 353 1084 c 128,-1,3
 463 1180 463 1180 579 1177 c 0,4,5
 627 1176 627 1176 672.5 1150 c 128,-1,6
 718 1124 718 1124 741 1099 c 128,-1,7
 764 1074 764 1074 794 1035 c 0,8,9
 807 1016 807 1016 794.5 1005 c 128,-1,10
 782 994 782 994 768 999 c 0,11,12
 709 1019 709 1019 640.5 1022.5 c 128,-1,13
 572 1026 572 1026 475 1000.5 c 128,-1,14
 378 975 378 975 284 915 c 1,15,16
 271 904 271 904 278 891 c 0,17,18
 309 841 309 841 379 791.5 c 128,-1,19
 449 742 449 742 555 721 c 1,20,21
 613 716 613 716 685.5 737 c 128,-1,22
 758 758 758 758 795.5 775.5 c 128,-1,23
 833 793 833 793 927 841 c 0,24,25
 955 855 955 855 973.5 836.5 c 128,-1,26
 992 818 992 818 979 798 c 2,27,-1
 916 699 l 2,28,29
 913 693 913 693 902.5 683 c 128,-1,30
 892 673 892 673 887 671 c 0,31,32
 769 625 769 625 523 543.5 c 128,-1,33
 277 462 277 462 180 425 c 0,34,35
 76 386 76 386 52 384 c 1,36,37
 30 379 30 379 11.5 381.5 c 128,-1,38
 -7 384 -7 384 -28 399 c 0,39,40
 -51 416 -51 416 -56 432 c 128,-1,41
 -61 448 -61 448 -48 453 c 0,42,43
 30 493 30 493 165.5 544 c 128,-1,44
 301 595 301 595 313 600 c 1,45,46
 262 635 262 635 231.5 671.5 c 128,-1,47
 201 708 201 708 189 734.5 c 128,-1,48
 177 761 177 761 179.5 795 c 128,-1,49
 182 829 182 829 187.5 847.5 c 128,-1,50
 193 866 193 866 206 898 c 0,0,-1
EndSplineSet
Colour: ff00
EndChar

StartChar: meem.medi_AynMeemInit
Encoding: 65625 -1 110
Width: 632
VWidth: 0
AnchorPoint: "HamzaBelow" 0 0 basechar 0
AnchorPoint: "HamzaAbove" 0 0 basechar 0
AnchorPoint: "DotBelow" 0 0 basechar 0
AnchorPoint: "DotAbove" 0 0 basechar 0
AnchorPoint: "cursive" 348 434 entry 0
LayerCount: 2
Back
SplineSet
513.579 897.88 m 0,0,-1
 513.581 897.88 l 1,2,3
 550.116 987.673 550.116 987.673 660.005 1083.75 c 0,4,5
 769.894 1179.84 769.894 1179.84 886.631 1177.38 c 0,4,5
 935.001 1176.36 935.001 1176.36 980.336 1149.94 c 0,6,7
 1025.67 1123.53 1025.67 1123.53 1048.52 1098.79 c 0,8,9
 1071.36 1074.04 1071.36 1074.04 1100.75 1035.18 c 0,6,7
 1113.5 1015.78 1113.5 1015.78 1101.42 1004.88 c 0,8,9
 1089.35 993.976 1089.35 993.976 1074.77 998.875 c 0,8,9
 1015.87 1018.67 1015.87 1018.67 947.618 1022.19 c 0,10,11
 879.366 1025.72 879.366 1025.72 782.063 1000.34 c 0,12,13
 684.761 974.975 684.761 974.975 590.748 915.178 c 1,10,11
 577.926 903.681 577.926 903.681 585.554 891.294 c 0,12,13
 616.473 841.087 616.473 841.087 686.218 791.628 c 0,14,15
 755.963 742.169 755.963 742.169 862.068 721.313 c 1,14,15
 919.889 716.756 919.889 716.756 992.669 737.48 c 0,16,17
 1065.45 758.206 1065.45 758.206 1103 775.843 c 0,18,19
 1140.56 793.479 1140.56 793.479 1234.29 840.585 c 0,16,17
 1262.31 854.665 1262.31 854.665 1280.67 836.48 c 0,18,19
 1299.04 818.295 1299.04 818.295 1286.17 798.173 c 2,18,-1
 1222.82 699.138 l 2,19,20
 1219.58 692.736 1219.58 692.736 1209.48 682.81 c 0,21,22
 1199.38 672.883 1199.38 672.883 1193.9 670.73 c 0,21,22
 1075.71 624.281 1075.71 624.281 829.898 543.013 c 0,23,24
 584.092 461.743 584.092 461.743 487.015 425.431 c 0,23,24
 383.276 386.631 383.276 386.631 359.467 383.916 c 1,25,26
 337.439 379.32 337.439 379.32 319.053 381.428 c 0,27,28
 300.665 383.535 300.665 383.535 278.883 399.192 c 0,27,28
 255.753 415.814 255.753 415.814 251.172 432.072 c 0,29,30
 246.591 448.329 246.591 448.329 259.188 452.967 c 0,29,30
 337.641 492.704 337.641 492.704 472.689 543.669 c 0,31,32
 607.737 594.635 607.737 594.635 619.854 599.88 c 1,31,32
 569.001 635.182 569.001 635.182 538.385 671.384 c 0,33,34
 507.768 707.587 507.768 707.587 496.233 734.448 c 0,35,36
 484.699 761.309 484.699 761.309 486.857 795.403 c 0,37,38
 489.017 829.497 489.017 829.497 494.82 847.77 c 0,39,40
 500.625 866.043 500.625 866.043 513.579 897.88 c 0,0,-1
259.188 452.967 m 0,33,34
 388.826 522.657 388.826 522.657 487.015 425.431 c 0,35,36
 530.995 381.881 530.995 381.881 560.121 332.645 c 0,37,38
 589.247 283.408 589.247 283.408 591.866 254.445 c 0,37,38
 596.604 202.041 596.604 202.041 572.954 145.009 c 0,39,40
 549.304 87.9756 549.304 87.9756 511.22 69.0117 c 0,39,40
 465.363 46.1758 465.363 46.1758 341.418 90.4395 c 0,41,42
 217.473 134.704 217.473 134.704 167.87 178.242 c 1,41,42
 144.277 125.56 144.277 125.56 93.0195 67.1816 c 0,43,44
 41.7627 8.80371 41.7627 8.80371 0 0 c 1,43,44
 -55.6045 0 -55.6045 0 -65.4141 104.516 c 0,45,46
 -69.8047 151.306 -69.8047 151.306 -54.166 169.038 c 0,47,48
 -38.5264 186.771 -38.5264 186.771 -0.164062 186.744 c 0,47,48
 45.2334 186.711 45.2334 186.711 88.916 198.705 c 0,49,50
 132.599 210.698 132.599 210.698 151.89 231.211 c 1,49,50
 165.057 402.362 165.057 402.362 259.188 452.967 c 0,33,34
465.985 214.348 m 1,51,52
 454.384 254.031 454.384 254.031 420.712 288.147 c 0,53,54
 387.041 322.265 387.041 322.265 344.162 342.143 c 0,53,54
 270.554 376.266 270.554 376.266 219.593 344.367 c 1,55,56
 207.967 332.144 207.967 332.144 222.212 321.609 c 0,57,58
 267.882 287.844 267.882 287.844 346.423 253.41 c 0,59,60
 424.964 218.978 424.964 218.978 465.985 214.348 c 1,51,52
EndSplineSet
Fore
SplineSet
259 453 m 0,0,1
 389 523 389 523 487 425 c 0,2,3
 531 381 531 381 560 332 c 128,-1,4
 589 283 589 283 592 254 c 0,5,6
 597 202 597 202 573 145 c 128,-1,7
 549 88 549 88 511 69 c 0,8,9
 465 46 465 46 341 90.5 c 128,-1,10
 217 135 217 135 168 178 c 1,11,12
 144 125 144 125 93 67 c 128,-1,13
 42 9 42 9 0 0 c 1,14,15
 -56 0 -56 0 -65 105 c 0,16,17
 -69 152 -69 152 -54 169.5 c 128,-1,18
 -39 187 -39 187 -0 187 c 0,19,20
 45 187 45 187 89 199 c 128,-1,21
 133 211 133 211 152 231 c 1,22,23
 165 402 165 402 259 453 c 0,0,1
466 214 m 1,24,25
 454 254 454 254 420.5 288 c 128,-1,26
 387 322 387 322 344 342 c 0,27,28
 270 376 270 376 220 344 c 1,29,30
 208 332 208 332 222 322 c 0,31,32
 268 288 268 288 346.5 253.5 c 128,-1,33
 425 219 425 219 466 214 c 1,24,25
EndSplineSet
Colour: ff00
EndChar

StartChar: kaf.init_KafHehIsol
Encoding: 65626 -1 111
Width: 528
VWidth: 0
AnchorPoint: "HamzaBelow" 0 0 basechar 0
AnchorPoint: "HamzaAbove" 0 0 basechar 0
AnchorPoint: "DotBelow" 0 0 basechar 0
AnchorPoint: "DotAbove" 0 0 basechar 0
AnchorPoint: "cursive" -29 47 exit 0
LayerCount: 2
Back
SplineSet
1186.81 1886.71 m 4,0,1
 1203.57 1893 1203.57 1893 1216.21 1880.87 c 0,2,3
 1228.84 1868.73 1228.84 1868.73 1222.96 1844.9 c 0,2,3
 1219.71 1831.72 1219.71 1831.72 1213.41 1804.81 c 0,4,5
 1207.12 1777.91 1207.12 1777.91 1202.24 1758.03 c 0,6,7
 1197.35 1738.14 1197.35 1738.14 1193.97 1727.01 c 0,4,5
 1186.97 1704.01 1186.97 1704.01 1164.97 1696.68 c 0,6,7
 182.19 1369.31 182.19 1369.31 -59.5557 1201.62 c 1,8,9
 -23.9375 1173.73 -23.9375 1173.73 37.1875 1108.05 c 0,10,11
 98.3115 1042.37 98.3115 1042.37 178.976 930.332 c 0,12,13
 259.641 818.293 259.641 818.293 323.373 697.248 c 0,14,15
 387.105 576.202 387.105 576.202 418.664 428.887 c 0,16,17
 450.222 281.572 450.222 281.572 422.41 154.028 c 0,10,11
 404.8 73.2637 404.8 73.2637 354.987 17.9912 c 0,12,13
 305.176 -37.2812 305.176 -37.2812 245.562 -59.4492 c 0,14,15
 185.946 -81.6172 185.946 -81.6172 124.401 -88.5908 c 0,16,17
 62.8564 -95.5645 62.8564 -95.5645 18.2598 -89.1953 c 0,18,19
 -26.3369 -82.8271 -26.3369 -82.8271 -42.5938 -71.5625 c 0,12,13
 -95.3975 -34.9727 -95.3975 -34.9727 -100.713 66.2529 c 0,14,15
 -105.65 160.287 -105.65 160.287 -58.166 170.603 c 0,16,17
 -33.4639 175.968 -33.4639 175.968 0.896484 150.132 c 1,14,15
 70.6973 104.059 70.6973 104.059 172.888 130.804 c 0,16,17
 275.078 157.549 275.078 157.549 362.83 235.103 c 1,16,17
 349.01 347.538 349.01 347.538 272.613 491.847 c 0,18,19
 196.217 636.154 196.217 636.154 121.724 734.078 c 0,20,21
 47.2305 832.001 47.2305 832.001 -21.5156 904.784 c 0,18,19
 -29.7041 913.451 -29.7041 913.451 -41.4717 903.074 c 2,20,-1
 -62.6416 884.433 l 2,21,22
 -75.5557 873.044 -75.5557 873.044 -87.3799 886.422 c 2,23,-1
 -185.034 996.96 l 1,24,25
 -193.674 1000.5 -193.674 1000.5 -185.843 1085.81 c 0,26,27
 -178.012 1171.12 -178.012 1171.12 -159.598 1222.4 c 1,26,27
 -136.994 1263.43 -136.994 1263.43 -124.445 1284.13 c 0,28,29
 -111.896 1304.83 -111.896 1304.83 -86.7363 1334.03 c 0,30,31
 -61.5771 1363.23 -61.5771 1363.23 -33.9619 1380.06 c 0,28,29
 97.5078 1460.17 97.5078 1460.17 275.061 1540.42 c 0,30,31
 452.612 1620.68 452.612 1620.68 582.407 1669.04 c 0,32,33
 712.203 1717.4 712.203 1717.4 912.312 1788.08 c 0,34,35
 1112.42 1858.76 1112.42 1858.76 1186.81 1886.71 c 4,0,1
0.896484 150.132 m 4,30,31
 47.457 115.134 47.457 115.134 21.9707 8.59961 c 0,32,33
 2.24609 -73.8457 2.24609 -73.8457 -31.0605 -74.9863 c 0,34,35
 -36.998 -75.1895 -36.998 -75.1895 -42.5938 -71.5625 c 0,32,33
 -150.776 -1.43457 -150.776 -1.43457 -198.024 277.959 c 1,34,35
 -218.597 194.615 -218.597 194.615 -247.042 145.004 c 0,36,37
 -269.312 105.37 -269.312 105.37 -299.598 98.1064 c 1,38,39
 -367.632 87.2334 -367.632 87.2334 -452.99 93.9678 c 0,40,41
 -538.348 100.701 -538.348 100.701 -556.452 117.264 c 0,40,41
 -603.604 160.392 -603.604 160.392 -586.92 205.244 c 0,42,43
 -579.87 224.196 -579.87 224.196 -555.908 281.646 c 0,44,45
 -531.946 339.096 -531.946 339.096 -531.253 340.834 c 0,44,45
 -525.299 355.769 -525.299 355.769 -516.13 369.98 c 0,46,47
 -506.962 384.192 -506.962 384.192 -500.771 390.938 c 2,48,-1
 -494.58 397.683 l 1,46,47
 -394.131 492.534 -394.131 492.534 -256.301 553.518 c 1,48,-1
 -266.197 633.612 l 2,49,50
 -269.45 670.278 -269.45 670.278 -263.328 690.633 c 1,51,-1
 -220.823 782.129 l 1,52,53
 -212.962 790.011 -212.962 790.011 -207.573 791.772 c 0,54,55
 -202.185 793.533 -202.185 793.533 -199.196 789.395 c 0,56,57
 -196.208 785.256 -196.208 785.256 -194.588 780.187 c 0,58,59
 -192.968 775.117 -192.968 775.117 -191.125 766.865 c 0,60,61
 -189.282 758.612 -189.282 758.612 -187.704 754.618 c 0,54,55
 -153.534 486.546 -153.534 486.546 -100.87 311.869 c 0,56,57
 -67.6387 201.648 -67.6387 201.648 0.896484 150.132 c 4,30,31
-233.384 450.404 m 5,58,59
 -290.974 438.646 -290.974 438.646 -364.331 398.209 c 0,60,61
 -437.688 357.772 -437.688 357.772 -470.827 297.738 c 1,60,61
 -445.439 276.519 -445.439 276.519 -398.59 270.824 c 0,62,63
 -351.739 265.131 -351.739 265.131 -311.998 270.406 c 0,64,65
 -272.258 275.682 -272.258 275.682 -244.904 285.311 c 0,62,63
 -217.435 294.981 -217.435 294.981 -213.979 324.597 c 0,64,65
 -210.524 354.211 -210.524 354.211 -221.739 398.817 c 0,66,67
 -232.955 443.423 -232.955 443.423 -233.384 450.404 c 5,58,59
EndSplineSet
Fore
SplineSet
1187 1887 m 0,0,1
 1204 1893 1204 1893 1216.5 1881 c 128,-1,2
 1229 1869 1229 1869 1223 1845 c 0,3,4
 1220 1832 1220 1832 1213.5 1805 c 128,-1,5
 1207 1778 1207 1778 1202 1758 c 128,-1,6
 1197 1738 1197 1738 1194 1727 c 0,7,8
 1187 1704 1187 1704 1165 1697 c 0,9,10
 182 1370 182 1370 -60 1202 c 1,11,12
 -24 1174 -24 1174 37 1108 c 128,-1,13
 98 1042 98 1042 179 930 c 128,-1,14
 260 818 260 818 323.5 697 c 128,-1,15
 387 576 387 576 418.5 429 c 128,-1,16
 450 282 450 282 422 154 c 0,17,18
 404 73 404 73 354.5 18 c 128,-1,19
 305 -37 305 -37 245.5 -59.5 c 128,-1,20
 186 -82 186 -82 124.5 -89 c 128,-1,21
 63 -96 63 -96 18.5 -89.5 c 128,-1,22
 -26 -83 -26 -83 -43 -72 c 0,23,24
 -96 -35 -96 -35 -101 66 c 0,25,26
 -106 160 -106 160 -58 171 c 0,27,28
 -33 176 -33 176 1 150 c 1,29,30
 71 104 71 104 173 131 c 128,-1,31
 275 158 275 158 363 235 c 1,32,33
 349 347 349 347 272.5 491.5 c 128,-1,34
 196 636 196 636 121.5 734 c 128,-1,35
 47 832 47 832 -22 905 c 0,36,37
 -30 914 -30 914 -41 903 c 2,38,-1
 -63 884 l 2,39,40
 -76 873 -76 873 -87 886 c 2,41,-1
 -185 997 l 1,42,43
 -194 1001 -194 1001 -186 1086 c 128,-1,44
 -178 1171 -178 1171 -160 1222 c 1,45,46
 -137 1263 -137 1263 -124.5 1284 c 128,-1,47
 -112 1305 -112 1305 -87 1334 c 128,-1,48
 -62 1363 -62 1363 -34 1380 c 0,49,50
 97 1460 97 1460 275 1540.5 c 128,-1,51
 453 1621 453 1621 582.5 1669 c 128,-1,52
 712 1717 712 1717 912.5 1788 c 128,-1,53
 1113 1859 1113 1859 1187 1887 c 0,0,1
EndSplineSet
Colour: ff00
EndChar

StartChar: heh.fina_KafHehIsol
Encoding: 65627 -1 112
Width: 659
VWidth: 0
AnchorPoint: "HamzaBelow" 0 0 basechar 0
AnchorPoint: "HamzaAbove" 0 0 basechar 0
AnchorPoint: "DotBelow" 0 0 basechar 0
AnchorPoint: "DotAbove" 0 0 basechar 0
AnchorPoint: "cursive" 629 47 entry 0
LayerCount: 2
Back
SplineSet
1844.22 1886.71 m 0,0,1
 1860.98 1893 1860.98 1893 1873.61 1880.87 c 0,2,3
 1886.25 1868.73 1886.25 1868.73 1880.37 1844.9 c 0,2,3
 1877.11 1831.72 1877.11 1831.72 1870.82 1804.81 c 0,4,5
 1864.53 1777.91 1864.53 1777.91 1859.64 1758.03 c 0,6,7
 1854.76 1738.14 1854.76 1738.14 1851.37 1727.01 c 0,4,5
 1844.38 1704.01 1844.38 1704.01 1822.37 1696.68 c 0,6,7
 839.598 1369.31 839.598 1369.31 597.853 1201.62 c 1,8,9
 633.471 1173.73 633.471 1173.73 694.596 1108.05 c 0,10,11
 755.72 1042.37 755.72 1042.37 836.384 930.333 c 0,12,13
 917.049 818.293 917.049 818.293 980.781 697.248 c 0,14,15
 1044.51 576.201 1044.51 576.201 1076.07 428.887 c 0,16,17
 1107.63 281.572 1107.63 281.572 1079.82 154.028 c 0,10,11
 1062.21 73.2637 1062.21 73.2637 1012.4 17.9912 c 0,12,13
 962.584 -37.2812 962.584 -37.2812 902.97 -59.4492 c 0,14,15
 843.354 -81.6172 843.354 -81.6172 781.81 -88.5908 c 0,16,17
 720.265 -95.5645 720.265 -95.5645 675.668 -89.1953 c 0,18,19
 631.071 -82.8271 631.071 -82.8271 614.813 -71.5625 c 0,12,13
 562.011 -34.9727 562.011 -34.9727 556.695 66.2529 c 0,14,15
 551.758 160.288 551.758 160.288 599.243 170.603 c 0,16,17
 623.945 175.968 623.945 175.968 658.305 150.132 c 1,14,15
 728.105 104.059 728.105 104.059 830.296 130.804 c 0,16,17
 932.486 157.549 932.486 157.549 1020.24 235.103 c 1,16,17
 1006.42 347.538 1006.42 347.538 930.021 491.847 c 0,18,19
 853.626 636.154 853.626 636.154 779.132 734.078 c 0,20,21
 704.639 832.001 704.639 832.001 635.892 904.784 c 0,18,19
 627.704 913.45 627.704 913.45 615.936 903.074 c 2,20,-1
 594.766 884.433 l 2,21,22
 581.853 873.043 581.853 873.043 570.028 886.422 c 2,23,-1
 472.373 996.96 l 1,24,25
 463.733 1000.5 463.733 1000.5 471.564 1085.81 c 0,26,27
 479.396 1171.12 479.396 1171.12 497.81 1222.4 c 1,26,27
 520.415 1263.43 520.415 1263.43 532.963 1284.13 c 0,28,29
 545.512 1304.83 545.512 1304.83 570.671 1334.03 c 0,30,31
 595.831 1363.23 595.831 1363.23 623.446 1380.06 c 0,28,29
 754.916 1460.17 754.916 1460.17 932.469 1540.42 c 0,30,31
 1110.02 1620.68 1110.02 1620.68 1239.82 1669.04 c 0,32,33
 1369.61 1717.4 1369.61 1717.4 1569.72 1788.08 c 0,34,35
 1769.83 1858.76 1769.83 1858.76 1844.22 1886.71 c 0,0,1
658.305 150.132 m 0,30,31
 704.865 115.134 704.865 115.134 679.378 8.59961 c 0,32,33
 659.654 -73.8457 659.654 -73.8457 626.347 -74.9863 c 0,34,35
 620.41 -75.1895 620.41 -75.1895 614.813 -71.5625 c 0,32,33
 506.626 -1.43066 506.626 -1.43066 459.385 277.959 c 1,34,35
 438.812 194.614 438.812 194.614 410.366 145.004 c 0,36,37
 388.097 105.37 388.097 105.37 357.811 98.1064 c 1,38,39
 289.775 87.2334 289.775 87.2334 204.418 93.9678 c 0,40,41
 119.061 100.701 119.061 100.701 100.956 117.264 c 0,40,41
 53.8037 160.394 53.8037 160.394 70.4883 205.244 c 0,42,43
 77.5381 224.195 77.5381 224.195 101.496 281.639 c 0,44,45
 125.455 339.082 125.455 339.082 126.154 340.834 c 0,44,45
 132.108 355.769 132.108 355.769 141.277 369.98 c 0,46,47
 150.445 384.192 150.445 384.192 156.637 390.938 c 2,48,-1
 162.828 397.683 l 1,46,47
 263.277 492.534 263.277 492.534 401.107 553.518 c 1,48,-1
 391.211 633.612 l 2,49,50
 387.957 670.278 387.957 670.278 394.08 690.633 c 1,51,-1
 436.584 782.129 l 1,52,53
 444.446 790.011 444.446 790.011 449.835 791.772 c 0,54,55
 455.224 793.533 455.224 793.533 458.213 789.395 c 0,56,57
 461.201 785.256 461.201 785.256 462.821 780.187 c 0,58,59
 464.44 775.117 464.44 775.117 466.283 766.865 c 0,60,61
 468.126 758.612 468.126 758.612 469.705 754.618 c 0,54,55
 503.873 486.546 503.873 486.546 556.538 311.869 c 0,56,57
 589.771 201.647 589.771 201.647 658.305 150.132 c 0,30,31
424.024 450.404 m 1,58,59
 366.434 438.646 366.434 438.646 293.077 398.209 c 0,60,61
 219.721 357.772 219.721 357.772 186.582 297.738 c 1,60,61
 211.97 276.519 211.97 276.519 258.819 270.824 c 0,62,63
 305.669 265.131 305.669 265.131 345.41 270.406 c 0,64,65
 385.15 275.682 385.15 275.682 412.504 285.311 c 0,62,63
 439.974 294.981 439.974 294.981 443.429 324.597 c 0,64,65
 446.885 354.211 446.885 354.211 435.669 398.817 c 0,66,67
 424.453 443.423 424.453 443.423 424.024 450.404 c 1,58,59
EndSplineSet
Fore
SplineSet
658 150 m 0,0,1
 705 115 705 115 679 9 c 0,2,3
 659 -73 659 -73 626 -75 c 0,4,5
 620 -75 620 -75 615 -72 c 0,6,7
 507 -2 507 -2 459 278 c 1,8,9
 438 195 438 195 410 145 c 0,10,11
 388 105 388 105 358 98 c 1,12,13
 290 87 290 87 204.5 94 c 128,-1,14
 119 101 119 101 101 117 c 0,15,16
 54 160 54 160 70 205 c 0,17,18
 77 224 77 224 101 281.5 c 128,-1,19
 125 339 125 339 126 341 c 0,20,21
 132 356 132 356 141 370 c 128,-1,22
 150 384 150 384 157 391 c 2,23,-1
 163 398 l 1,24,25
 263 493 263 493 401 554 c 1,26,-1
 391 634 l 2,27,28
 388 671 388 671 394 691 c 1,29,-1
 437 782 l 1,30,31
 445 790 445 790 450 792 c 128,-1,32
 455 794 455 794 458 789.5 c 128,-1,33
 461 785 461 785 462.5 780 c 128,-1,34
 464 775 464 775 466 767 c 128,-1,35
 468 759 468 759 470 755 c 0,36,37
 504 487 504 487 557 312 c 0,38,39
 589 202 589 202 658 150 c 0,0,1
424 450 m 1,40,41
 366 438 366 438 293 398 c 128,-1,42
 220 358 220 358 187 298 c 1,43,44
 212 277 212 277 259 271 c 128,-1,45
 306 265 306 265 345.5 270.5 c 128,-1,46
 385 276 385 276 412.5 285.5 c 128,-1,47
 440 295 440 295 443.5 324.5 c 128,-1,48
 447 354 447 354 435.5 398.5 c 128,-1,49
 424 443 424 443 424 450 c 1,40,41
EndSplineSet
Colour: ff00
EndChar

StartChar: lam.init_LamDalIsol
Encoding: 65628 -1 113
Width: 282
VWidth: -122
AnchorPoint: "HamzaBelow" 0 0 basechar 0
AnchorPoint: "HamzaAbove" 0 0 basechar 0
AnchorPoint: "DotBelow" 0 0 basechar 0
AnchorPoint: "DotAbove" 0 0 basechar 0
AnchorPoint: "cursive" -51 61 exit 0
LayerCount: 2
Back
SplineSet
-11.2783 1463.58 m 4,0,1
 -3.5625 1478.97 -3.5625 1478.97 6.98633 1477.26 c 0,2,3
 17.5352 1475.54 17.5352 1475.54 21.9639 1461.71 c 0,2,3
 44.4082 1391.62 44.4082 1391.62 110.382 1329.21 c 0,4,5
 134.563 1306.33 134.563 1306.33 119.622 1283.07 c 0,6,7
 114.179 1274.59 114.179 1274.59 100.519 1250.45 c 0,8,9
 86.8574 1226.32 86.8574 1226.32 79.9561 1214.78 c 1,8,9
 81.416 1206.07 81.416 1206.07 137.198 919.542 c 0,10,11
 192.979 633.016 192.979 633.016 214.805 481.534 c 0,10,11
 223.523 421.01 223.523 421.01 225.126 336.391 c 0,12,13
 226.729 251.771 226.729 251.771 224.245 196.634 c 0,14,15
 221.763 141.497 221.763 141.497 219.988 140.99 c 0,12,13
 212.357 36.9424 212.357 36.9424 171.092 -48.834 c 0,14,15
 147.846 -97.1562 147.846 -97.1562 101.258 -112.517 c 0,16,17
 54.6699 -127.877 54.6699 -127.877 13.1104 -116.622 c 0,18,19
 -28.4502 -105.367 -28.4502 -105.367 -51.3721 -81.9219 c 0,16,17
 -97.9893 -34.2412 -97.9893 -34.2412 -106.53 69.3945 c 0,18,19
 -114.674 168.195 -114.674 168.195 -63.7266 166.172 c 0,20,21
 -39.2129 165.198 -39.2129 165.198 -3.5 136.254 c 0,18,19
 46.9834 95.3389 46.9834 95.3389 139.412 112.126 c 1,20,21
 172.659 122.61 172.659 122.61 145.105 335.551 c 0,22,23
 127.158 460.13 127.158 460.13 94.9131 630.146 c 0,24,25
 62.668 800.161 62.668 800.161 25.4883 981.583 c 0,26,27
 -11.6914 1163 -11.6914 1163 -22.0625 1217.98 c 0,24,25
 -25.1367 1234.28 -25.1367 1234.28 -36.4756 1273.5 c 0,26,27
 -47.8154 1312.71 -47.8154 1312.71 -50.5469 1329.59 c 0,28,29
 -53.2783 1346.48 -53.2783 1346.48 -49.626 1374.92 c 1,26,27
 -41.373 1397.36 -41.373 1397.36 -11.2783 1463.58 c 4,0,1
-3.5 136.254 m 4,28,29
 51.1885 98.9902 51.1885 98.9902 19.6543 -6.29492 c 0,30,31
 -2.91309 -81.6416 -2.91309 -81.6416 -35.6416 -87.0312 c 0,32,33
 -44.2959 -88.457 -44.2959 -88.457 -51.3721 -81.9219 c 0,30,31
 -141.049 0.894531 -141.049 0.894531 -216.94 235.069 c 1,32,33
 -236.52 173.988 -236.52 173.988 -267.011 120.375 c 0,34,35
 -297.501 66.7627 -297.501 66.7627 -323.756 47.6777 c 0,34,35
 -388.637 0.515625 -388.637 0.515625 -514.754 -29.1084 c 0,36,37
 -640.87 -58.7314 -640.87 -58.7314 -717.74 -41.666 c 0,36,37
 -791.739 -25.2383 -791.739 -25.2383 -804.533 59.3818 c 0,38,39
 -817.326 144.001 -817.326 144.001 -774.316 251.775 c 0,38,39
 -768.377 267.938 -768.377 267.938 -757.89 269.373 c 0,40,41
 -747.402 270.81 -747.402 270.81 -738.477 254.974 c 0,40,41
 -679.291 146.465 -679.291 146.465 -510.38 170.494 c 0,42,43
 -385.185 188.301 -385.185 188.301 -318.505 238.428 c 0,44,45
 -251.825 288.555 -251.825 288.555 -247.212 347.519 c 1,44,45
 -336.686 749.246 l 2,46,47
 -339.393 760.111 -339.393 760.111 -338.489 782.104 c 0,48,49
 -337.586 804.098 -337.586 804.098 -333.357 811.581 c 2,48,49
 -291.885 884.99 l 2,50,51
 -281.385 903.567 -281.385 903.567 -272.619 876.739 c 0,52,53
 -271.804 874.242 -271.804 874.242 -271.149 871.422 c 0,52,53
 -255.683 818.05 -255.683 818.05 -224.718 683.925 c 0,54,55
 -193.753 549.801 -193.753 549.801 -169.967 458.379 c 0,56,57
 -146.181 366.958 -146.181 366.958 -101.331 270.52 c 0,58,59
 -56.4814 174.08 -56.4814 174.08 -3.5 136.254 c 4,28,29
EndSplineSet
Fore
SplineSet
-11 1464 m 4,0,1
 -3 1479 -3 1479 7.5 1477.5 c 128,-1,2
 18 1476 18 1476 22 1462 c 0,3,4
 44 1392 44 1392 110 1329 c 0,5,6
 134 1306 134 1306 120 1283 c 0,7,8
 115 1275 115 1275 101 1250.5 c 128,-1,9
 87 1226 87 1226 80 1215 c 1,10,11
 81 1206 81 1206 137 919.5 c 128,-1,12
 193 633 193 633 215 482 c 0,13,14
 224 421 224 421 225.5 336.5 c 128,-1,15
 227 252 227 252 224.5 196.5 c 128,-1,16
 222 141 222 141 220 141 c 0,17,18
 212 37 212 37 171 -49 c 0,19,20
 148 -97 148 -97 101.5 -112.5 c 128,-1,21
 55 -128 55 -128 13.5 -116.5 c 128,-1,22
 -28 -105 -28 -105 -51 -82 c 0,23,24
 -98 -34 -98 -34 -107 69 c 0,25,26
 -115 168 -115 168 -64 166 c 0,27,28
 -40 165 -40 165 -4 136 c 0,29,30
 46 95 46 95 139 112 c 1,31,32
 172 122 172 122 145 336 c 0,33,34
 127 461 127 461 95 630.5 c 128,-1,35
 63 800 63 800 25.5 981.5 c 128,-1,36
 -12 1163 -12 1163 -22 1218 c 0,37,38
 -25 1234 -25 1234 -36.5 1273.5 c 128,-1,39
 -48 1313 -48 1313 -50.5 1329.5 c 128,-1,40
 -53 1346 -53 1346 -50 1375 c 1,41,42
 -41 1398 -41 1398 -11 1464 c 4,0,1
EndSplineSet
Colour: ff00
EndChar

StartChar: dal.fina_LamDalIsol
Encoding: 65629 -1 114
Width: 944
VWidth: 0
AnchorPoint: "HamzaBelow" 133 0 basechar 0
AnchorPoint: "HamzaAbove" 133 0 basechar 0
AnchorPoint: "DotBelow" 133 0 basechar 0
AnchorPoint: "DotAbove" 594 1270 basechar 0
AnchorPoint: "cursive" 891 61 entry 0
LayerCount: 2
Back
SplineSet
930.802 1463.58 m 0,0,1
 938.518 1478.97 938.518 1478.97 949.066 1477.26 c 0,2,3
 959.615 1475.54 959.615 1475.54 964.045 1461.71 c 0,2,3
 986.488 1391.62 986.488 1391.62 1052.46 1329.21 c 0,4,5
 1076.64 1306.33 1076.64 1306.33 1061.7 1283.07 c 0,6,7
 1056.26 1274.6 1056.26 1274.6 1042.6 1250.46 c 0,8,9
 1028.94 1226.32 1028.94 1226.32 1022.04 1214.78 c 1,8,9
 1023.5 1206.06 1023.5 1206.06 1079.28 919.539 c 0,10,11
 1135.06 633.015 1135.06 633.015 1156.88 481.534 c 0,10,11
 1165.6 421.01 1165.6 421.01 1167.21 336.391 c 0,12,13
 1168.81 251.771 1168.81 251.771 1166.33 196.635 c 0,14,15
 1163.84 141.497 1163.84 141.497 1162.07 140.99 c 0,12,13
 1154.44 36.9414 1154.44 36.9414 1113.17 -48.834 c 0,14,15
 1089.93 -97.1562 1089.93 -97.1562 1043.34 -112.517 c 0,16,17
 996.75 -127.877 996.75 -127.877 955.189 -116.622 c 0,18,19
 913.629 -105.367 913.629 -105.367 890.708 -81.9219 c 0,16,17
 844.091 -34.2412 844.091 -34.2412 835.55 69.3945 c 0,18,19
 827.406 168.195 827.406 168.195 878.354 166.172 c 0,20,21
 902.867 165.198 902.867 165.198 938.58 136.254 c 0,18,19
 989.065 95.3379 989.065 95.3379 1081.49 112.126 c 1,20,21
 1114.71 122.603 1114.71 122.603 1087.19 335.551 c 0,22,23
 1069.24 460.129 1069.24 460.129 1036.99 630.151 c 0,24,25
 1004.75 800.174 1004.75 800.174 967.569 981.578 c 0,26,27
 930.394 1162.98 930.394 1162.98 920.019 1217.98 c 0,24,25
 916.944 1234.28 916.944 1234.28 905.604 1273.5 c 0,26,27
 894.264 1312.71 894.264 1312.71 891.533 1329.59 c 0,28,29
 888.802 1346.47 888.802 1346.47 892.455 1374.92 c 1,26,27
 900.697 1397.33 900.697 1397.33 930.802 1463.58 c 0,0,1
938.58 136.254 m 0,28,29
 993.269 98.9893 993.269 98.9893 961.734 -6.29492 c 0,30,31
 939.167 -81.6416 939.167 -81.6416 906.438 -87.0312 c 0,32,33
 897.784 -88.457 897.784 -88.457 890.708 -81.9219 c 0,30,31
 801.031 0.895508 801.031 0.895508 725.14 235.069 c 1,32,33
 705.561 173.988 705.561 173.988 675.069 120.375 c 0,34,35
 644.579 66.7627 644.579 66.7627 618.324 47.6777 c 0,34,35
 553.443 0.515625 553.443 0.515625 427.326 -29.1084 c 0,36,37
 301.21 -58.7314 301.21 -58.7314 224.34 -41.666 c 0,36,37
 150.34 -25.2383 150.34 -25.2383 137.547 59.3818 c 0,38,39
 124.753 144.001 124.753 144.001 167.764 251.775 c 0,38,39
 173.703 267.938 173.703 267.938 184.19 269.373 c 0,40,41
 194.678 270.81 194.678 270.81 203.604 254.974 c 0,40,41
 262.789 146.465 262.789 146.465 431.7 170.494 c 0,42,43
 556.896 188.301 556.896 188.301 623.575 238.428 c 0,44,45
 690.254 288.555 690.254 288.555 694.868 347.519 c 1,44,45
 605.395 749.246 l 2,46,47
 602.688 760.111 602.688 760.111 603.591 782.104 c 0,48,49
 604.494 804.098 604.494 804.098 608.723 811.581 c 2,48,49
 650.195 884.99 l 2,50,51
 660.695 903.567 660.695 903.567 669.461 876.739 c 0,52,53
 670.276 874.243 670.276 874.243 670.931 871.422 c 0,52,53
 686.398 818.049 686.398 818.049 717.362 683.925 c 0,54,55
 748.327 549.801 748.327 549.801 772.113 458.379 c 0,56,57
 795.899 366.957 795.899 366.957 840.749 270.519 c 0,58,59
 885.599 174.08 885.599 174.08 938.58 136.254 c 0,28,29
EndSplineSet
Fore
SplineSet
939 136 m 0,0,1
 994 99 994 99 962 -6 c 0,2,3
 939 -81 939 -81 906 -87 c 0,4,5
 897 -88 897 -88 891 -82 c 0,6,7
 801 1 801 1 725 235 c 1,8,9
 705 174 705 174 675 120.5 c 128,-1,10
 645 67 645 67 618 48 c 0,11,12
 553 1 553 1 427 -29 c 128,-1,13
 301 -59 301 -59 224 -42 c 0,14,15
 150 -26 150 -26 137.5 59 c 128,-1,16
 125 144 125 144 168 252 c 0,17,18
 174 268 174 268 184.5 269.5 c 128,-1,19
 195 271 195 271 204 255 c 0,20,21
 263 146 263 146 432 170 c 0,22,23
 557 188 557 188 623.5 238.5 c 128,-1,24
 690 289 690 289 695 348 c 1,25,-1
 605 749 l 2,26,27
 602 760 602 760 603 782 c 128,-1,28
 604 804 604 804 609 812 c 2,29,-1
 650 885 l 2,30,31
 660 904 660 904 669 877 c 0,32,33
 670 875 670 875 671 871 c 0,34,35
 686 818 686 818 717 684 c 128,-1,36
 748 550 748 550 772 458.5 c 128,-1,37
 796 367 796 367 841 270.5 c 128,-1,38
 886 174 886 174 939 136 c 0,0,1
EndSplineSet
Colour: ff00
EndChar

StartChar: kaf.medi_KafLamMedi
Encoding: 65630 -1 115
Width: 1001
VWidth: 0
AnchorPoint: "HamzaBelow" 0 0 basechar 0
AnchorPoint: "HamzaAbove" 0 0 basechar 0
AnchorPoint: "DotBelow" 0 0 basechar 0
AnchorPoint: "DotAbove" 0 0 basechar 0
AnchorPoint: "cursive" 4 84 exit 0
LayerCount: 2
Back
SplineSet
-3.02246 191.85 m 0,0,1
 82.79 162.966 82.79 162.966 168.656 188.287 c 0,2,3
 254.522 213.609 254.522 213.609 314.406 250.304 c 0,4,5
 374.289 286.999 374.289 286.999 383.806 306.686 c 1,2,3
 380.847 379.125 380.847 379.125 323.785 446.633 c 0,4,5
 266.725 514.14 266.725 514.14 174.492 565.292 c 0,6,7
 82.2607 616.444 82.2607 616.444 1.64258 650.263 c 0,8,9
 -78.9746 684.082 -78.9746 684.082 -166.184 711.644 c 0,4,5
 -240.915 735.262 -240.915 735.262 -184.858 891.232 c 0,6,7
 -147.176 996.076 -147.176 996.076 -7.82812 1117.93 c 0,8,9
 131.519 1239.79 131.519 1239.79 315.537 1344.98 c 0,10,11
 499.556 1450.18 499.556 1450.18 662.279 1529.04 c 0,12,13
 825.003 1607.89 825.003 1607.89 960.371 1660.89 c 0,8,9
 981.527 1670.02 981.527 1670.02 995.64 1661.2 c 0,10,11
 1009.75 1652.38 1009.75 1652.38 1004.33 1629.18 c 2,10,11
 973.951 1499.25 l 2,12,13
 967.066 1469.8 967.066 1469.8 942.242 1460.75 c 0,14,15
 716.063 1378.28 716.063 1378.28 352.934 1180.37 c 0,16,17
 -10.1963 982.472 -10.1963 982.472 -102.644 885.961 c 1,16,17
 70.0098 821.674 70.0098 821.674 228.325 731.571 c 0,18,19
 386.641 641.469 386.641 641.469 497.056 556.257 c 0,20,21
 607.471 471.045 607.471 471.045 699.607 392.817 c 0,22,23
 791.745 314.59 791.745 314.59 868.575 256.296 c 0,24,25
 945.406 198.001 945.406 198.001 1000.02 179.492 c 0,18,19
 1028.04 169.994 1028.04 169.994 1036.05 123.376 c 0,20,21
 1044.05 76.7588 1044.05 76.7588 1032.4 34.6191 c 0,22,23
 1020.74 -7.52051 1020.74 -7.52051 1000.38 -6.57031 c 0,20,21
 959.094 -4.63965 959.094 -4.63965 857.591 78.2979 c 0,22,23
 756.089 161.234 756.089 161.234 622.154 283.854 c 0,24,25
 488.221 406.476 488.221 406.476 426.488 453.327 c 1,22,23
 431.824 429.975 431.824 429.975 428.379 388.871 c 0,24,25
 424.935 347.768 424.935 347.768 421.34 300.558 c 0,26,27
 417.745 253.348 417.745 253.348 396.984 202.108 c 0,28,29
 376.224 150.869 376.224 150.869 346.93 107.244 c 0,30,31
 317.635 63.6201 317.635 63.6201 262.791 29.6875 c 0,32,33
 207.946 -4.24512 207.946 -4.24512 136.184 -16.8418 c 0,24,25
 58.8965 -30.4082 58.8965 -30.4082 -5.7002 -21.1045 c 0,26,27
 -63.9502 -12.7119 -63.9502 -12.7119 -54.2627 89.6787 c 0,28,29
 -46.4072 172.691 -46.4072 172.691 -15.0811 190.435 c 0,30,31
 -8.87988 193.947 -8.87988 193.947 -3.02246 191.85 c 0,0,1
-174.216 690.481 m 0,28,29
 -174.098 688.899 -174.098 688.899 -171.876 653.72 c 0,30,31
 -169.654 618.541 -169.654 618.541 -167.715 598.243 c 0,32,33
 -165.776 577.945 -165.776 577.945 -161.335 534.787 c 0,34,35
 -156.893 491.628 -156.893 491.628 -150.769 461.944 c 0,36,37
 -144.646 432.261 -144.646 432.261 -135.723 391.262 c 0,38,39
 -126.8 350.262 -126.8 350.262 -114.231 321.332 c 0,40,41
 -101.663 292.401 -101.663 292.401 -86 263.7 c 0,42,43
 -70.3369 234.999 -70.3369 234.999 -49.0635 216.961 c 0,44,45
 -27.79 198.924 -27.79 198.924 -3.02246 191.85 c 0,30,31
 49.9111 176.731 49.9111 176.731 64.2881 121.175 c 0,32,33
 78.666 65.6172 78.666 65.6172 55.7285 19.0342 c 0,34,35
 32.791 -27.5498 32.791 -27.5498 -5.7002 -21.1045 c 0,32,33
 -46.0156 -14.3525 -46.0156 -14.3525 -78.2432 4.72852 c 0,34,35
 -110.472 23.8096 -110.472 23.8096 -129.05 41.5664 c 0,36,37
 -147.628 59.3242 -147.628 59.3242 -164.869 96.5615 c 0,38,39
 -182.111 133.799 -182.111 133.799 -187.572 150.078 c 0,40,41
 -193.034 166.357 -193.034 166.357 -204.236 211.053 c 0,42,43
 -215.438 255.748 -215.438 255.748 -217.056 261.636 c 1,34,35
 -236.342 182.88 -236.342 182.88 -283.134 106.354 c 0,36,37
 -329.926 29.8291 -329.926 29.8291 -385.186 13.9121 c 0,36,37
 -410.371 6.65918 -410.371 6.65918 -433.63 48.9189 c 0,38,39
 -456.89 91.1787 -456.89 91.1787 -447.6 139.762 c 0,40,41
 -438.31 188.345 -438.31 188.345 -385.186 197.04 c 0,38,39
 -346.92 203.306 -346.92 203.306 -303.477 223.054 c 0,40,41
 -260.034 242.802 -260.034 242.802 -255.072 271.885 c 1,40,41
 -251.127 329.09 -251.127 329.09 -259.845 492.226 c 0,42,43
 -268.562 655.361 -268.562 655.361 -286.155 928.919 c 0,44,45
 -303.749 1202.48 -303.749 1202.48 -312.55 1381.68 c 0,42,43
 -312.645 1385.36 -312.645 1385.36 -314.184 1396.83 c 0,44,45
 -315.722 1408.29 -315.722 1408.29 -314.833 1416.3 c 0,46,47
 -313.945 1424.3 -313.945 1424.3 -309.274 1432.43 c 2,44,-1
 -251.433 1533.01 l 2,45,46
 -247.683 1539.54 -247.683 1539.54 -243.274 1540.92 c 0,47,48
 -238.865 1542.31 -238.865 1542.31 -235.27 1536.96 c 0,49,50
 -231.674 1531.6 -231.674 1531.6 -230.82 1519.92 c 2,47,-1
 -184.858 891.23 l 2,48,49
 -182.746 862.347 -182.746 862.347 -179.445 789.358 c 0,50,51
 -176.145 716.37 -176.145 716.37 -174.216 690.481 c 0,28,29
EndSplineSet
Fore
SplineSet
-3 192 m 0,0,1
 83 163 83 163 169 188.5 c 128,-1,2
 255 214 255 214 314.5 250.5 c 128,-1,3
 374 287 374 287 384 307 c 1,4,5
 381 379 381 379 324 446.5 c 128,-1,6
 267 514 267 514 174.5 565 c 128,-1,7
 82 616 82 616 1.5 650 c 128,-1,8
 -79 684 -79 684 -166 712 c 0,9,10
 -241 736 -241 736 -185 891 c 0,11,12
 -147 996 -147 996 -7.5 1118 c 128,-1,13
 132 1240 132 1240 316 1345 c 128,-1,14
 500 1450 500 1450 662.5 1529 c 128,-1,15
 825 1608 825 1608 960 1661 c 0,16,17
 981 1670 981 1670 995.5 1661 c 128,-1,18
 1010 1652 1010 1652 1004 1629 c 2,19,-1
 974 1499 l 2,20,21
 967 1470 967 1470 942 1461 c 0,22,23
 716 1379 716 1379 353 1180.5 c 128,-1,24
 -10 982 -10 982 -103 886 c 1,25,26
 70 822 70 822 228.5 731.5 c 128,-1,27
 387 641 387 641 497 556 c 128,-1,28
 607 471 607 471 699.5 393 c 128,-1,29
 792 315 792 315 868.5 256.5 c 128,-1,30
 945 198 945 198 1000 179 c 0,31,32
 1028 170 1028 170 1036 123.5 c 128,-1,33
 1044 77 1044 77 1032.5 34.5 c 128,-1,34
 1021 -8 1021 -8 1000 -7 c 0,35,36
 959 -5 959 -5 857.5 78 c 128,-1,37
 756 161 756 161 622 283.5 c 128,-1,38
 488 406 488 406 426 453 c 1,39,40
 431 430 431 430 428 389 c 128,-1,41
 425 348 425 348 421.5 300.5 c 128,-1,42
 418 253 418 253 397 202 c 128,-1,43
 376 151 376 151 347 107.5 c 128,-1,44
 318 64 318 64 263 30 c 128,-1,45
 208 -4 208 -4 136 -17 c 0,46,47
 59 -31 59 -31 -6 -21 c 0,48,49
 -64 -13 -64 -13 -54 90 c 0,50,51
 -46 173 -46 173 -15 190 c 0,52,53
 -9 194 -9 194 -3 192 c 0,0,1
EndSplineSet
Colour: ff00
EndChar

StartChar: lam.medi_KafLamMedi
Encoding: 65631 -1 116
Width: 397
VWidth: 0
AnchorPoint: "HamzaBelow" 0 0 basechar 0
AnchorPoint: "HamzaAbove" 0 0 basechar 0
AnchorPoint: "DotBelow" 0 0 basechar 0
AnchorPoint: "DotAbove" 0 0 basechar 0
AnchorPoint: "cursive" 403 84 entry 0
LayerCount: 2
Back
SplineSet
396.337 191.85 m 0,0,1
 482.15 162.966 482.15 162.966 568.017 188.287 c 0,2,3
 653.883 213.609 653.883 213.609 713.766 250.304 c 0,4,5
 773.648 286.999 773.648 286.999 783.165 306.686 c 1,2,3
 780.207 379.125 780.207 379.125 723.146 446.633 c 0,4,5
 666.084 514.14 666.084 514.14 573.853 565.292 c 0,6,7
 481.621 616.444 481.621 616.444 401.003 650.264 c 0,8,9
 320.385 684.082 320.385 684.082 233.175 711.644 c 0,4,5
 158.444 735.262 158.444 735.262 214.501 891.232 c 0,6,7
 252.184 996.076 252.184 996.076 391.531 1117.93 c 0,8,9
 530.879 1239.79 530.879 1239.79 714.897 1344.98 c 0,10,11
 898.916 1450.18 898.916 1450.18 1061.64 1529.04 c 0,12,13
 1224.36 1607.89 1224.36 1607.89 1359.73 1660.89 c 0,8,9
 1380.89 1670.02 1380.89 1670.02 1395 1661.2 c 0,10,11
 1409.11 1652.38 1409.11 1652.38 1403.69 1629.18 c 2,10,11
 1373.31 1499.25 l 2,12,13
 1366.42 1469.8 1366.42 1469.8 1341.6 1460.75 c 0,14,15
 1115.42 1378.28 1115.42 1378.28 752.294 1180.38 c 0,16,17
 389.164 982.473 389.164 982.473 296.716 885.961 c 1,16,17
 469.37 821.674 469.37 821.674 627.686 731.571 c 0,18,19
 786.001 641.469 786.001 641.469 896.416 556.257 c 0,20,21
 1006.83 471.045 1006.83 471.045 1098.97 392.817 c 0,22,23
 1191.1 314.59 1191.1 314.59 1267.94 256.296 c 0,24,25
 1344.77 198.001 1344.77 198.001 1399.38 179.492 c 0,18,19
 1427.4 169.994 1427.4 169.994 1435.41 123.376 c 0,20,21
 1443.41 76.7588 1443.41 76.7588 1431.76 34.6191 c 0,22,23
 1420.1 -7.52051 1420.1 -7.52051 1399.74 -6.57031 c 0,20,21
 1358.45 -4.63965 1358.45 -4.63965 1256.95 78.2979 c 0,22,23
 1155.45 161.234 1155.45 161.234 1021.51 283.854 c 0,24,25
 887.58 406.476 887.58 406.476 825.848 453.327 c 1,22,23
 831.185 429.975 831.185 429.975 827.739 388.871 c 0,24,25
 824.294 347.768 824.294 347.768 820.699 300.558 c 0,26,27
 817.105 253.348 817.105 253.348 796.345 202.108 c 0,28,29
 775.584 150.869 775.584 150.869 746.289 107.244 c 0,30,31
 716.995 63.6201 716.995 63.6201 662.15 29.6875 c 0,32,33
 607.306 -4.24512 607.306 -4.24512 535.544 -16.8418 c 0,24,25
 458.257 -30.4082 458.257 -30.4082 393.66 -21.1045 c 0,26,27
 335.41 -12.7119 335.41 -12.7119 345.098 89.6787 c 0,28,29
 352.952 172.691 352.952 172.691 384.278 190.435 c 0,30,31
 390.479 193.947 390.479 193.947 396.337 191.85 c 0,0,1
225.145 690.481 m 0,28,29
 225.263 688.904 225.263 688.904 227.484 653.721 c 0,30,31
 229.707 618.536 229.707 618.536 231.646 598.243 c 0,32,33
 233.584 577.95 233.584 577.95 238.026 534.787 c 0,34,35
 242.469 491.624 242.469 491.624 248.592 461.944 c 0,36,37
 254.715 432.264 254.715 432.264 263.638 391.262 c 0,38,39
 272.561 350.26 272.561 350.26 285.129 321.331 c 0,40,41
 297.697 292.403 297.697 292.403 313.36 263.701 c 0,42,43
 329.022 234.998 329.022 234.998 350.296 216.961 c 0,44,45
 371.57 198.924 371.57 198.924 396.337 191.85 c 0,30,31
 449.271 176.731 449.271 176.731 463.648 121.175 c 0,32,33
 478.026 65.6172 478.026 65.6172 455.089 19.0342 c 0,34,35
 432.151 -27.5498 432.151 -27.5498 393.66 -21.1045 c 0,32,33
 353.345 -14.3525 353.345 -14.3525 321.117 4.72852 c 0,34,35
 288.889 23.8096 288.889 23.8096 270.311 41.5664 c 0,36,37
 251.732 59.3242 251.732 59.3242 234.49 96.5615 c 0,38,39
 217.249 133.799 217.249 133.799 211.787 150.078 c 0,40,41
 206.325 166.357 206.325 166.357 195.123 211.053 c 0,42,43
 183.921 255.748 183.921 255.748 182.304 261.636 c 1,34,35
 163.019 182.881 163.019 182.881 116.228 106.354 c 0,36,37
 69.4355 29.8291 69.4355 29.8291 14.1738 13.9121 c 0,36,37
 -11.0107 6.65918 -11.0107 6.65918 -34.2695 48.9189 c 0,38,39
 -57.5293 91.1787 -57.5293 91.1787 -48.2393 139.762 c 0,40,41
 -38.9502 188.345 -38.9502 188.345 14.1738 197.04 c 0,38,39
 52.4404 203.306 52.4404 203.306 95.8828 223.054 c 0,40,41
 139.326 242.802 139.326 242.802 144.288 271.885 c 1,40,41
 148.233 329.09 148.233 329.09 139.516 492.224 c 0,42,43
 130.799 655.358 130.799 655.358 113.204 928.92 c 0,44,45
 95.6104 1202.48 95.6104 1202.48 86.8096 1381.68 c 0,42,43
 86.7148 1385.36 86.7148 1385.36 85.1758 1396.83 c 0,44,45
 83.6377 1408.29 83.6377 1408.29 84.5264 1416.3 c 0,46,47
 85.415 1424.3 85.415 1424.3 90.0859 1432.43 c 2,44,-1
 147.928 1533.01 l 2,45,46
 151.678 1539.54 151.678 1539.54 156.087 1540.92 c 0,47,48
 160.495 1542.31 160.495 1542.31 164.091 1536.96 c 0,49,50
 167.687 1531.61 167.687 1531.61 168.54 1519.92 c 2,47,-1
 214.501 891.23 l 2,48,49
 216.612 862.353 216.612 862.353 219.914 789.364 c 0,50,51
 223.215 716.376 223.215 716.376 225.145 690.481 c 0,28,29
EndSplineSet
Fore
SplineSet
225 690 m 0,0,1
 225 688 225 688 227.5 653.5 c 128,-1,2
 230 619 230 619 232 598.5 c 128,-1,3
 234 578 234 578 238 535 c 128,-1,4
 242 492 242 492 248.5 462 c 128,-1,5
 255 432 255 432 264 391 c 128,-1,6
 273 350 273 350 285.5 321 c 128,-1,7
 298 292 298 292 313.5 263.5 c 128,-1,8
 329 235 329 235 350.5 217 c 128,-1,9
 372 199 372 199 396 192 c 0,10,11
 449 177 449 177 463.5 121.5 c 128,-1,12
 478 66 478 66 455 19 c 128,-1,13
 432 -28 432 -28 394 -21 c 0,14,15
 354 -14 354 -14 321.5 5 c 128,-1,16
 289 24 289 24 270.5 41.5 c 128,-1,17
 252 59 252 59 234.5 96.5 c 128,-1,18
 217 134 217 134 211.5 150 c 128,-1,19
 206 166 206 166 195 211 c 128,-1,20
 184 256 184 256 182 262 c 1,21,22
 163 183 163 183 116 106.5 c 128,-1,23
 69 30 69 30 14 14 c 0,24,25
 -11 7 -11 7 -34.5 49 c 128,-1,26
 -58 91 -58 91 -48.5 139.5 c 128,-1,27
 -39 188 -39 188 14 197 c 0,28,29
 52 203 52 203 95.5 223 c 128,-1,30
 139 243 139 243 144 272 c 1,31,32
 148 329 148 329 139.5 492 c 128,-1,33
 131 655 131 655 113.5 928.5 c 128,-1,34
 96 1202 96 1202 87 1382 c 0,35,36
 87 1386 87 1386 85.5 1397 c 128,-1,37
 84 1408 84 1408 84.5 1416 c 128,-1,38
 85 1424 85 1424 90 1432 c 2,39,-1
 148 1533 l 2,40,41
 152 1540 152 1540 156 1541 c 128,-1,42
 160 1542 160 1542 164 1537 c 128,-1,43
 168 1532 168 1532 169 1520 c 2,44,-1
 215 891 l 2,45,46
 217 862 217 862 220 789 c 128,-1,47
 223 716 223 716 225 690 c 0,0,1
EndSplineSet
Colour: ff00
EndChar

StartChar: lam.medi_LamMeemFina
Encoding: 65632 -1 117
Width: 483
VWidth: 0
AnchorPoint: "HamzaBelow" 0 0 basechar 0
AnchorPoint: "HamzaAbove" 0 0 basechar 0
AnchorPoint: "DotBelow" 0 0 basechar 0
AnchorPoint: "DotAbove" 0 0 basechar 0
AnchorPoint: "cursive" 2 102 exit 0
LayerCount: 2
Back
SplineSet
217.711 490.459 m 1,0,1
 208.671 346.328 208.671 346.328 177.031 259.295 c 0,2,3
 145.393 172.262 145.393 172.262 83.1416 102.818 c 0,2,3
 44.1758 59.3496 44.1758 59.3496 -36.543 83.2637 c 0,4,5
 -82.3838 96.8438 -82.3838 96.8438 -80.8555 115.758 c 0,6,7
 -80.0703 125.469 -80.0703 125.469 -62.2285 131.939 c 0,4,5
 171.859 216.84 171.859 216.84 164.018 550.82 c 0,6,7
 163.184 568.624 163.184 568.624 160.75 633.251 c 0,8,9
 158.317 697.879 158.317 697.879 155.608 746.199 c 0,10,11
 152.899 794.519 152.899 794.519 147.021 882.226 c 0,12,13
 141.141 969.933 141.141 969.933 130.154 1091.64 c 0,14,15
 119.169 1213.36 119.169 1213.36 103.44 1367.02 c 0,8,9
 102.293 1385.05 102.293 1385.05 115.402 1413 c 2,10,-1
 165.756 1509.34 l 1,11,12
 173.801 1519.38 173.801 1519.38 181.184 1519.89 c 0,13,14
 188.565 1520.41 188.565 1520.41 193.814 1510.58 c 0,15,16
 199.062 1500.76 199.062 1500.76 200.492 1481.86 c 0,13,14
 208.521 1399.84 208.521 1399.84 222.364 1252.28 c 0,15,16
 236.208 1104.72 236.208 1104.72 245.021 1013.1 c 0,17,18
 253.833 921.484 253.833 921.484 267.961 791.49 c 0,19,20
 282.088 661.496 282.088 661.496 296.857 545.736 c 0,15,16
 327.43 306.106 327.43 306.106 477.569 184.378 c 0,17,18
 518.996 150.789 518.996 150.789 525.873 103.768 c 0,19,20
 532.751 56.7451 532.751 56.7451 515.301 26.209 c 0,21,22
 497.851 -4.32617 497.851 -4.32617 477.362 0 c 0,19,20
 385.615 19.374 385.615 19.374 316.463 148.965 c 0,21,22
 247.311 278.555 247.311 278.555 217.711 490.459 c 1,0,1
-62.2285 131.939 m 0,21,22
 -10.0117 151.955 -10.0117 151.955 83.1416 102.818 c 0,23,24
 209.904 35.9521 209.904 35.9521 301.07 -29.3818 c 0,25,26
 302.559 -30.4492 302.559 -30.4492 307.985 -34.0332 c 0,27,28
 313.411 -37.6172 313.411 -37.6172 314.827 -38.8877 c 0,29,30
 316.243 -40.1572 316.243 -40.1572 320.834 -44.6953 c 0,31,32
 325.426 -49.2334 325.426 -49.2334 325.244 -52.208 c 0,33,34
 325.062 -55.1826 325.062 -55.1826 327.293 -62.1768 c 0,35,36
 329.524 -69.1709 329.524 -69.1709 326.22 -75.3525 c 2,27,28
 289.314 -210.903 l 2,29,30
 288.167 -215.436 288.167 -215.436 285.973 -218.876 c 0,31,32
 283.777 -222.316 283.777 -222.316 281.672 -224.559 c 0,33,34
 279.566 -226.801 279.566 -226.801 275.383 -228.219 c 0,35,36
 271.199 -229.637 271.199 -229.637 268.734 -230.356 c 0,37,38
 266.27 -231.075 266.27 -231.075 260.519 -231.222 c 0,39,40
 254.768 -231.368 254.768 -231.368 252.364 -231.315 c 0,41,42
 249.962 -231.262 249.962 -231.262 243.064 -230.889 c 0,43,44
 236.167 -230.515 236.167 -230.515 234.07 -230.425 c 0,31,32
 139.51 -228.907 139.51 -228.907 52.7412 -230.074 c 0,33,34
 -34.0283 -231.241 -34.0283 -231.241 -121.005 -264.315 c 0,35,36
 -207.981 -297.39 -207.981 -297.39 -263.033 -363.241 c 1,33,34
 -271.104 -394.563 -271.104 -394.563 -260.406 -499.959 c 0,35,36
 -249.709 -605.354 -249.709 -605.354 -226.697 -714.229 c 0,35,36
 -217.641 -757.076 -217.641 -757.076 -196.059 -847.364 c 0,37,38
 -174.476 -937.651 -174.476 -937.651 -162.075 -994.544 c 0,39,40
 -149.676 -1051.44 -149.676 -1051.44 -139.023 -1134.24 c 0,41,42
 -128.371 -1217.05 -128.371 -1217.05 -129.07 -1289.46 c 0,37,38
 -129.854 -1370.7 -129.854 -1370.7 -159.394 -1373.08 c 1,39,40
 -185.637 -1371.13 -185.637 -1371.13 -192.198 -1311.45 c 0,39,40
 -206.636 -1198.56 -206.636 -1198.56 -256.774 -991.051 c 0,41,42
 -306.912 -783.544 -306.912 -783.544 -332.209 -623.391 c 0,43,44
 -357.505 -463.236 -357.505 -463.236 -333.523 -362.353 c 0,41,42
 -305.061 -242.621 -305.061 -242.621 -251.966 -175.523 c 0,43,44
 -198.87 -108.427 -198.87 -108.427 -89.0439 -80.1504 c 1,43,44
 -96.3379 -75.3945 -96.3379 -75.3945 -103.496 -71.4492 c 0,45,46
 -110.655 -67.5029 -110.655 -67.5029 -118.902 -63.3018 c 0,47,48
 -127.149 -59.1006 -127.149 -59.1006 -132.292 -56.2383 c 1,45,-1
 -133.776 57.9238 l 2,46,47
 -134.377 104.292 -134.377 104.292 -62.2285 131.939 c 0,21,22
EndSplineSet
Fore
SplineSet
218 490 m 1,0,1
 209 346 209 346 177 259 c 128,-1,2
 145 172 145 172 83 103 c 0,3,4
 44 60 44 60 -37 83 c 0,5,6
 -83 97 -83 97 -81 116 c 0,7,8
 -80 126 -80 126 -62 132 c 0,9,10
 172 217 172 217 164 551 c 0,11,12
 163 569 163 569 160.5 633.5 c 128,-1,13
 158 698 158 698 155.5 746.5 c 128,-1,14
 153 795 153 795 147 882.5 c 128,-1,15
 141 970 141 970 130 1091.5 c 128,-1,16
 119 1213 119 1213 103 1367 c 0,17,18
 102 1385 102 1385 115 1413 c 2,19,-1
 166 1509 l 1,20,21
 174 1519 174 1519 181.5 1519.5 c 128,-1,22
 189 1520 189 1520 194 1510.5 c 128,-1,23
 199 1501 199 1501 200 1482 c 0,24,25
 208 1400 208 1400 222 1252.5 c 128,-1,26
 236 1105 236 1105 245 1013 c 128,-1,27
 254 921 254 921 268 791 c 128,-1,28
 282 661 282 661 297 546 c 0,29,30
 328 306 328 306 478 184 c 0,31,32
 519 150 519 150 526 103.5 c 128,-1,33
 533 57 533 57 515.5 26.5 c 128,-1,34
 498 -4 498 -4 477 0 c 0,35,36
 385 19 385 19 316.5 148.5 c 128,-1,37
 248 278 248 278 218 490 c 1,0,1
EndSplineSet
Colour: ff00
EndChar

StartChar: meem.fina_LamMeemFina
Encoding: 65633 -1 118
Width: 675
VWidth: 0
AnchorPoint: "HamzaBelow" 0 0 basechar 0
AnchorPoint: "HamzaAbove" 0 0 basechar 0
AnchorPoint: "DotBelow" 0 0 basechar 0
AnchorPoint: "DotAbove" 0 0 basechar 0
AnchorPoint: "cursive" 309 102 entry 0
LayerCount: 2
Back
SplineSet
524.91 490.459 m 1,0,1
 515.87 346.328 515.87 346.328 484.231 259.295 c 0,2,3
 452.593 172.262 452.593 172.262 390.343 102.818 c 0,2,3
 351.376 59.3496 351.376 59.3496 270.656 83.2637 c 0,4,5
 224.816 96.8447 224.816 96.8447 226.345 115.758 c 0,6,7
 227.129 125.469 227.129 125.469 244.972 131.939 c 0,4,5
 479.061 216.84 479.061 216.84 471.218 550.82 c 0,6,7
 470.383 568.631 470.383 568.631 467.95 633.252 c 0,8,9
 465.518 697.873 465.518 697.873 462.809 746.198 c 0,10,11
 460.1 794.522 460.1 794.522 454.22 882.227 c 0,12,13
 448.341 969.931 448.341 969.931 437.354 1091.64 c 0,14,15
 426.369 1213.36 426.369 1213.36 410.641 1367.02 c 0,8,9
 409.494 1385.05 409.494 1385.05 422.603 1413 c 2,10,-1
 472.957 1509.34 l 1,11,12
 481.001 1519.38 481.001 1519.38 488.384 1519.89 c 0,13,14
 495.766 1520.41 495.766 1520.41 501.014 1510.58 c 0,15,16
 506.262 1500.76 506.262 1500.76 507.691 1481.86 c 0,13,14
 515.722 1399.83 515.722 1399.83 529.564 1252.28 c 0,15,16
 543.407 1104.72 543.407 1104.72 552.22 1013.1 c 0,17,18
 561.033 921.481 561.033 921.481 575.161 791.487 c 0,19,20
 589.288 661.494 589.288 661.494 604.058 545.736 c 0,15,16
 634.63 306.107 634.63 306.107 784.767 184.378 c 0,17,18
 826.195 150.789 826.195 150.789 833.073 103.768 c 0,19,20
 839.95 56.7451 839.95 56.7451 822.5 26.209 c 0,21,22
 805.051 -4.32617 805.051 -4.32617 784.562 0 c 0,19,20
 692.814 19.374 692.814 19.374 623.662 148.965 c 0,21,22
 554.511 278.555 554.511 278.555 524.91 490.459 c 1,0,1
244.972 131.939 m 0,21,22
 297.188 151.955 297.188 151.955 390.343 102.818 c 0,23,24
 517.106 35.9502 517.106 35.9502 608.271 -29.3818 c 0,25,26
 609.759 -30.4482 609.759 -30.4482 615.186 -34.0332 c 0,27,28
 620.611 -37.6182 620.611 -37.6182 622.027 -38.8877 c 0,29,30
 623.442 -40.1572 623.442 -40.1572 628.034 -44.6953 c 0,31,32
 632.626 -49.2334 632.626 -49.2334 632.443 -52.208 c 0,33,34
 632.262 -55.1826 632.262 -55.1826 634.493 -62.1768 c 0,35,36
 636.725 -69.1709 636.725 -69.1709 633.42 -75.3525 c 2,27,28
 596.515 -210.903 l 2,29,30
 595.367 -215.436 595.367 -215.436 593.172 -218.876 c 0,31,32
 590.978 -222.316 590.978 -222.316 588.872 -224.559 c 0,33,34
 586.767 -226.801 586.767 -226.801 582.583 -228.219 c 0,35,36
 578.399 -229.637 578.399 -229.637 575.935 -230.356 c 0,37,38
 573.47 -231.075 573.47 -231.075 567.719 -231.222 c 0,39,40
 561.968 -231.368 561.968 -231.368 559.564 -231.315 c 0,41,42
 557.161 -231.262 557.161 -231.262 550.265 -230.889 c 0,43,44
 543.367 -230.515 543.367 -230.515 541.27 -230.425 c 0,31,32
 446.71 -228.907 446.71 -228.907 359.941 -230.074 c 0,33,34
 273.172 -231.241 273.172 -231.241 186.195 -264.315 c 0,35,36
 99.2188 -297.39 99.2188 -297.39 44.168 -363.241 c 1,33,34
 36.0967 -394.563 36.0967 -394.563 46.793 -499.958 c 0,35,36
 57.4893 -605.354 57.4893 -605.354 80.502 -714.229 c 0,35,36
 89.5586 -757.074 89.5586 -757.074 111.142 -847.363 c 0,37,38
 132.725 -937.652 132.725 -937.652 145.124 -994.544 c 0,39,40
 157.524 -1051.44 157.524 -1051.44 168.177 -1134.24 c 0,41,42
 178.829 -1217.05 178.829 -1217.05 178.13 -1289.46 c 0,37,38
 177.346 -1370.69 177.346 -1370.69 147.806 -1373.08 c 1,39,40
 121.563 -1371.13 121.563 -1371.13 115.002 -1311.45 c 0,39,40
 100.564 -1198.56 100.564 -1198.56 50.4258 -991.051 c 0,41,42
 0.287109 -783.544 0.287109 -783.544 -25.0088 -623.391 c 0,43,44
 -50.3037 -463.236 -50.3037 -463.236 -26.3223 -362.353 c 0,41,42
 2.14062 -242.621 2.14062 -242.621 55.2354 -175.524 c 0,43,44
 108.329 -108.427 108.329 -108.427 218.155 -80.1504 c 1,43,44
 210.861 -75.3945 210.861 -75.3945 203.703 -71.4492 c 0,45,46
 196.545 -67.5029 196.545 -67.5029 188.298 -63.3018 c 0,47,48
 180.051 -59.1006 180.051 -59.1006 174.908 -56.2383 c 1,45,-1
 173.424 57.9238 l 2,46,47
 172.823 104.29 172.823 104.29 244.972 131.939 c 0,21,22
EndSplineSet
Fore
SplineSet
245 132 m 0,0,1
 297 152 297 152 390 103 c 0,2,3
 517 36 517 36 608 -29 c 0,4,5
 609 -30 609 -30 615 -34 c 128,-1,6
 621 -38 621 -38 622 -39 c 128,-1,7
 623 -40 623 -40 628 -44.5 c 128,-1,8
 633 -49 633 -49 632.5 -52 c 128,-1,9
 632 -55 632 -55 634.5 -62 c 128,-1,10
 637 -69 637 -69 633 -75 c 2,11,-1
 597 -211 l 2,12,13
 596 -216 596 -216 593.5 -219 c 128,-1,14
 591 -222 591 -222 589 -224.5 c 128,-1,15
 587 -227 587 -227 582.5 -228.5 c 128,-1,16
 578 -230 578 -230 575.5 -230.5 c 128,-1,17
 573 -231 573 -231 567.5 -231 c 128,-1,18
 562 -231 562 -231 559.5 -231 c 128,-1,19
 557 -231 557 -231 550 -231 c 128,-1,20
 543 -231 543 -231 541 -230 c 0,21,22
 446 -228 446 -228 359.5 -229.5 c 128,-1,23
 273 -231 273 -231 186 -264 c 128,-1,24
 99 -297 99 -297 44 -363 c 1,25,26
 36 -394 36 -394 46.5 -499.5 c 128,-1,27
 57 -605 57 -605 81 -714 c 0,28,29
 90 -757 90 -757 111.5 -847.5 c 128,-1,30
 133 -938 133 -938 145.5 -994.5 c 128,-1,31
 158 -1051 158 -1051 168.5 -1134 c 128,-1,32
 179 -1217 179 -1217 178 -1289 c 0,33,34
 177 -1370 177 -1370 148 -1373 c 1,35,36
 122 -1371 122 -1371 115 -1311 c 0,37,38
 101 -1198 101 -1198 50.5 -991 c 128,-1,39
 0 -784 0 -784 -25 -623.5 c 128,-1,40
 -50 -463 -50 -463 -26 -362 c 0,41,42
 2 -242 2 -242 55 -175 c 128,-1,43
 108 -108 108 -108 218 -80 c 1,44,45
 211 -75 211 -75 204 -71.5 c 128,-1,46
 197 -68 197 -68 188.5 -63.5 c 128,-1,47
 180 -59 180 -59 175 -56 c 1,48,-1
 173 58 l 2,49,50
 173 104 173 104 245 132 c 0,0,1
EndSplineSet
Colour: ff00
EndChar

